{"glyphs":{"0":{"ha":833,"x_min":56,"x_max":778,"o":"m 222 438 q 239 314 222 367 q 283 225 256 261 q 345 171 310 189 q 417 153 381 153 q 488 171 453 153 q 551 225 524 189 q 594 314 578 261 q 611 438 611 367 q 594 561 611 508 q 551 650 578 614 q 488 704 524 686 q 417 722 453 722 q 345 704 381 722 q 283 650 310 686 q 239 561 256 614 q 222 438 222 508 m 778 438 q 749 251 778 333 q 670 111 719 168 q 555 24 621 54 q 417 -7 489 -7 q 278 24 343 -7 q 163 111 213 54 q 85 251 114 168 q 56 438 56 333 q 85 624 56 542 q 163 764 114 707 q 278 851 213 821 q 417 882 343 882 q 555 851 489 882 q 670 764 621 821 q 749 624 719 707 q 778 438 778 542 z "},"1":{"ha":465,"x_min":21,"x_max":375,"o":"m 375 875 l 375 0 l 208 0 l 208 660 l 104 590 l 21 715 l 250 875 l 375 875 z "},"2":{"ha":701,"x_min":49,"x_max":646,"o":"m 639 160 l 639 0 l 56 0 l 56 118 l 375 451 q 424 506 401 478 q 457 559 442 529 q 472 618 472 589 q 441 700 472 671 q 347 729 410 729 q 250 696 285 729 q 215 604 215 663 l 49 604 q 70 715 49 664 q 131 803 92 765 q 224 861 169 840 q 347 882 279 882 q 473 863 418 882 q 567 808 528 843 q 626 726 606 774 q 646 625 646 679 q 621 527 646 575 q 565 440 596 479 q 486 354 529 394 l 299 160 l 639 160 z "},"3":{"ha":708,"x_min":42,"x_max":660,"o":"m 49 632 q 74 727 51 682 q 135 806 96 772 q 228 861 175 840 q 347 882 282 882 q 466 862 413 882 q 558 808 519 842 q 618 730 597 774 q 639 639 639 686 q 622 558 639 592 q 583 501 604 524 q 528 458 558 476 q 593 411 564 440 q 639 344 618 386 q 660 243 660 303 q 638 151 660 196 q 575 72 615 107 q 478 15 535 36 q 354 -7 422 -7 q 224 13 281 -7 q 127 67 167 32 q 66 149 88 101 q 42 250 44 196 l 208 250 q 222 213 211 232 q 251 180 233 194 q 294 156 269 165 q 347 146 318 146 q 448 181 410 146 q 486 264 486 217 q 451 343 486 311 q 347 375 415 375 l 271 375 l 271 514 l 340 514 q 440 542 408 514 q 472 618 472 571 q 439 697 472 665 q 347 729 406 729 q 255 699 289 729 q 215 632 221 668 l 49 632 z "},"4":{"ha":701,"x_min":28,"x_max":674,"o":"m 674 160 l 583 160 l 583 0 l 417 0 l 417 160 l 28 160 l 28 306 l 389 875 l 583 875 l 583 319 l 674 319 l 674 160 m 417 319 l 417 646 l 208 319 l 417 319 z "},"5":{"ha":722,"x_min":56,"x_max":681,"o":"m 382 597 q 502 575 447 597 q 597 513 557 553 q 658 419 636 474 q 681 299 681 364 q 657 178 681 233 q 591 81 633 122 q 490 17 549 40 q 361 -7 432 -7 q 242 14 296 -7 q 148 69 188 35 q 85 148 108 103 q 56 243 61 193 l 222 243 q 236 210 225 228 q 265 178 247 193 q 308 155 283 164 q 361 146 332 146 q 472 188 429 146 q 514 299 514 231 q 472 409 514 367 q 361 451 429 451 q 297 437 324 451 q 254 406 271 422 q 222 361 235 386 l 76 361 l 132 875 l 618 875 l 618 715 l 271 715 l 250 556 q 290 576 268 567 q 332 590 308 583 q 382 597 356 597 z "},"6":{"ha":722,"x_min":42,"x_max":681,"o":"m 361 -7 q 232 17 290 -7 q 131 81 174 40 q 65 178 89 122 q 42 299 42 233 q 55 383 42 343 q 83 454 68 424 q 125 521 101 490 q 195 626 154 565 q 275 742 236 686 q 368 875 321 807 l 542 875 l 354 597 q 481 584 422 606 q 585 521 540 563 q 655 422 629 479 q 681 299 681 364 q 657 178 681 233 q 591 81 633 122 q 490 17 549 40 q 361 -7 432 -7 m 208 299 q 220 236 208 265 q 253 185 232 207 q 301 151 274 164 q 361 139 329 139 q 419 151 392 139 q 468 185 447 164 q 501 236 489 207 q 514 299 514 265 q 501 361 514 332 q 468 412 489 390 q 419 446 447 433 q 361 458 392 458 q 301 446 329 458 q 253 412 274 433 q 220 361 232 390 q 208 299 208 332 z "},"7":{"ha":639,"x_min":42,"x_max":604,"o":"m 604 875 l 604 750 l 257 0 l 83 0 l 417 715 l 42 715 l 42 875 l 604 875 z "},"8":{"ha":708,"x_min":42,"x_max":667,"o":"m 354 -7 q 226 15 283 -7 q 127 73 168 36 q 64 157 86 110 q 42 257 42 204 q 63 358 42 317 q 111 425 85 400 q 181 472 142 454 q 128 515 151 490 q 92 569 108 538 q 76 646 76 601 q 97 735 76 693 q 153 810 117 778 q 240 863 189 843 q 354 882 292 882 q 468 863 417 882 q 556 810 519 843 q 612 735 592 778 q 632 646 632 693 q 615 569 632 601 q 579 515 599 538 q 528 472 556 490 q 597 425 567 454 q 645 358 624 400 q 667 257 667 317 q 644 157 667 204 q 581 73 622 110 q 483 15 540 36 q 354 -7 425 -7 m 354 389 q 247 353 286 389 q 208 264 208 317 q 247 175 208 211 q 354 139 286 139 q 461 175 422 139 q 500 264 500 211 q 461 353 500 317 q 354 389 422 389 m 354 528 q 440 559 407 528 q 472 632 472 590 q 440 705 472 674 q 354 736 407 736 q 269 705 301 736 q 236 632 236 674 q 269 559 236 590 q 354 528 301 528 z "},"9":{"ha":722,"x_min":42,"x_max":681,"o":"m 361 882 q 490 858 432 882 q 591 794 549 835 q 657 697 633 753 q 681 576 681 642 q 667 492 681 532 q 639 421 654 451 q 597 354 621 385 q 564 305 582 332 q 526 249 546 278 q 486 190 507 219 q 446 133 465 161 q 354 0 400 68 l 181 0 l 368 278 q 241 291 300 269 q 138 354 182 313 q 67 453 93 396 q 42 576 42 511 q 65 697 42 642 q 131 794 89 753 q 232 858 174 835 q 361 882 290 882 m 514 576 q 501 639 514 610 q 468 690 489 668 q 419 724 447 711 q 361 736 392 736 q 301 724 329 736 q 253 690 274 711 q 220 639 232 668 q 208 576 208 610 q 220 514 208 543 q 253 463 232 485 q 301 429 274 442 q 361 417 329 417 q 419 429 392 417 q 468 463 447 442 q 501 514 489 485 q 514 576 514 543 z "},"\u0000":{"ha":0,"x_min":0,"x_max":0,"o":""},"\r":{"ha":0,"x_min":0,"x_max":0,"o":""}," ":{"ha":313,"x_min":0,"x_max":0,"o":""},"!":{"ha":361,"x_min":90,"x_max":271,"o":"m 271 83 q 244 20 271 47 q 181 -7 217 -7 q 117 20 144 -7 q 90 83 90 47 q 117 147 90 119 q 181 174 144 174 q 244 147 217 174 q 271 83 271 119 m 250 243 l 111 243 l 90 875 l 271 875 l 250 243 z "},"\"":{"ha":507,"x_min":63,"x_max":444,"o":"m 63 875 l 215 875 l 215 604 l 63 604 l 63 875 m 292 875 l 444 875 l 444 604 l 292 604 l 292 875 z "},"#":{"ha":868,"x_min":14,"x_max":854,"o":"m 667 521 l 632 354 l 799 354 l 771 229 l 611 229 l 563 0 l 438 0 l 486 229 l 306 229 l 257 0 l 132 0 l 181 229 l 14 229 l 42 354 l 201 354 l 236 521 l 69 521 l 97 646 l 257 646 l 306 875 l 431 875 l 382 646 l 563 646 l 611 875 l 736 875 l 688 646 l 854 646 l 826 521 l 667 521 m 542 521 l 361 521 l 326 354 l 507 354 l 542 521 z "},"$":{"ha":722,"x_min":49,"x_max":681,"o":"m 292 0 q 194 31 239 8 q 118 90 150 54 q 67 173 86 125 q 49 278 49 221 l 215 278 q 254 183 215 219 q 361 146 293 146 q 471 177 435 146 q 507 250 507 208 q 474 313 507 290 q 390 352 440 335 q 281 386 340 369 q 172 432 222 403 q 89 508 122 461 q 56 631 56 554 q 73 719 56 678 q 122 792 90 760 q 196 846 153 825 q 292 875 239 867 l 292 993 l 444 993 l 444 875 q 527 839 489 863 q 593 781 565 815 q 637 703 621 747 q 653 604 653 658 l 493 604 q 458 696 493 663 q 361 729 424 729 q 264 699 299 729 q 229 632 229 668 q 263 572 229 593 q 346 535 296 551 q 455 500 396 518 q 564 451 514 482 q 647 372 614 421 q 681 243 681 322 q 663 162 681 201 q 613 90 644 122 q 538 33 581 57 q 444 0 494 10 l 444 -118 l 292 -118 l 292 0 z "},"%":{"ha":889,"x_min":42,"x_max":847,"o":"m 111 0 l 646 875 l 778 875 l 243 0 l 111 0 m 153 688 q 175 628 153 651 q 229 604 197 604 q 283 628 261 604 q 306 688 306 651 q 283 747 306 724 q 229 771 261 771 q 175 747 197 771 q 153 688 153 724 m 417 688 q 402 615 417 649 q 362 555 388 581 q 302 515 336 529 q 229 500 268 500 q 156 515 190 500 q 97 555 122 529 q 56 615 71 581 q 42 688 42 649 q 56 760 42 726 q 97 820 71 794 q 156 860 122 846 q 229 875 190 875 q 302 860 268 875 q 362 820 336 846 q 402 760 388 794 q 417 688 417 726 m 583 188 q 606 128 583 151 q 660 104 628 104 q 714 128 692 104 q 736 188 736 151 q 714 247 736 224 q 660 271 692 271 q 606 247 628 271 q 583 188 583 224 m 847 188 q 833 115 847 149 q 792 55 818 81 q 733 15 767 29 q 660 0 699 0 q 587 15 621 0 q 527 55 553 29 q 487 115 501 81 q 472 188 472 149 q 487 260 472 226 q 527 320 501 294 q 587 360 553 346 q 660 375 621 375 q 733 360 699 375 q 792 320 767 346 q 833 260 818 294 q 847 188 847 226 z "},"&":{"ha":778,"x_min":42,"x_max":840,"o":"m 646 0 l 542 104 q 476 49 514 74 q 398 10 444 28 q 292 -7 351 -7 q 106 53 171 -7 q 42 208 42 114 q 65 310 42 267 q 118 383 89 353 q 194 444 151 419 l 153 493 q 127 523 140 507 q 102 560 114 539 q 83 607 90 581 q 76 667 76 633 q 94 750 76 711 q 142 818 111 789 q 214 865 172 847 q 306 882 256 882 q 397 865 356 882 q 469 818 439 847 q 517 750 500 789 q 535 667 535 711 q 526 606 535 633 q 503 558 517 579 q 474 520 490 536 q 444 493 458 504 q 417 469 429 482 q 389 444 404 457 l 521 313 l 597 424 l 778 424 l 632 208 l 840 0 l 646 0 m 299 535 l 333 563 q 369 599 349 575 q 389 660 389 624 q 365 719 389 696 q 306 743 342 743 q 246 719 269 743 q 222 660 222 696 q 241 598 222 624 q 271 563 260 572 l 299 535 m 306 132 q 362 142 338 132 q 403 167 386 153 q 438 201 422 182 l 285 354 q 244 319 261 339 q 217 279 229 303 q 204 225 204 256 q 213 192 204 208 q 234 162 221 175 q 266 140 247 149 q 306 132 285 132 z "},"'":{"ha":278,"x_min":63,"x_max":215,"o":"m 63 875 l 215 875 l 215 604 l 63 604 l 63 875 z "},"(":{"ha":410,"x_min":63,"x_max":382,"o":"m 222 313 q 247 109 222 203 q 301 -54 271 15 q 382 -201 338 -135 l 264 -285 q 163 -117 207 -210 q 94 72 125 -37 q 63 313 63 182 q 94 553 63 443 q 163 742 125 663 q 264 910 207 835 l 382 826 q 301 679 338 760 q 247 516 271 610 q 222 313 222 422 z "},")":{"ha":410,"x_min":28,"x_max":347,"o":"m 188 313 q 163 516 188 422 q 107 679 138 610 q 28 826 71 760 l 146 910 q 246 742 201 835 q 315 553 283 663 q 347 313 347 443 q 315 72 347 182 q 246 -117 283 -37 q 146 -285 201 -210 l 28 -201 q 107 -54 71 -135 q 163 109 138 15 q 188 313 188 203 z "},"*":{"ha":486,"x_min":28,"x_max":458,"o":"m 167 646 l 28 681 l 63 785 l 194 736 l 188 882 l 299 882 l 292 736 l 424 785 l 458 681 l 319 646 l 417 535 l 326 465 l 243 590 l 160 465 l 69 535 l 167 646 z "},"+":{"ha":646,"x_min":42,"x_max":604,"o":"m 396 639 l 396 424 l 604 424 l 604 285 l 396 285 l 396 69 l 250 69 l 250 285 l 42 285 l 42 424 l 250 424 l 250 639 l 396 639 z "},",":{"ha":278,"x_min":49,"x_max":229,"o":"m 139 174 q 202 146 175 174 q 229 76 229 118 q 210 -26 229 15 q 167 -92 190 -67 q 104 -139 139 -121 l 76 -104 q 106 -79 92 -94 q 126 -49 117 -67 q 139 -7 136 -31 q 76 20 103 -7 q 49 83 49 47 q 76 147 49 119 q 139 174 103 174 z "},"-":{"ha":514,"x_min":49,"x_max":465,"o":"m 465 285 l 49 285 l 49 424 l 465 424 l 465 285 z "},".":{"ha":278,"x_min":49,"x_max":229,"o":"m 49 83 q 76 147 49 119 q 139 174 103 174 q 202 147 175 174 q 229 83 229 119 q 202 20 229 47 q 139 -7 175 -7 q 76 20 103 -7 q 49 83 49 47 z "},"/":{"ha":514,"x_min":0,"x_max":514,"o":"m 153 -250 l 0 -250 l 361 875 l 514 875 l 153 -250 z "},":":{"ha":278,"x_min":49,"x_max":229,"o":"m 229 83 q 202 20 229 47 q 139 -7 175 -7 q 76 20 103 -7 q 49 83 49 47 q 76 147 49 119 q 139 174 103 174 q 202 147 175 174 q 229 83 229 119 m 229 549 q 202 485 229 513 q 139 458 175 458 q 76 485 103 458 q 49 549 49 513 q 76 612 49 585 q 139 639 103 639 q 202 612 175 639 q 229 549 229 585 z "},";":{"ha":278,"x_min":49,"x_max":229,"o":"m 229 549 q 202 485 229 513 q 139 458 175 458 q 76 485 103 458 q 49 549 49 513 q 76 612 49 585 q 139 639 103 639 q 202 612 175 639 q 229 549 229 585 m 139 174 q 202 146 175 174 q 229 76 229 118 q 210 -26 229 15 q 167 -92 190 -67 q 104 -139 139 -121 l 76 -104 q 106 -79 92 -94 q 126 -49 117 -67 q 139 -7 136 -31 q 76 20 103 -7 q 49 83 49 47 q 76 147 49 119 q 139 174 103 174 z "},"<":{"ha":632,"x_min":56,"x_max":576,"o":"m 576 160 l 576 7 l 56 250 l 56 375 l 576 618 l 576 465 l 236 313 l 576 160 z "},"=":{"ha":639,"x_min":49,"x_max":590,"o":"m 590 563 l 590 417 l 49 417 l 49 563 l 590 563 m 49 292 l 590 292 l 590 146 l 49 146 l 49 292 z "},">":{"ha":632,"x_min":56,"x_max":576,"o":"m 396 313 l 56 465 l 56 618 l 576 375 l 576 250 l 56 7 l 56 160 l 396 313 z "},"?":{"ha":625,"x_min":28,"x_max":583,"o":"m 583 639 q 569 556 583 590 q 531 495 554 522 q 483 444 508 468 q 434 392 457 419 q 397 328 411 364 q 382 243 382 293 l 222 243 q 237 351 222 307 q 273 428 251 396 q 319 484 294 461 q 366 528 344 507 q 402 571 388 549 q 417 625 417 593 q 388 701 417 672 q 306 729 358 729 q 226 694 258 729 q 194 597 194 660 l 28 597 q 51 715 31 663 q 109 805 72 768 q 196 862 146 842 q 306 882 246 882 q 422 863 371 882 q 510 813 474 844 q 565 735 546 781 q 583 639 583 690 m 215 83 q 242 147 215 119 q 306 174 269 174 q 369 147 342 174 q 396 83 396 119 q 369 20 396 47 q 306 -7 342 -7 q 242 20 269 -7 q 215 83 215 47 z "},"@":{"ha":1049,"x_min":56,"x_max":1007,"o":"m 528 778 q 717 742 629 778 q 869 644 804 706 q 970 500 933 582 q 1007 326 1007 418 q 991 216 1007 264 q 948 135 975 168 q 884 86 921 103 q 806 69 847 69 q 738 83 765 69 q 690 111 710 96 q 653 153 668 129 q 613 111 636 129 q 563 83 593 96 q 496 69 533 69 q 410 87 450 69 q 342 136 371 104 q 295 213 313 168 q 278 313 278 258 q 295 412 278 367 q 342 489 313 457 q 410 538 371 521 q 493 556 449 556 q 549 544 525 556 q 590 521 574 533 q 625 486 610 506 l 646 542 l 736 542 l 736 285 q 755 203 736 226 q 806 181 774 181 q 836 189 821 181 q 863 215 851 197 q 882 260 875 232 q 889 326 889 288 q 861 460 889 397 q 784 570 833 522 q 669 646 735 618 q 528 674 603 674 q 390 646 454 674 q 278 569 326 618 q 201 453 229 519 q 174 313 174 388 q 201 172 174 238 q 278 56 229 106 q 390 -21 326 7 q 528 -49 454 -49 q 608 -39 572 -49 q 672 -18 644 -29 q 729 14 704 -4 l 792 -76 q 718 -115 760 -99 q 634 -142 682 -131 q 528 -153 586 -153 q 343 -116 429 -153 q 193 -16 257 -79 q 92 132 129 47 q 56 313 56 217 q 92 493 56 408 q 193 641 129 578 q 343 741 257 704 q 528 778 429 778 m 514 181 q 597 217 561 181 q 632 313 632 254 q 597 408 632 371 q 514 444 561 444 q 431 408 467 444 q 396 313 396 371 q 431 217 396 254 q 514 181 467 181 z "},"A":{"ha":792,"x_min":-7,"x_max":799,"o":"m 167 0 l -7 0 l 319 875 l 472 875 l 799 0 l 625 0 l 563 181 l 229 181 l 167 0 m 507 333 l 396 653 l 285 333 l 507 333 z "},"B":{"ha":792,"x_min":90,"x_max":750,"o":"m 611 465 q 681 418 650 447 q 728 351 707 393 q 750 250 750 310 q 729 155 750 200 q 670 76 708 110 q 580 21 632 42 q 465 0 528 0 l 90 0 l 90 875 l 451 875 q 557 856 508 875 q 641 803 606 836 q 696 726 676 769 q 715 632 715 682 q 699 556 715 588 q 663 504 682 524 q 611 465 639 481 m 257 521 l 438 521 q 517 552 485 521 q 549 625 549 583 q 517 698 549 667 q 438 729 485 729 l 257 729 l 257 521 m 451 146 q 547 182 510 146 q 583 271 583 218 q 547 360 583 324 q 451 396 510 396 l 257 396 l 257 146 l 451 146 z "},"C":{"ha":896,"x_min":42,"x_max":861,"o":"m 208 438 q 229 323 208 375 q 285 233 250 271 q 366 174 319 194 q 465 153 413 153 q 546 166 510 153 q 610 201 582 179 q 658 249 639 222 q 688 306 676 276 l 861 306 q 811 186 846 243 q 726 87 776 129 q 609 19 675 44 q 465 -7 543 -7 q 302 27 379 -7 q 167 122 225 61 q 76 263 110 182 q 42 438 42 343 q 76 612 42 531 q 167 753 110 693 q 302 848 225 814 q 465 882 379 882 q 605 856 540 882 q 719 788 669 831 q 804 689 769 746 q 854 569 839 632 l 681 569 q 654 626 672 599 q 609 674 636 653 q 546 709 582 696 q 465 722 510 722 q 366 701 413 722 q 285 642 319 681 q 229 552 250 604 q 208 438 208 500 z "},"D":{"ha":840,"x_min":90,"x_max":799,"o":"m 368 160 q 467 182 419 160 q 552 242 515 204 q 610 330 589 279 q 632 438 632 381 q 610 545 632 494 q 552 633 589 596 q 467 693 515 671 q 368 715 419 715 l 257 715 l 257 160 l 368 160 m 90 0 l 90 875 l 368 875 q 532 840 454 875 q 669 744 610 804 q 764 606 729 685 q 799 438 799 526 q 764 269 799 349 q 669 131 729 190 q 532 35 610 71 q 368 0 454 0 l 90 0 z "},"E":{"ha":757,"x_min":90,"x_max":708,"o":"m 708 160 l 708 0 l 90 0 l 90 875 l 694 875 l 694 715 l 257 715 l 257 528 l 660 528 l 660 368 l 257 368 l 257 160 l 708 160 z "},"F":{"ha":708,"x_min":90,"x_max":674,"o":"m 257 715 l 257 500 l 597 500 l 597 340 l 257 340 l 257 0 l 90 0 l 90 875 l 674 875 l 674 715 l 257 715 z "},"G":{"ha":944,"x_min":42,"x_max":868,"o":"m 208 438 q 229 323 208 375 q 285 233 250 271 q 366 174 319 194 q 465 153 413 153 q 574 177 531 153 q 642 232 617 201 q 688 313 671 268 l 458 313 l 458 458 l 868 458 l 868 0 l 750 0 l 715 83 q 647 38 685 57 q 569 7 615 21 q 465 -7 524 -7 q 302 27 379 -7 q 167 122 225 61 q 76 263 110 182 q 42 438 42 343 q 76 612 42 531 q 167 753 110 693 q 302 848 225 814 q 465 882 379 882 q 605 856 540 882 q 719 788 669 831 q 804 689 769 746 q 854 569 839 632 l 681 569 q 654 626 672 599 q 609 674 636 653 q 546 709 582 696 q 465 722 510 722 q 366 701 413 722 q 285 642 319 681 q 229 552 250 604 q 208 438 208 500 z "},"H":{"ha":882,"x_min":90,"x_max":792,"o":"m 792 875 l 792 0 l 625 0 l 625 368 l 257 368 l 257 0 l 90 0 l 90 875 l 257 875 l 257 528 l 625 528 l 625 875 l 792 875 z "},"I":{"ha":347,"x_min":90,"x_max":257,"o":"m 257 0 l 90 0 l 90 875 l 257 875 l 257 0 z "},"J":{"ha":674,"x_min":14,"x_max":583,"o":"m 583 875 l 583 271 q 563 157 583 208 q 506 69 543 106 q 417 13 469 33 q 299 -7 364 -7 q 181 13 233 -7 q 91 69 128 33 q 34 157 54 106 q 14 271 14 208 l 181 271 q 213 185 181 218 q 299 153 246 153 q 384 185 351 153 q 417 271 417 218 l 417 875 l 583 875 z "},"K":{"ha":750,"x_min":90,"x_max":764,"o":"m 569 0 l 257 396 l 257 0 l 90 0 l 90 875 l 257 875 l 257 486 l 549 875 l 743 875 l 417 444 l 764 0 l 569 0 z "},"L":{"ha":688,"x_min":90,"x_max":667,"o":"m 667 160 l 667 0 l 90 0 l 90 875 l 257 875 l 257 160 l 667 160 z "},"M":{"ha":1069,"x_min":90,"x_max":979,"o":"m 979 875 l 979 0 l 813 0 l 813 486 l 590 0 l 479 0 l 257 486 l 257 0 l 90 0 l 90 875 l 236 875 l 535 229 l 833 875 l 979 875 z "},"N":{"ha":882,"x_min":90,"x_max":792,"o":"m 792 875 l 792 0 l 646 0 l 257 569 l 257 0 l 90 0 l 90 875 l 236 875 l 625 306 l 625 875 l 792 875 z "},"O":{"ha":931,"x_min":42,"x_max":889,"o":"m 208 438 q 229 323 208 375 q 285 233 250 271 q 366 174 319 194 q 465 153 413 153 q 564 174 517 153 q 646 233 611 194 q 701 323 681 271 q 722 438 722 375 q 701 552 722 500 q 646 642 681 604 q 564 701 611 681 q 465 722 517 722 q 366 701 413 722 q 285 642 319 681 q 229 552 250 604 q 208 438 208 500 m 889 438 q 855 263 889 343 q 763 122 821 182 q 628 27 706 61 q 465 -7 551 -7 q 302 27 379 -7 q 167 122 225 61 q 76 263 110 182 q 42 438 42 343 q 76 612 42 531 q 167 753 110 693 q 302 848 225 814 q 465 882 379 882 q 628 848 551 882 q 763 753 706 814 q 855 612 821 693 q 889 438 889 531 z "},"P":{"ha":757,"x_min":90,"x_max":715,"o":"m 417 875 q 533 852 479 875 q 628 790 588 829 q 692 697 669 750 q 715 583 715 643 q 692 470 715 524 q 628 377 669 417 q 533 315 588 338 q 417 292 479 292 l 257 292 l 257 0 l 90 0 l 90 875 l 417 875 m 417 451 q 467 463 443 451 q 508 492 490 474 q 538 533 526 510 q 549 583 549 557 q 538 633 549 610 q 508 675 526 657 q 467 704 490 693 q 417 715 443 715 l 257 715 l 257 451 l 417 451 z "},"Q":{"ha":931,"x_min":42,"x_max":889,"o":"m 889 438 q 874 324 889 375 q 843 236 860 272 q 799 160 824 193 l 882 76 l 792 -21 l 701 69 q 638 31 674 47 q 563 4 607 15 q 465 -7 519 -7 q 302 27 379 -7 q 167 122 225 61 q 76 263 110 182 q 42 438 42 343 q 76 612 42 531 q 167 753 110 693 q 302 848 225 814 q 465 882 379 882 q 628 848 551 882 q 763 753 706 814 q 855 612 821 693 q 889 438 889 531 m 208 438 q 229 323 208 375 q 285 233 250 271 q 366 174 319 194 q 465 153 413 153 q 515 157 493 153 q 553 167 538 161 q 583 181 569 172 l 493 271 l 583 368 l 681 278 q 701 321 692 296 q 715 372 708 342 q 722 438 722 401 q 701 552 722 500 q 646 642 681 604 q 564 701 611 681 q 465 722 517 722 q 366 701 413 722 q 285 642 319 681 q 229 552 250 604 q 208 438 208 500 z "},"R":{"ha":778,"x_min":90,"x_max":750,"o":"m 382 319 l 257 319 l 257 0 l 90 0 l 90 875 l 438 875 q 553 853 500 875 q 646 794 607 832 q 707 708 685 757 q 729 604 729 658 q 700 482 729 531 q 635 403 671 433 q 542 347 593 367 l 750 0 l 563 0 l 382 319 m 257 479 l 438 479 q 526 515 490 479 q 563 597 563 550 q 526 680 563 644 q 438 715 490 715 l 257 715 l 257 479 z "},"S":{"ha":722,"x_min":49,"x_max":681,"o":"m 56 631 q 77 726 56 681 q 138 806 99 772 q 234 861 178 840 q 361 882 290 882 q 480 861 426 882 q 572 803 533 840 q 632 715 611 765 q 653 604 653 664 l 493 604 q 458 696 493 663 q 361 729 424 729 q 264 699 299 729 q 229 632 229 668 q 263 572 229 593 q 346 535 296 551 q 455 500 396 518 q 564 451 514 482 q 647 372 614 421 q 681 243 681 322 q 658 151 681 196 q 593 72 635 107 q 492 15 551 36 q 361 -7 433 -7 q 230 14 288 -7 q 132 73 172 35 q 70 163 92 111 q 49 278 49 215 l 215 278 q 254 183 215 219 q 361 146 293 146 q 471 177 435 146 q 507 250 507 208 q 474 313 507 290 q 390 352 440 335 q 281 386 340 369 q 172 432 222 403 q 89 508 122 461 q 56 631 56 554 z "},"T":{"ha":722,"x_min":21,"x_max":701,"o":"m 21 875 l 701 875 l 701 715 l 444 715 l 444 0 l 278 0 l 278 715 l 21 715 l 21 875 z "},"U":{"ha":861,"x_min":83,"x_max":778,"o":"m 431 153 q 563 201 514 153 q 611 333 611 250 l 611 875 l 778 875 l 778 333 q 752 198 778 260 q 680 90 726 136 q 569 19 633 44 q 431 -7 506 -7 q 292 19 356 -7 q 181 90 228 44 q 109 198 135 136 q 83 333 83 260 l 83 875 l 250 875 l 250 333 q 299 201 250 250 q 431 153 347 153 z "},"V":{"ha":806,"x_min":7,"x_max":799,"o":"m 319 0 l 7 875 l 181 875 l 403 236 l 625 875 l 799 875 l 486 0 l 319 0 z "},"W":{"ha":1153,"x_min":7,"x_max":1146,"o":"m 403 0 l 285 0 l 7 875 l 174 875 l 347 306 l 528 875 l 625 875 l 806 306 l 979 875 l 1146 875 l 868 0 l 750 0 l 576 549 l 403 0 z "},"X":{"ha":778,"x_min":7,"x_max":771,"o":"m 569 875 l 757 875 l 486 444 l 771 0 l 583 0 l 389 318 l 194 0 l 7 0 l 292 444 l 21 875 l 208 875 l 389 569 l 569 875 z "},"Y":{"ha":764,"x_min":7,"x_max":757,"o":"m 576 875 l 757 875 l 465 333 l 465 0 l 299 0 l 299 333 l 7 875 l 188 875 l 382 500 l 576 875 z "},"Z":{"ha":715,"x_min":42,"x_max":674,"o":"m 257 160 l 674 160 l 674 0 l 42 0 l 42 132 l 438 715 l 56 715 l 56 875 l 653 875 l 653 743 l 257 160 z "},"[":{"ha":431,"x_min":90,"x_max":403,"o":"m 250 -97 l 403 -97 l 403 -250 l 90 -250 l 90 875 l 403 875 l 403 722 l 250 722 l 250 -97 z "},"\\":{"ha":514,"x_min":0,"x_max":514,"o":"m 0 875 l 153 875 l 514 -250 l 361 -250 l 0 875 z "},"]":{"ha":431,"x_min":28,"x_max":340,"o":"m 181 722 l 28 722 l 28 875 l 340 875 l 340 -250 l 28 -250 l 28 -97 l 181 -97 l 181 722 z "},"^":{"ha":569,"x_min":42,"x_max":528,"o":"m 42 465 l 243 875 l 326 875 l 528 465 l 389 465 l 285 688 l 181 465 l 42 465 z "},"_":{"ha":396,"x_min":-28,"x_max":424,"o":"m 424 -257 l -28 -257 l -28 -118 l 424 -118 l 424 -257 z "},"`":{"ha":326,"x_min":42,"x_max":285,"o":"m 285 701 l 167 701 l 42 875 l 194 875 l 285 701 z "},"a":{"ha":660,"x_min":49,"x_max":590,"o":"m 340 646 q 440 627 394 646 q 519 575 486 608 q 572 496 553 542 q 590 396 590 450 l 590 0 l 472 0 l 444 63 q 396 28 422 43 q 339 3 372 14 q 264 -7 306 -7 q 104 44 160 -7 q 49 174 49 94 q 67 260 49 221 q 131 328 86 300 q 248 373 175 357 q 431 389 321 389 q 402 471 431 442 q 326 500 374 500 q 276 489 294 500 q 246 465 257 478 q 229 431 233 450 l 69 431 q 95 514 75 475 q 150 582 115 553 q 233 628 185 611 q 340 646 281 646 m 292 118 q 392 155 354 118 q 431 250 431 192 l 431 278 q 317 272 360 278 q 249 253 274 265 q 217 225 225 242 q 208 188 208 208 q 232 140 208 161 q 292 118 256 118 z "},"b":{"ha":743,"x_min":76,"x_max":701,"o":"m 403 -7 q 328 3 361 -7 q 271 28 294 14 q 222 63 243 43 l 194 0 l 76 0 l 76 875 l 236 875 l 236 583 q 281 614 256 600 q 333 635 303 625 q 403 646 363 646 q 517 622 463 646 q 612 553 571 597 q 677 450 653 510 q 701 319 701 390 q 677 189 701 249 q 612 85 653 129 q 517 17 571 42 q 403 -7 463 -7 m 222 319 q 268 193 222 240 q 382 146 314 146 q 496 193 450 146 q 542 319 542 240 q 496 446 542 399 q 382 493 450 493 q 268 446 314 493 q 222 319 222 399 z "},"c":{"ha":694,"x_min":42,"x_max":660,"o":"m 660 236 q 622 145 649 189 q 557 67 596 101 q 468 13 518 33 q 361 -7 418 -7 q 238 19 296 -7 q 137 89 181 44 q 67 192 93 133 q 42 319 42 251 q 67 447 42 388 q 137 550 93 506 q 238 620 181 594 q 361 646 296 646 q 468 626 418 646 q 557 572 518 606 q 622 494 596 538 q 660 403 649 450 l 500 403 q 469 447 489 428 q 426 478 453 464 q 361 493 400 493 q 247 446 293 493 q 201 319 201 399 q 247 193 201 240 q 361 146 293 146 q 426 160 400 146 q 469 190 453 174 q 500 236 489 210 l 660 236 z "},"d":{"ha":743,"x_min":42,"x_max":667,"o":"m 340 -7 q 226 17 281 -7 q 131 85 172 42 q 66 189 90 129 q 42 319 42 249 q 66 450 42 390 q 131 553 90 510 q 226 622 172 597 q 340 646 281 646 q 410 635 379 646 q 463 614 440 625 q 507 583 488 600 l 507 875 l 667 875 l 667 0 l 549 0 l 521 63 q 472 28 499 43 q 415 3 449 14 q 340 -7 382 -7 m 521 319 q 475 446 521 399 q 361 493 429 493 q 247 446 293 493 q 201 319 201 399 q 247 193 201 240 q 361 146 293 146 q 475 193 429 146 q 521 319 521 240 z "},"e":{"ha":708,"x_min":42,"x_max":667,"o":"m 646 194 q 608 122 633 158 q 545 58 582 86 q 462 11 508 29 q 361 -7 415 -7 q 238 19 296 -7 q 137 89 181 44 q 67 192 93 133 q 42 319 42 251 q 67 447 42 388 q 137 550 93 506 q 238 620 181 594 q 361 646 296 646 q 479 622 424 646 q 576 556 535 599 q 642 452 618 513 q 667 319 667 392 q 665 298 667 308 q 663 278 664 288 q 660 257 661 267 l 215 257 q 263 178 226 210 q 361 146 299 146 q 415 153 393 146 q 451 169 436 160 q 479 194 468 181 l 646 194 m 361 493 q 259 457 299 493 q 208 368 219 421 l 514 368 q 463 457 503 421 q 361 493 424 493 z "},"f":{"ha":424,"x_min":28,"x_max":396,"o":"m 104 479 l 28 479 l 28 625 l 104 625 l 104 653 q 120 747 104 704 q 165 819 136 789 q 233 866 193 850 q 319 882 272 882 q 349 880 335 882 q 374 875 363 878 q 396 868 386 871 l 396 729 q 385 732 390 731 q 372 735 379 733 q 354 736 365 736 q 288 712 313 736 q 264 646 264 688 l 264 625 l 396 625 l 396 479 l 264 479 l 264 0 l 104 0 l 104 479 z "},"g":{"ha":736,"x_min":42,"x_max":660,"o":"m 333 646 q 408 635 375 646 q 465 611 442 624 q 514 576 492 596 l 542 639 l 660 639 l 660 42 q 580 -160 660 -83 q 354 -236 500 -236 q 210 -204 265 -236 q 124 -132 156 -172 q 69 -28 88 -86 l 229 -28 q 256 -60 239 -46 q 294 -81 271 -71 q 354 -90 318 -90 q 461 -53 422 -90 q 500 42 500 -17 l 500 90 q 456 56 481 71 q 403 31 433 42 q 333 21 372 21 q 220 44 274 21 q 127 110 167 68 q 65 208 88 151 q 42 333 42 265 q 65 458 42 401 q 127 557 88 515 q 220 622 167 599 q 333 646 274 646 m 201 333 q 213 271 201 300 q 246 220 225 242 q 294 186 267 199 q 354 174 322 174 q 413 186 385 174 q 461 220 440 199 q 494 271 482 242 q 507 333 507 300 q 494 396 507 367 q 461 447 482 425 q 413 481 440 468 q 354 493 385 493 q 294 481 322 493 q 246 447 267 468 q 213 396 225 425 q 201 333 201 367 z "},"h":{"ha":729,"x_min":76,"x_max":660,"o":"m 417 646 q 513 627 468 646 q 590 573 558 608 q 641 488 622 538 q 660 375 660 438 l 660 0 l 500 0 l 500 354 q 463 455 500 417 q 368 493 426 493 q 273 455 310 493 q 236 354 236 417 l 236 0 l 76 0 l 76 875 l 236 875 l 236 576 q 279 611 254 596 q 335 635 301 624 q 417 646 369 646 z "},"i":{"ha":313,"x_min":69,"x_max":250,"o":"m 236 0 l 76 0 l 76 639 l 236 639 l 236 0 m 160 722 q 97 749 124 722 q 69 813 69 776 q 97 876 69 849 q 160 903 124 903 q 223 876 196 903 q 250 813 250 849 q 223 749 250 776 q 160 722 196 722 z "},"j":{"ha":313,"x_min":-56,"x_max":250,"o":"m 236 0 q 220 -94 236 -53 q 176 -167 204 -136 q 108 -213 147 -197 q 21 -229 68 -229 q -33 -222 -10 -229 q -56 -215 -46 -219 l -56 -76 q -46 -81 -51 -79 q -14 -83 -32 -83 q 52 -59 28 -83 q 76 7 76 -35 l 76 639 l 236 639 l 236 0 m 160 722 q 97 749 124 722 q 69 813 69 776 q 97 876 69 849 q 160 903 124 903 q 223 876 196 903 q 250 813 250 849 q 223 749 250 776 q 160 722 196 722 z "},"k":{"ha":625,"x_min":76,"x_max":639,"o":"m 458 0 l 236 292 l 236 0 l 76 0 l 76 875 l 236 875 l 236 375 l 431 639 l 611 639 l 382 333 l 639 0 l 458 0 z "},"l":{"ha":313,"x_min":76,"x_max":236,"o":"m 236 0 l 76 0 l 76 875 l 236 875 l 236 0 z "},"m":{"ha":1042,"x_min":76,"x_max":972,"o":"m 375 646 q 458 633 424 646 q 515 604 493 619 q 556 563 540 586 q 607 604 578 586 q 667 633 632 619 q 743 646 701 646 q 910 579 847 646 q 972 382 972 513 l 972 0 l 813 0 l 813 368 q 781 460 813 426 q 708 493 750 493 q 635 460 667 493 q 604 368 604 426 l 604 0 l 444 0 l 444 368 q 413 460 444 426 q 340 493 382 493 q 267 460 299 493 q 236 368 236 426 l 236 0 l 76 0 l 76 639 l 194 639 l 222 576 q 265 611 242 596 q 313 635 285 624 q 375 646 340 646 z "},"n":{"ha":729,"x_min":76,"x_max":660,"o":"m 403 646 q 507 627 460 646 q 588 573 554 608 q 641 488 622 538 q 660 375 660 438 l 660 0 l 500 0 l 500 354 q 463 455 500 417 q 368 493 426 493 q 273 455 310 493 q 236 354 236 417 l 236 0 l 76 0 l 76 639 l 194 639 l 222 576 q 274 611 246 596 q 330 635 297 624 q 403 646 363 646 z "},"o":{"ha":722,"x_min":42,"x_max":681,"o":"m 201 319 q 247 193 201 240 q 361 146 293 146 q 475 193 429 146 q 521 319 521 240 q 475 446 521 399 q 361 493 429 493 q 247 446 293 493 q 201 319 201 399 m 681 319 q 655 192 681 251 q 585 89 629 133 q 484 19 542 44 q 361 -7 426 -7 q 238 19 296 -7 q 137 89 181 44 q 67 192 93 133 q 42 319 42 251 q 67 447 42 388 q 137 550 93 506 q 238 620 181 594 q 361 646 296 646 q 484 620 426 646 q 585 550 542 594 q 655 447 629 506 q 681 319 681 388 z "},"p":{"ha":743,"x_min":76,"x_max":701,"o":"m 403 646 q 517 622 463 646 q 612 553 571 597 q 677 450 653 510 q 701 319 701 390 q 677 189 701 249 q 612 85 653 129 q 517 17 571 42 q 403 -7 463 -7 q 333 3 363 -7 q 281 24 303 13 q 236 56 256 38 l 236 -222 l 76 -222 l 76 639 l 194 639 l 222 576 q 271 611 243 596 q 328 635 294 624 q 403 646 361 646 m 222 319 q 268 193 222 240 q 382 146 314 146 q 496 193 450 146 q 542 319 542 240 q 496 446 542 399 q 382 493 450 493 q 268 446 314 493 q 222 319 222 399 z "},"q":{"ha":743,"x_min":42,"x_max":667,"o":"m 340 646 q 415 635 382 646 q 472 611 449 624 q 521 576 499 596 l 549 639 l 667 639 l 667 -222 l 507 -222 l 507 56 q 463 24 488 38 q 410 3 440 13 q 340 -7 379 -7 q 226 17 281 -7 q 131 85 172 42 q 66 189 90 129 q 42 319 42 249 q 66 450 42 390 q 131 553 90 510 q 226 622 172 597 q 340 646 281 646 m 521 319 q 475 446 521 399 q 361 493 429 493 q 247 446 293 493 q 201 319 201 399 q 247 193 201 240 q 361 146 293 146 q 475 193 429 146 q 521 319 521 240 z "},"r":{"ha":451,"x_min":76,"x_max":424,"o":"m 375 646 q 394 644 386 646 q 410 642 403 643 q 424 639 417 640 l 424 472 q 408 475 417 474 q 391 478 401 476 q 368 479 381 479 q 273 441 310 479 q 236 340 236 403 l 236 0 l 76 0 l 76 639 l 194 639 l 222 569 q 263 607 239 590 q 310 634 282 622 q 375 646 339 646 z "},"s":{"ha":583,"x_min":42,"x_max":542,"o":"m 194 201 q 225 147 200 169 q 292 125 250 125 q 358 147 333 125 q 382 194 382 168 q 358 229 382 217 q 297 252 333 242 q 219 274 261 263 q 140 306 176 285 q 80 362 104 328 q 56 451 56 396 q 72 526 56 490 q 118 588 88 561 q 190 630 149 614 q 285 646 232 646 q 462 590 400 646 q 535 451 524 535 l 382 451 q 352 493 376 472 q 292 514 328 514 q 235 496 256 514 q 215 451 215 478 q 240 417 215 429 q 300 394 264 404 q 378 372 336 383 q 457 338 421 360 q 517 280 493 315 q 542 188 542 244 q 525 113 542 149 q 478 51 508 78 q 403 9 447 25 q 306 -7 360 -7 q 116 50 181 -7 q 42 201 51 107 l 194 201 z "},"t":{"ha":479,"x_min":28,"x_max":424,"o":"m 146 792 l 285 792 l 285 639 l 424 639 l 424 493 l 285 493 l 285 229 q 309 163 285 188 q 375 139 333 139 q 393 140 386 139 q 406 142 400 140 q 417 146 411 143 l 417 7 q 394 0 407 3 q 340 -7 371 -7 q 253 9 293 -7 q 185 56 214 25 q 141 128 157 86 q 125 222 125 169 l 125 493 l 28 493 l 28 625 l 69 625 q 146 701 146 625 l 146 792 z "},"u":{"ha":736,"x_min":76,"x_max":660,"o":"m 333 -7 q 229 12 276 -7 q 148 66 182 31 q 95 151 114 101 q 76 264 76 201 l 76 639 l 236 639 l 236 285 q 273 184 236 222 q 368 146 310 146 q 463 184 426 146 q 500 285 500 222 l 500 639 l 660 639 l 660 0 l 542 0 l 514 63 q 463 28 490 43 q 406 3 439 14 q 333 -7 372 -7 z "},"v":{"ha":653,"x_min":7,"x_max":646,"o":"m 646 639 l 403 0 l 250 0 l 7 639 l 174 639 l 326 197 l 479 639 l 646 639 z "},"w":{"ha":944,"x_min":7,"x_max":938,"o":"m 472 382 l 354 0 l 215 0 l 7 639 l 167 639 l 292 229 l 424 639 l 521 639 l 653 229 l 778 639 l 938 639 l 729 0 l 590 0 l 472 382 z "},"x":{"ha":625,"x_min":0,"x_max":625,"o":"m 174 0 l 0 0 l 215 326 l 14 639 l 188 639 l 313 438 l 438 639 l 611 639 l 410 326 l 625 0 l 451 0 l 313 215 l 174 0 z "},"y":{"ha":653,"x_min":7,"x_max":646,"o":"m 7 639 l 174 639 l 333 222 l 479 639 l 646 639 q 522 322 578 464 q 476 203 499 261 q 435 97 453 144 q 404 17 417 49 q 389 -21 392 -15 q 342 -117 365 -78 q 293 -182 319 -157 q 236 -218 267 -207 q 167 -229 206 -229 q 145 -228 156 -229 q 128 -226 135 -228 q 111 -222 118 -225 l 111 -90 q 192 -67 164 -90 q 236 -7 221 -43 l 250 28 l 7 639 z "},"z":{"ha":576,"x_min":42,"x_max":535,"o":"m 319 486 l 42 486 l 42 639 l 521 639 l 521 507 l 243 153 l 535 153 l 535 0 l 42 0 l 42 132 l 319 486 z "},"{":{"ha":451,"x_min":56,"x_max":424,"o":"m 56 375 q 106 395 88 375 q 125 451 125 415 l 125 674 q 340 875 125 875 l 424 875 l 424 729 l 354 729 q 278 653 278 729 l 278 438 q 265 374 278 397 q 236 336 251 350 q 194 313 218 321 q 236 289 218 304 q 265 251 251 275 q 278 188 278 226 l 278 -28 q 354 -104 278 -104 l 424 -104 l 424 -250 l 340 -250 q 125 -49 125 -250 l 125 174 q 106 230 125 210 q 56 250 88 250 l 56 375 z "},"|":{"ha":493,"x_min":167,"x_max":326,"o":"m 326 -222 l 167 -222 l 167 875 l 326 875 l 326 -222 z "},"}":{"ha":451,"x_min":28,"x_max":396,"o":"m 396 250 q 345 230 364 250 q 326 174 326 210 l 326 -49 q 111 -250 326 -250 l 28 -250 l 28 -104 l 97 -104 q 174 -28 174 -104 l 174 188 q 187 251 174 226 q 215 289 200 275 q 257 313 233 304 q 215 336 233 321 q 187 374 200 350 q 174 438 174 397 l 174 653 q 97 729 174 729 l 28 729 l 28 875 l 111 875 q 326 674 326 875 l 326 451 q 345 395 326 415 q 396 375 364 375 l 396 250 z "},"~":{"ha":625,"x_min":0,"x_max":625,"o":"m 451 264 q 381 276 418 264 q 309 302 344 288 q 242 328 274 317 q 188 340 211 340 q 143 322 161 340 q 125 271 125 303 l 0 271 q 47 433 0 381 q 174 486 94 486 q 244 474 207 486 q 316 448 281 463 q 383 422 351 433 q 438 410 414 410 q 482 428 464 410 q 500 479 500 447 l 625 479 q 578 317 625 369 q 451 264 531 264 z "}," ":{"ha":313,"x_min":0,"x_max":0,"o":"z "},"¡":{"ha":361,"x_min":90,"x_max":271,"o":"m 271 549 q 244 485 271 513 q 181 458 217 458 q 117 485 144 458 q 90 549 90 513 q 117 612 90 585 q 181 639 144 639 q 244 612 217 639 q 271 549 271 585 m 271 -222 l 90 -222 l 111 389 l 250 389 l 271 -222 z "},"¢":{"ha":694,"x_min":42,"x_max":660,"o":"m 285 0 q 188 43 232 13 q 111 116 143 74 q 60 210 79 158 q 42 319 42 263 q 60 428 42 376 q 111 521 79 479 q 188 593 143 563 q 285 639 232 624 l 285 750 l 438 750 l 438 639 q 517 602 481 626 q 583 547 554 578 q 632 478 613 515 q 660 403 651 442 l 500 403 q 469 447 489 428 q 426 478 453 464 q 361 493 400 493 q 247 446 293 493 q 201 319 201 399 q 247 193 201 240 q 361 146 293 146 q 426 160 400 146 q 469 190 453 174 q 500 236 489 210 l 660 236 q 631 160 651 197 q 582 92 611 124 q 516 37 553 61 q 438 0 479 13 l 438 -125 l 285 -125 l 285 0 z "},"£":{"ha":736,"x_min":56,"x_max":708,"o":"m 306 243 q 299 203 306 219 q 285 178 292 188 q 264 160 275 167 l 694 160 l 694 0 l 56 0 l 56 160 q 115 183 92 160 q 139 243 139 207 l 139 333 l 65 333 l 65 479 l 139 479 l 139 611 q 160 717 139 668 q 219 803 181 767 q 309 861 257 840 q 424 882 361 882 q 535 861 483 882 q 624 806 586 840 q 683 724 661 771 q 708 625 706 676 l 542 625 q 506 707 536 678 q 424 736 476 736 q 338 703 371 736 q 306 611 306 669 l 306 479 l 521 479 l 521 333 l 306 333 l 306 243 z "},"¤":{"ha":792,"x_min":35,"x_max":750,"o":"m 35 479 l 125 479 l 125 875 l 451 875 q 574 854 519 875 q 668 797 629 833 q 728 710 707 760 q 750 604 750 661 q 728 501 750 550 q 668 417 707 453 q 574 361 629 382 q 451 340 519 340 l 292 340 l 292 264 l 549 264 l 549 125 l 292 125 l 292 0 l 125 0 l 125 125 l 35 125 l 35 264 l 125 264 l 125 340 l 35 340 l 35 479 m 451 479 q 547 515 510 479 q 583 604 583 551 q 547 693 583 657 q 451 729 510 729 l 292 729 l 292 479 l 451 479 z "},"¥":{"ha":778,"x_min":14,"x_max":764,"o":"m 125 451 l 243 451 l 14 875 l 194 875 l 389 500 l 583 875 l 764 875 l 535 451 l 653 451 l 653 319 l 472 319 l 472 257 l 653 257 l 653 125 l 472 125 l 472 0 l 306 0 l 306 125 l 125 125 l 125 257 l 306 257 l 306 319 l 125 319 l 125 451 z "},"¦":{"ha":493,"x_min":167,"x_max":326,"o":"m 326 875 l 326 444 l 167 444 l 167 875 l 326 875 m 167 208 l 326 208 l 326 -222 l 167 -222 l 167 208 z "},"§":{"ha":667,"x_min":56,"x_max":611,"o":"m 611 347 q 592 266 611 300 q 549 210 572 232 q 486 167 521 185 q 528 131 510 151 q 556 84 543 111 q 569 21 569 57 q 554 -52 569 -18 q 510 -112 539 -86 q 438 -152 481 -137 q 340 -167 394 -167 q 160 -106 225 -167 q 90 49 96 -46 l 229 49 q 247 3 233 22 q 278 -28 258 -14 q 333 -42 299 -42 q 393 -20 369 -42 q 417 28 417 1 q 390 76 417 57 q 323 113 363 96 q 236 147 283 129 q 149 193 189 165 q 83 263 110 221 q 56 368 56 304 q 75 449 56 415 q 118 506 94 483 q 181 549 144 531 q 142 585 158 563 q 115 631 126 603 q 104 694 104 658 q 119 767 104 733 q 163 827 135 801 q 233 867 192 853 q 326 882 274 882 q 494 828 436 882 q 563 681 551 775 l 424 681 q 410 718 421 701 q 383 745 400 733 q 333 757 365 757 q 279 735 301 757 q 257 688 257 714 q 283 639 257 658 q 349 602 310 619 q 434 567 388 585 q 519 520 481 549 q 585 451 558 492 q 611 347 611 410 m 458 340 q 424 415 458 382 q 306 479 389 447 q 257 453 278 468 q 223 420 238 439 q 208 375 208 401 q 243 301 208 333 q 361 236 278 268 q 410 263 388 247 q 443 294 428 275 q 458 340 458 314 z "},"¨":{"ha":514,"x_min":42,"x_max":472,"o":"m 222 799 q 195 735 222 763 q 132 708 168 708 q 69 735 96 708 q 42 799 42 763 q 69 862 42 835 q 132 889 96 889 q 195 862 168 889 q 222 799 222 835 m 472 799 q 445 735 472 763 q 382 708 418 708 q 319 735 346 708 q 292 799 292 763 q 319 862 292 835 q 382 889 346 889 q 445 862 418 889 q 472 799 472 835 z "},"©":{"ha":986,"x_min":56,"x_max":931,"o":"m 167 438 q 192 302 167 364 q 263 194 218 240 q 366 123 307 149 q 493 97 425 97 q 620 123 561 97 q 724 194 679 149 q 794 302 768 240 q 819 438 819 364 q 794 572 819 510 q 724 681 768 635 q 620 752 679 726 q 493 778 561 778 q 366 752 425 778 q 263 681 307 726 q 192 572 218 635 q 167 438 167 510 m 931 438 q 897 263 931 343 q 803 122 863 182 q 664 27 743 61 q 493 -7 585 -7 q 322 27 401 -7 q 183 122 243 61 q 90 263 124 182 q 56 438 56 343 q 90 612 56 531 q 183 753 124 693 q 322 848 243 814 q 493 882 401 882 q 664 848 585 882 q 803 753 743 814 q 897 612 863 693 q 931 438 931 531 m 382 438 q 417 337 382 375 q 500 299 453 299 q 547 310 528 299 q 578 336 567 321 q 597 375 592 353 l 708 375 q 685 310 703 342 q 640 254 668 278 q 574 216 611 231 q 493 201 538 201 q 408 219 449 201 q 338 269 368 238 q 289 344 307 301 q 271 438 271 388 q 289 531 271 488 q 338 606 307 574 q 408 656 368 638 q 493 674 449 674 q 574 659 538 674 q 640 621 611 644 q 685 565 668 597 q 708 500 703 533 l 597 500 q 578 538 592 521 q 547 565 567 553 q 500 576 528 576 q 417 538 453 576 q 382 438 382 500 z "},"ª":{"ha":417,"x_min":42,"x_max":368,"o":"m 215 882 q 326 840 283 882 q 368 736 368 799 l 368 500 l 299 500 l 278 535 q 249 514 265 522 q 213 499 233 506 q 167 493 193 493 q 75 525 108 493 q 42 604 42 557 q 52 657 42 633 q 88 699 63 681 q 158 726 114 717 q 271 736 203 736 q 263 764 269 751 q 244 783 256 775 q 208 792 232 792 q 179 786 189 792 q 163 774 169 781 q 153 757 156 767 l 63 757 q 102 846 63 810 q 215 882 142 882 m 271 667 q 206 662 232 667 q 166 650 181 657 q 145 635 151 643 q 139 618 139 626 q 153 590 139 603 q 194 576 168 576 q 249 599 226 576 q 271 653 271 621 l 271 667 z "},"«":{"ha":660,"x_min":42,"x_max":618,"o":"m 347 90 l 194 90 l 42 313 l 194 535 l 347 535 l 194 313 l 347 90 m 618 90 l 465 90 l 313 313 l 465 535 l 618 535 l 465 313 l 618 90 z "},"¬":{"ha":667,"x_min":35,"x_max":625,"o":"m 625 542 l 625 236 l 472 236 l 472 403 l 35 403 l 35 542 l 625 542 z "},"­":{"ha":514,"x_min":49,"x_max":465,"o":"m 465 285 l 49 285 l 49 424 l 465 424 l 465 285 z "},"®":{"ha":986,"x_min":56,"x_max":931,"o":"m 674 517 q 658 455 674 479 q 625 415 643 431 q 576 389 603 399 l 701 208 l 583 208 l 479 361 l 438 361 l 438 208 l 333 208 l 333 667 l 514 667 q 576 655 547 667 q 627 622 606 643 q 661 574 649 601 q 674 517 674 547 m 167 438 q 192 302 167 364 q 263 194 218 240 q 366 123 307 149 q 493 97 425 97 q 620 123 561 97 q 724 194 679 149 q 794 302 768 240 q 819 438 819 364 q 794 572 819 510 q 724 681 768 635 q 620 752 679 726 q 493 778 561 778 q 366 752 425 778 q 263 681 307 726 q 192 572 218 635 q 167 438 167 510 m 931 438 q 897 263 931 343 q 803 122 863 182 q 664 27 743 61 q 493 -7 585 -7 q 322 27 401 -7 q 183 122 243 61 q 90 263 124 182 q 56 438 56 343 q 90 612 56 531 q 183 753 124 693 q 322 848 243 814 q 493 882 401 882 q 664 848 585 882 q 803 753 743 814 q 897 612 863 693 q 931 438 931 531 m 514 458 q 558 476 540 458 q 576 514 576 493 q 558 552 576 535 q 514 569 540 569 l 438 569 l 438 458 l 514 458 z "},"¯":{"ha":444,"x_min":42,"x_max":403,"o":"m 403 729 l 42 729 l 42 847 l 403 847 l 403 729 z "},"°":{"ha":444,"x_min":42,"x_max":403,"o":"m 146 701 q 168 642 146 665 q 222 618 190 618 q 276 642 254 618 q 299 701 299 665 q 276 761 299 738 q 222 785 254 785 q 168 761 190 785 q 146 701 146 738 m 403 701 q 352 572 403 622 q 222 521 301 521 q 92 572 143 521 q 42 701 42 622 q 92 831 42 781 q 222 882 143 882 q 352 831 301 882 q 403 701 403 781 z "},"±":{"ha":646,"x_min":42,"x_max":604,"o":"m 250 701 l 396 701 l 396 486 l 604 486 l 604 347 l 396 347 l 396 160 l 604 160 l 604 14 l 42 14 l 42 160 l 250 160 l 250 347 l 42 347 l 42 486 l 250 486 l 250 701 z "},"²":{"ha":396,"x_min":42,"x_max":354,"o":"m 201 681 l 347 681 l 347 583 l 49 583 l 49 660 q 84 692 64 674 q 124 730 104 711 q 160 765 143 749 q 188 792 176 781 q 203 806 193 797 q 222 826 213 815 q 237 850 231 838 q 243 875 243 863 q 229 903 243 890 q 194 917 215 917 q 163 908 174 917 q 146 889 151 900 q 139 861 140 876 l 42 861 q 90 968 47 929 q 201 1007 133 1007 q 315 970 275 1007 q 354 875 354 933 q 349 842 354 857 q 336 815 343 826 q 322 795 329 803 q 313 785 315 788 l 201 681 z "},"³":{"ha":410,"x_min":42,"x_max":368,"o":"m 313 799 q 340 776 328 790 q 360 749 351 765 q 368 708 368 732 q 325 616 368 656 q 208 576 282 576 q 91 618 135 576 q 42 722 47 660 l 146 722 q 154 694 147 707 q 173 675 161 683 q 208 667 185 667 q 249 681 235 667 q 264 715 264 694 q 249 744 264 731 q 208 757 235 757 l 163 757 l 163 840 l 201 840 q 236 850 222 840 q 250 875 250 860 q 236 903 250 890 q 201 917 222 917 q 172 909 182 917 q 156 892 163 901 q 146 868 149 881 l 49 868 q 97 967 54 926 q 208 1007 140 1007 q 315 971 276 1007 q 354 882 354 935 q 347 846 354 861 q 333 819 340 831 q 313 799 324 807 z "},"´":{"ha":326,"x_min":42,"x_max":285,"o":"m 132 875 l 285 875 l 160 701 l 42 701 l 132 875 z "},"µ":{"ha":736,"x_min":76,"x_max":660,"o":"m 361 -7 q 309 0 332 -7 q 269 17 286 7 q 236 42 250 28 l 236 -222 l 76 -222 l 76 639 l 236 639 l 236 285 q 273 184 236 222 q 368 146 310 146 q 463 184 426 146 q 500 285 500 222 l 500 639 l 660 639 l 660 0 l 542 0 l 514 63 q 476 28 499 43 q 428 3 457 14 q 361 -7 400 -7 z "},"¶":{"ha":736,"x_min":42,"x_max":646,"o":"m 646 875 l 646 -125 l 507 -125 l 507 729 l 403 729 l 403 -125 l 264 -125 l 264 431 q 179 449 219 431 q 108 497 139 467 q 60 568 78 528 q 42 653 42 608 q 60 738 42 697 q 108 808 78 778 q 179 857 139 839 q 264 875 219 875 l 646 875 z "},"·":{"ha":313,"x_min":63,"x_max":243,"o":"m 243 438 q 216 374 243 401 q 153 347 189 347 q 90 374 117 347 q 63 438 63 401 q 90 501 63 474 q 153 528 117 528 q 216 501 189 528 q 243 438 243 474 z "},"¸":{"ha":306,"x_min":42,"x_max":264,"o":"m 160 -56 q 211 -74 188 -60 q 247 -106 231 -85 q 264 -160 264 -126 q 231 -233 264 -201 q 118 -264 197 -264 q 64 -257 88 -264 q 42 -250 51 -254 l 42 -187 q 58 -192 49 -190 q 76 -194 65 -193 q 97 -194 86 -194 q 149 -183 131 -194 q 167 -153 167 -171 q 150 -124 167 -137 q 97 -111 133 -111 q 75 -115 86 -111 q 63 -118 64 -118 l 111 0 l 188 0 l 160 -56 z "},"¹":{"ha":333,"x_min":28,"x_max":229,"o":"m 28 917 l 160 1000 l 229 1000 l 229 583 l 125 583 l 125 868 l 76 840 l 28 917 z "},"º":{"ha":458,"x_min":42,"x_max":417,"o":"m 417 688 q 401 613 417 649 q 359 551 385 578 q 299 509 333 525 q 229 493 265 493 q 159 509 193 493 q 99 551 125 525 q 57 613 72 578 q 42 688 42 649 q 57 762 42 726 q 99 824 72 797 q 159 866 125 850 q 229 882 193 882 q 299 866 265 882 q 359 824 333 850 q 401 762 385 797 q 417 688 417 726 m 153 688 q 175 622 153 646 q 229 597 197 597 q 283 622 261 597 q 306 688 306 646 q 283 753 306 729 q 229 778 261 778 q 175 753 197 778 q 153 688 153 729 z "},"»":{"ha":660,"x_min":42,"x_max":618,"o":"m 465 313 l 313 535 l 465 535 l 618 313 l 465 90 l 313 90 l 465 313 m 194 313 l 42 535 l 194 535 l 347 313 l 194 90 l 42 90 l 194 313 z "},"¼":{"ha":813,"x_min":28,"x_max":771,"o":"m 28 0 m 28 792 l 160 875 l 229 875 l 229 458 l 125 458 l 125 743 l 76 715 l 28 792 m 56 0 l 590 875 l 722 875 l 188 0 l 56 0 m 722 174 l 771 174 l 771 76 l 722 76 l 722 0 l 618 0 l 618 76 l 438 76 l 438 153 l 604 417 l 722 417 l 722 174 m 618 174 l 618 292 l 542 174 l 618 174 z "},"½":{"ha":847,"x_min":28,"x_max":806,"o":"m 28 0 m 28 792 l 160 875 l 229 875 l 229 458 l 125 458 l 125 743 l 76 715 l 28 792 m 56 0 l 590 875 l 722 875 l 188 0 l 56 0 m 653 97 l 799 97 l 799 0 l 500 0 l 500 76 q 535 109 515 90 q 575 147 556 128 q 611 181 594 165 q 639 208 628 197 q 654 223 644 214 q 673 243 664 232 q 688 267 682 254 q 694 292 694 279 q 681 320 694 307 q 646 333 667 333 q 614 325 625 333 q 597 306 603 317 q 590 278 592 293 l 493 278 q 542 385 499 346 q 653 424 585 424 q 766 387 726 424 q 806 292 806 350 q 800 258 806 274 q 788 231 794 243 q 774 212 781 219 q 764 201 767 204 l 653 97 z "},"¾":{"ha":896,"x_min":42,"x_max":854,"o":"m 42 0 m 139 0 l 674 875 l 806 875 l 271 0 l 139 0 m 806 174 l 854 174 l 854 76 l 806 76 l 806 0 l 701 0 l 701 76 l 521 76 l 521 153 l 688 417 l 806 417 l 806 174 m 701 174 l 701 292 l 625 174 l 701 174 m 313 674 q 340 651 328 665 q 360 624 351 640 q 368 583 368 607 q 325 491 368 531 q 208 451 282 451 q 91 493 135 451 q 42 597 47 535 l 146 597 q 154 569 147 582 q 173 550 161 558 q 208 542 185 542 q 249 556 235 542 q 264 590 264 569 q 249 619 264 606 q 208 632 235 632 l 163 632 l 163 715 l 201 715 q 236 725 222 715 q 250 750 250 735 q 236 778 250 765 q 201 792 222 792 q 172 784 182 792 q 156 767 163 776 q 146 743 149 756 l 49 743 q 97 842 54 801 q 208 882 140 882 q 315 846 276 882 q 354 757 354 810 q 347 721 354 736 q 333 694 340 706 q 313 674 324 682 z "},"¿":{"ha":625,"x_min":42,"x_max":597,"o":"m 42 14 q 56 96 42 63 q 94 156 71 129 q 142 204 117 182 q 191 251 168 226 q 228 309 214 276 q 243 389 243 342 l 403 389 q 388 286 403 328 q 352 215 374 244 q 306 164 331 185 q 259 123 281 143 q 223 81 238 103 q 208 28 208 58 q 238 -48 208 -19 q 319 -76 267 -76 q 399 -42 367 -76 q 431 56 431 -7 l 597 56 q 573 -62 594 -10 q 515 -152 551 -115 q 429 -209 479 -189 q 319 -229 379 -229 q 203 -210 254 -229 q 115 -160 151 -192 q 60 -83 79 -128 q 42 14 42 -39 m 410 549 q 383 485 410 513 q 319 458 356 458 q 256 485 283 458 q 229 549 229 513 q 256 612 229 585 q 319 639 283 639 q 383 612 356 639 q 410 549 410 585 z "},"À":{"ha":792,"x_min":-7,"x_max":799,"o":"m 0 0 m 167 0 l -7 0 l 319 875 l 472 875 l 799 0 l 625 0 l 563 181 l 229 181 l 167 0 m 507 333 l 396 653 l 285 333 l 507 333 m 451 972 l 333 972 l 208 1146 l 361 1146 l 451 972 z "},"Á":{"ha":792,"x_min":-7,"x_max":799,"o":"m 0 0 m 167 0 l -7 0 l 319 875 l 472 875 l 799 0 l 625 0 l 563 181 l 229 181 l 167 0 m 507 333 l 396 653 l 285 333 l 507 333 m 431 1146 l 583 1146 l 458 972 l 340 972 l 431 1146 z "},"Â":{"ha":792,"x_min":-7,"x_max":799,"o":"m 0 0 m 167 0 l -7 0 l 319 875 l 472 875 l 799 0 l 625 0 l 563 181 l 229 181 l 167 0 m 507 333 l 396 653 l 285 333 l 507 333 m 597 972 l 465 972 l 396 1063 l 326 972 l 194 972 l 326 1146 l 465 1146 l 597 972 z "},"Ã":{"ha":792,"x_min":-7,"x_max":799,"o":"m 0 0 m 167 0 l -7 0 l 319 875 l 472 875 l 799 0 l 625 0 l 563 181 l 229 181 l 167 0 m 507 333 l 396 653 l 285 333 l 507 333 m 486 951 q 432 963 454 951 q 392 990 410 975 q 360 1016 374 1004 q 333 1028 346 1028 q 295 1009 313 1028 q 278 958 278 990 l 194 958 q 231 1090 194 1047 q 319 1132 267 1132 q 373 1120 350 1132 q 414 1094 396 1108 q 446 1067 432 1079 q 472 1056 460 1056 q 510 1074 493 1056 q 528 1125 528 1093 l 611 1125 q 575 994 611 1036 q 486 951 539 951 z "},"Ä":{"ha":792,"x_min":-7,"x_max":799,"o":"m 0 0 m 167 0 l -7 0 l 319 875 l 472 875 l 799 0 l 625 0 l 563 181 l 229 181 l 167 0 m 507 333 l 396 653 l 285 333 l 507 333 m 361 1049 q 334 985 361 1013 q 271 958 307 958 q 208 985 235 958 q 181 1049 181 1013 q 208 1112 181 1085 q 271 1139 235 1139 q 334 1112 307 1139 q 361 1049 361 1085 m 611 1049 q 584 985 611 1013 q 521 958 557 958 q 458 985 485 958 q 431 1049 431 1013 q 458 1112 431 1085 q 521 1139 485 1139 q 584 1112 557 1139 q 611 1049 611 1085 z "},"Å":{"ha":792,"x_min":-7,"x_max":799,"o":"m 0 0 m 167 0 l -7 0 l 319 875 l 472 875 l 799 0 l 625 0 l 563 181 l 229 181 l 167 0 m 507 333 l 396 653 l 285 333 l 507 333 m 444 1063 q 431 1097 444 1083 q 396 1111 417 1111 q 361 1097 375 1111 q 347 1063 347 1083 q 361 1028 347 1042 q 396 1014 375 1014 q 431 1028 417 1014 q 444 1063 444 1042 m 528 1063 q 491 974 528 1010 q 396 938 454 938 q 301 974 338 938 q 264 1063 264 1010 q 301 1151 264 1115 q 396 1188 338 1188 q 491 1151 454 1188 q 528 1063 528 1115 z "},"Æ":{"ha":1160,"x_min":-35,"x_max":1111,"o":"m 146 0 l -35 0 l 444 875 l 1097 875 l 1097 715 l 708 715 l 708 528 l 1063 528 l 1063 368 l 708 368 l 708 160 l 1111 160 l 1111 0 l 542 0 l 542 188 l 250 188 l 146 0 m 333 347 l 542 347 l 542 715 l 535 715 l 333 347 z "},"Ç":{"ha":896,"x_min":42,"x_max":861,"o":"m 208 438 q 229 323 208 375 q 285 233 250 271 q 366 174 319 194 q 465 153 413 153 q 546 166 510 153 q 610 201 582 179 q 658 249 639 222 q 688 306 676 276 l 861 306 q 813 188 846 243 q 734 92 781 133 q 626 24 688 50 q 493 -7 565 -1 l 472 -56 q 524 -74 500 -60 q 560 -106 543 -85 q 576 -160 576 -126 q 543 -233 576 -201 q 431 -264 510 -264 q 376 -257 400 -264 q 354 -250 364 -254 l 354 -187 q 371 -192 361 -190 q 388 -194 378 -193 q 410 -194 399 -194 q 461 -183 443 -194 q 479 -153 479 -171 q 463 -124 479 -137 q 410 -111 446 -111 q 388 -115 399 -111 q 375 -118 376 -118 l 424 -7 q 276 40 346 3 q 155 135 207 76 q 72 269 103 193 q 42 438 42 346 q 76 612 42 531 q 167 753 110 693 q 302 848 225 814 q 465 882 379 882 q 605 856 540 882 q 719 788 669 831 q 804 689 769 746 q 854 569 839 632 l 681 569 q 654 626 672 599 q 609 674 636 653 q 546 709 582 696 q 465 722 510 722 q 366 701 413 722 q 285 642 319 681 q 229 552 250 604 q 208 438 208 500 z "},"È":{"ha":757,"x_min":90,"x_max":708,"o":"m 90 0 m 708 160 l 708 0 l 90 0 l 90 875 l 694 875 l 694 715 l 257 715 l 257 528 l 660 528 l 660 368 l 257 368 l 257 160 l 708 160 m 478 972 l 360 972 l 235 1146 l 388 1146 l 478 972 z "},"É":{"ha":757,"x_min":90,"x_max":708,"o":"m 90 0 m 708 160 l 708 0 l 90 0 l 90 875 l 694 875 l 694 715 l 257 715 l 257 528 l 660 528 l 660 368 l 257 368 l 257 160 l 708 160 m 424 1146 l 576 1146 l 451 972 l 333 972 l 424 1146 z "},"Ê":{"ha":757,"x_min":90,"x_max":708,"o":"m 90 0 m 708 160 l 708 0 l 90 0 l 90 875 l 694 875 l 694 715 l 257 715 l 257 528 l 660 528 l 660 368 l 257 368 l 257 160 l 708 160 m 597 972 l 465 972 l 396 1063 l 326 972 l 194 972 l 326 1146 l 465 1146 l 597 972 z "},"Ë":{"ha":757,"x_min":90,"x_max":708,"o":"m 90 0 m 708 160 l 708 0 l 90 0 l 90 875 l 694 875 l 694 715 l 257 715 l 257 528 l 660 528 l 660 368 l 257 368 l 257 160 l 708 160 m 368 1049 q 341 985 368 1013 q 278 958 314 958 q 215 985 242 958 q 188 1049 188 1013 q 215 1112 188 1085 q 278 1139 242 1139 q 341 1112 314 1139 q 368 1049 368 1085 m 618 1049 q 591 985 618 1013 q 528 958 564 958 q 465 985 492 958 q 438 1049 438 1013 q 465 1112 438 1085 q 528 1139 492 1139 q 591 1112 564 1139 q 618 1049 618 1085 z "},"Ì":{"ha":347,"x_min":-14,"x_max":257,"o":"m 0 0 m 257 0 l 90 0 l 90 875 l 257 875 l 257 0 m 229 972 l 111 972 l -14 1146 l 139 1146 l 229 972 z "},"Í":{"ha":347,"x_min":90,"x_max":347,"o":"m 90 0 m 257 0 l 90 0 l 90 875 l 257 875 l 257 0 m 194 1146 l 347 1146 l 222 972 l 104 972 l 194 1146 z "},"Î":{"ha":347,"x_min":-28,"x_max":375,"o":"m 0 0 m 257 0 l 90 0 l 90 875 l 257 875 l 257 0 m 375 972 l 243 972 l 174 1063 l 104 972 l -28 972 l 104 1146 l 243 1146 l 375 972 z "},"Ï":{"ha":347,"x_min":-42,"x_max":389,"o":"m 0 0 m 257 0 l 90 0 l 90 875 l 257 875 l 257 0 m 139 1049 q 112 985 139 1013 q 49 958 85 958 q -15 985 13 958 q -42 1049 -42 1013 q -15 1112 -42 1085 q 49 1139 13 1139 q 112 1112 85 1139 q 139 1049 139 1085 m 389 1049 q 362 985 389 1013 q 299 958 335 958 q 235 985 263 958 q 208 1049 208 1013 q 235 1112 208 1085 q 299 1139 263 1139 q 362 1112 335 1139 q 389 1049 389 1085 z "},"Ð":{"ha":875,"x_min":14,"x_max":833,"o":"m 14 0 m 14 500 l 125 500 l 125 875 l 403 875 q 567 840 489 875 q 704 744 644 804 q 799 606 764 685 q 833 438 833 526 q 799 269 833 349 q 704 131 764 190 q 567 35 644 71 q 403 0 489 0 l 125 0 l 125 361 l 14 361 l 14 500 m 403 160 q 502 182 454 160 q 587 242 550 204 q 645 330 624 279 q 667 438 667 381 q 645 545 667 494 q 587 633 624 596 q 502 693 550 671 q 403 715 454 715 l 292 715 l 292 500 l 444 500 l 444 361 l 292 361 l 292 160 l 403 160 z "},"Ñ":{"ha":882,"x_min":90,"x_max":792,"o":"m 90 0 m 792 875 l 792 0 l 646 0 l 257 569 l 257 0 l 90 0 l 90 875 l 236 875 l 625 306 l 625 875 l 792 875 m 535 965 q 481 977 503 965 q 440 1003 458 989 q 408 1030 422 1018 q 382 1042 394 1042 q 344 1023 361 1042 q 326 972 326 1004 l 243 972 q 279 1103 243 1061 q 368 1146 315 1146 q 422 1134 399 1146 q 463 1108 444 1122 q 494 1081 481 1093 q 521 1069 508 1069 q 559 1088 542 1069 q 576 1139 576 1107 l 660 1139 q 624 1008 660 1050 q 535 965 588 965 z "},"Ò":{"ha":931,"x_min":42,"x_max":889,"o":"m 42 0 m 208 438 q 229 323 208 375 q 285 233 250 271 q 366 174 319 194 q 465 153 413 153 q 564 174 517 153 q 646 233 611 194 q 701 323 681 271 q 722 438 722 375 q 701 552 722 500 q 646 642 681 604 q 564 701 611 681 q 465 722 517 722 q 366 701 413 722 q 285 642 319 681 q 229 552 250 604 q 208 438 208 500 m 889 438 q 855 263 889 343 q 763 122 821 182 q 628 27 706 61 q 465 -7 551 -7 q 302 27 379 -7 q 167 122 225 61 q 76 263 110 182 q 42 438 42 343 q 76 612 42 531 q 167 753 110 693 q 302 848 225 814 q 465 882 379 882 q 628 848 551 882 q 763 753 706 814 q 855 612 821 693 q 889 438 889 531 m 528 972 l 410 972 l 285 1146 l 438 1146 l 528 972 z "},"Ó":{"ha":931,"x_min":42,"x_max":889,"o":"m 42 0 m 208 438 q 229 323 208 375 q 285 233 250 271 q 366 174 319 194 q 465 153 413 153 q 564 174 517 153 q 646 233 611 194 q 701 323 681 271 q 722 438 722 375 q 701 552 722 500 q 646 642 681 604 q 564 701 611 681 q 465 722 517 722 q 366 701 413 722 q 285 642 319 681 q 229 552 250 604 q 208 438 208 500 m 889 438 q 855 263 889 343 q 763 122 821 182 q 628 27 706 61 q 465 -7 551 -7 q 302 27 379 -7 q 167 122 225 61 q 76 263 110 182 q 42 438 42 343 q 76 612 42 531 q 167 753 110 693 q 302 848 225 814 q 465 882 379 882 q 628 848 551 882 q 763 753 706 814 q 855 612 821 693 q 889 438 889 531 m 500 1146 l 653 1146 l 528 972 l 410 972 l 500 1146 z "},"Ô":{"ha":931,"x_min":42,"x_max":889,"o":"m 42 0 m 208 438 q 229 323 208 375 q 285 233 250 271 q 366 174 319 194 q 465 153 413 153 q 564 174 517 153 q 646 233 611 194 q 701 323 681 271 q 722 438 722 375 q 701 552 722 500 q 646 642 681 604 q 564 701 611 681 q 465 722 517 722 q 366 701 413 722 q 285 642 319 681 q 229 552 250 604 q 208 438 208 500 m 889 438 q 855 263 889 343 q 763 122 821 182 q 628 27 706 61 q 465 -7 551 -7 q 302 27 379 -7 q 167 122 225 61 q 76 263 110 182 q 42 438 42 343 q 76 612 42 531 q 167 753 110 693 q 302 848 225 814 q 465 882 379 882 q 628 848 551 882 q 763 753 706 814 q 855 612 821 693 q 889 438 889 531 m 667 972 l 535 972 l 465 1063 l 396 972 l 264 972 l 396 1146 l 535 1146 l 667 972 z "},"Õ":{"ha":931,"x_min":42,"x_max":889,"o":"m 42 0 m 208 438 q 229 323 208 375 q 285 233 250 271 q 366 174 319 194 q 465 153 413 153 q 564 174 517 153 q 646 233 611 194 q 701 323 681 271 q 722 438 722 375 q 701 552 722 500 q 646 642 681 604 q 564 701 611 681 q 465 722 517 722 q 366 701 413 722 q 285 642 319 681 q 229 552 250 604 q 208 438 208 500 m 889 438 q 855 263 889 343 q 763 122 821 182 q 628 27 706 61 q 465 -7 551 -7 q 302 27 379 -7 q 167 122 225 61 q 76 263 110 182 q 42 438 42 343 q 76 612 42 531 q 167 753 110 693 q 302 848 225 814 q 465 882 379 882 q 628 848 551 882 q 763 753 706 814 q 855 612 821 693 q 889 438 889 531 m 549 958 q 494 970 517 958 q 454 997 472 982 q 422 1023 436 1011 q 396 1035 408 1035 q 358 1016 375 1035 q 340 965 340 997 l 257 965 q 293 1097 257 1054 q 382 1139 329 1139 q 435 1127 413 1139 q 476 1101 458 1115 q 508 1074 494 1086 q 535 1063 522 1063 q 573 1081 556 1063 q 590 1132 590 1100 l 674 1132 q 638 1001 674 1043 q 549 958 601 958 z "},"Ö":{"ha":931,"x_min":42,"x_max":889,"o":"m 42 0 m 208 438 q 229 323 208 375 q 285 233 250 271 q 366 174 319 194 q 465 153 413 153 q 564 174 517 153 q 646 233 611 194 q 701 323 681 271 q 722 438 722 375 q 701 552 722 500 q 646 642 681 604 q 564 701 611 681 q 465 722 517 722 q 366 701 413 722 q 285 642 319 681 q 229 552 250 604 q 208 438 208 500 m 889 438 q 855 263 889 343 q 763 122 821 182 q 628 27 706 61 q 465 -7 551 -7 q 302 27 379 -7 q 167 122 225 61 q 76 263 110 182 q 42 438 42 343 q 76 612 42 531 q 167 753 110 693 q 302 848 225 814 q 465 882 379 882 q 628 848 551 882 q 763 753 706 814 q 855 612 821 693 q 889 438 889 531 m 431 1049 q 403 985 431 1013 q 340 958 376 958 q 277 985 304 958 q 250 1049 250 1013 q 277 1112 250 1085 q 340 1139 304 1139 q 403 1112 376 1139 q 431 1049 431 1085 m 681 1049 q 653 985 681 1013 q 590 958 626 958 q 527 985 554 958 q 500 1049 500 1013 q 527 1112 500 1085 q 590 1139 554 1139 q 653 1112 626 1139 q 681 1049 681 1085 z "},"×":{"ha":625,"x_min":69,"x_max":556,"o":"m 556 201 l 458 104 l 313 257 l 167 104 l 69 201 l 215 354 l 69 507 l 167 604 l 313 451 l 458 604 l 556 507 l 410 354 l 556 201 z "},"Ø":{"ha":931,"x_min":14,"x_max":917,"o":"m 104 201 q 72 267 86 231 q 51 342 61 299 q 42 438 42 385 q 76 612 42 531 q 167 753 110 693 q 302 848 225 814 q 465 882 379 882 q 570 867 524 882 q 651 836 617 853 q 722 792 690 817 l 806 868 l 917 757 l 826 674 q 857 607 843 643 q 878 533 868 575 q 889 438 889 490 q 855 263 889 343 q 763 122 821 182 q 628 27 706 61 q 465 -7 551 -7 q 360 7 407 -7 q 279 38 313 21 q 208 83 239 57 l 125 7 l 14 118 l 104 201 m 722 438 q 719 484 722 464 q 711 519 715 504 q 701 549 706 536 l 326 194 q 364 174 342 182 q 408 159 382 165 q 465 153 433 153 q 564 174 517 153 q 646 233 611 194 q 701 323 681 271 q 722 438 722 375 m 208 438 q 211 391 208 411 q 218 356 214 371 q 229 326 224 339 l 604 681 q 565 701 586 692 q 522 715 546 708 q 465 722 497 722 q 366 701 413 722 q 285 642 319 681 q 229 552 250 604 q 208 438 208 500 z "},"Ù":{"ha":861,"x_min":83,"x_max":778,"o":"m 83 0 m 431 153 q 563 201 514 153 q 611 333 611 250 l 611 875 l 778 875 l 778 333 q 752 198 778 260 q 680 90 726 136 q 569 19 633 44 q 431 -7 506 -7 q 292 19 356 -7 q 181 90 228 44 q 109 198 135 136 q 83 333 83 260 l 83 875 l 250 875 l 250 333 q 299 201 250 250 q 431 153 347 153 m 500 972 l 382 972 l 257 1146 l 410 1146 l 500 972 z "},"Ú":{"ha":861,"x_min":83,"x_max":778,"o":"m 83 0 m 431 153 q 563 201 514 153 q 611 333 611 250 l 611 875 l 778 875 l 778 333 q 752 198 778 260 q 680 90 726 136 q 569 19 633 44 q 431 -7 506 -7 q 292 19 356 -7 q 181 90 228 44 q 109 198 135 136 q 83 333 83 260 l 83 875 l 250 875 l 250 333 q 299 201 250 250 q 431 153 347 153 m 458 1146 l 611 1146 l 486 972 l 368 972 l 458 1146 z "},"Û":{"ha":861,"x_min":83,"x_max":778,"o":"m 83 0 m 431 153 q 563 201 514 153 q 611 333 611 250 l 611 875 l 778 875 l 778 333 q 752 198 778 260 q 680 90 726 136 q 569 19 633 44 q 431 -7 506 -7 q 292 19 356 -7 q 181 90 228 44 q 109 198 135 136 q 83 333 83 260 l 83 875 l 250 875 l 250 333 q 299 201 250 250 q 431 153 347 153 m 632 972 l 500 972 l 431 1063 l 361 972 l 229 972 l 361 1146 l 500 1146 l 632 972 z "},"Ü":{"ha":861,"x_min":83,"x_max":778,"o":"m 83 0 m 431 153 q 563 201 514 153 q 611 333 611 250 l 611 875 l 778 875 l 778 333 q 752 198 778 260 q 680 90 726 136 q 569 19 633 44 q 431 -7 506 -7 q 292 19 356 -7 q 181 90 228 44 q 109 198 135 136 q 83 333 83 260 l 83 875 l 250 875 l 250 333 q 299 201 250 250 q 431 153 347 153 m 396 1049 q 369 985 396 1013 q 306 958 342 958 q 242 985 269 958 q 215 1049 215 1013 q 242 1112 215 1085 q 306 1139 269 1139 q 369 1112 342 1139 q 396 1049 396 1085 m 646 1049 q 619 985 646 1013 q 556 958 592 958 q 492 985 519 958 q 465 1049 465 1013 q 492 1112 465 1085 q 556 1139 519 1139 q 619 1112 592 1139 q 646 1049 646 1085 z "},"Ý":{"ha":764,"x_min":7,"x_max":757,"o":"m 7 0 m 576 875 l 757 875 l 465 333 l 465 0 l 299 0 l 299 333 l 7 875 l 188 875 l 382 500 l 576 875 m 417 1146 l 569 1146 l 444 972 l 326 972 l 417 1146 z "},"Þ":{"ha":833,"x_min":90,"x_max":792,"o":"m 257 736 l 493 736 q 610 713 556 736 q 705 651 664 690 q 769 560 746 613 q 792 451 792 508 q 769 342 792 394 q 705 251 746 290 q 610 190 664 213 q 493 167 556 167 l 257 167 l 257 0 l 90 0 l 90 875 l 257 875 l 257 736 m 493 326 q 543 338 519 326 q 585 366 567 349 q 614 406 603 383 q 625 451 625 428 q 614 497 625 475 q 585 538 603 519 q 543 566 567 556 q 493 576 519 576 l 257 576 l 257 326 l 493 326 z "},"ß":{"ha":736,"x_min":83,"x_max":694,"o":"m 549 472 q 621 421 589 453 q 672 351 649 393 q 694 250 694 310 q 675 152 694 197 q 620 73 656 107 q 536 19 585 39 q 431 0 488 0 l 354 0 l 354 146 l 424 146 q 506 175 476 146 q 535 257 535 204 q 506 339 535 310 q 424 368 476 368 l 354 368 l 354 514 q 440 546 407 514 q 472 625 472 578 q 440 704 472 672 q 354 736 407 736 q 275 704 307 736 q 243 625 243 672 l 243 0 l 83 0 l 83 625 q 104 724 83 676 q 161 806 125 771 q 247 861 197 840 q 354 882 297 882 q 468 863 417 882 q 556 810 519 843 q 612 733 592 776 q 632 639 632 689 q 619 569 632 599 q 590 517 606 539 q 549 472 572 492 z "},"à":{"ha":660,"x_min":49,"x_max":590,"o":"m 49 0 m 340 646 q 440 627 394 646 q 519 575 486 608 q 572 496 553 542 q 590 396 590 450 l 590 0 l 472 0 l 444 63 q 396 28 422 43 q 339 3 372 14 q 264 -7 306 -7 q 104 44 160 -7 q 49 174 49 94 q 67 260 49 221 q 131 328 86 300 q 248 373 175 357 q 431 389 321 389 q 402 471 431 442 q 326 500 374 500 q 276 489 294 500 q 246 465 257 478 q 229 431 233 450 l 69 431 q 95 514 75 475 q 150 582 115 553 q 233 628 185 611 q 340 646 281 646 m 292 118 q 392 155 354 118 q 431 250 431 192 l 431 278 q 317 272 360 278 q 249 253 274 265 q 217 225 225 242 q 208 188 208 208 q 232 140 208 161 q 292 118 256 118 m 410 722 l 292 722 l 167 896 l 319 896 l 410 722 z "},"á":{"ha":660,"x_min":49,"x_max":590,"o":"m 49 0 m 340 646 q 440 627 394 646 q 519 575 486 608 q 572 496 553 542 q 590 396 590 450 l 590 0 l 472 0 l 444 63 q 396 28 422 43 q 339 3 372 14 q 264 -7 306 -7 q 104 44 160 -7 q 49 174 49 94 q 67 260 49 221 q 131 328 86 300 q 248 373 175 357 q 431 389 321 389 q 402 471 431 442 q 326 500 374 500 q 276 489 294 500 q 246 465 257 478 q 229 431 233 450 l 69 431 q 95 514 75 475 q 150 582 115 553 q 233 628 185 611 q 340 646 281 646 m 292 118 q 392 155 354 118 q 431 250 431 192 l 431 278 q 317 272 360 278 q 249 253 274 265 q 217 225 225 242 q 208 188 208 208 q 232 140 208 161 q 292 118 256 118 m 368 896 l 521 896 l 396 722 l 278 722 l 368 896 z "},"â":{"ha":660,"x_min":49,"x_max":590,"o":"m 49 0 m 340 646 q 440 627 394 646 q 519 575 486 608 q 572 496 553 542 q 590 396 590 450 l 590 0 l 472 0 l 444 63 q 396 28 422 43 q 339 3 372 14 q 264 -7 306 -7 q 104 44 160 -7 q 49 174 49 94 q 67 260 49 221 q 131 328 86 300 q 248 373 175 357 q 431 389 321 389 q 402 471 431 442 q 326 500 374 500 q 276 489 294 500 q 246 465 257 478 q 229 431 233 450 l 69 431 q 95 514 75 475 q 150 582 115 553 q 233 628 185 611 q 340 646 281 646 m 292 118 q 392 155 354 118 q 431 250 431 192 l 431 278 q 317 272 360 278 q 249 253 274 265 q 217 225 225 242 q 208 188 208 208 q 232 140 208 161 q 292 118 256 118 m 549 722 l 417 722 l 347 813 l 278 722 l 146 722 l 278 896 l 417 896 l 549 722 z "},"ã":{"ha":660,"x_min":49,"x_max":590,"o":"m 49 0 m 340 646 q 440 627 394 646 q 519 575 486 608 q 572 496 553 542 q 590 396 590 450 l 590 0 l 472 0 l 444 63 q 396 28 422 43 q 339 3 372 14 q 264 -7 306 -7 q 104 44 160 -7 q 49 174 49 94 q 67 260 49 221 q 131 328 86 300 q 248 373 175 357 q 431 389 321 389 q 402 471 431 442 q 326 500 374 500 q 276 489 294 500 q 246 465 257 478 q 229 431 233 450 l 69 431 q 95 514 75 475 q 150 582 115 553 q 233 628 185 611 q 340 646 281 646 m 292 118 q 392 155 354 118 q 431 250 431 192 l 431 278 q 317 272 360 278 q 249 253 274 265 q 217 225 225 242 q 208 188 208 208 q 232 140 208 161 q 292 118 256 118 m 431 708 q 376 720 399 708 q 336 747 354 732 q 304 773 318 761 q 278 785 290 785 q 240 766 257 785 q 222 715 222 747 l 139 715 q 175 847 139 804 q 264 889 211 889 q 317 877 294 889 q 358 851 340 865 q 390 824 376 836 q 417 813 404 813 q 455 831 438 813 q 472 882 472 850 l 556 882 q 519 751 556 793 q 431 708 483 708 z "},"ä":{"ha":660,"x_min":49,"x_max":590,"o":"m 49 0 m 340 646 q 440 627 394 646 q 519 575 486 608 q 572 496 553 542 q 590 396 590 450 l 590 0 l 472 0 l 444 63 q 396 28 422 43 q 339 3 372 14 q 264 -7 306 -7 q 104 44 160 -7 q 49 174 49 94 q 67 260 49 221 q 131 328 86 300 q 248 373 175 357 q 431 389 321 389 q 402 471 431 442 q 326 500 374 500 q 276 489 294 500 q 246 465 257 478 q 229 431 233 450 l 69 431 q 95 514 75 475 q 150 582 115 553 q 233 628 185 611 q 340 646 281 646 m 292 118 q 392 155 354 118 q 431 250 431 192 l 431 278 q 317 272 360 278 q 249 253 274 265 q 217 225 225 242 q 208 188 208 208 q 232 140 208 161 q 292 118 256 118 m 313 799 q 285 735 313 763 q 222 708 258 708 q 159 735 186 708 q 132 799 132 763 q 159 862 132 835 q 222 889 186 889 q 285 862 258 889 q 313 799 313 835 m 563 799 q 535 735 563 763 q 472 708 508 708 q 409 735 436 708 q 382 799 382 763 q 409 862 382 835 q 472 889 436 889 q 535 862 508 889 q 563 799 563 835 z "},"å":{"ha":660,"x_min":49,"x_max":590,"o":"m 49 0 m 340 646 q 440 627 394 646 q 519 575 486 608 q 572 496 553 542 q 590 396 590 450 l 590 0 l 472 0 l 444 63 q 396 28 422 43 q 339 3 372 14 q 264 -7 306 -7 q 104 44 160 -7 q 49 174 49 94 q 67 260 49 221 q 131 328 86 300 q 248 373 175 357 q 431 389 321 389 q 402 471 431 442 q 326 500 374 500 q 276 489 294 500 q 246 465 257 478 q 229 431 233 450 l 69 431 q 95 514 75 475 q 150 582 115 553 q 233 628 185 611 q 340 646 281 646 m 292 118 q 392 155 354 118 q 431 250 431 192 l 431 278 q 317 272 360 278 q 249 253 274 265 q 217 225 225 242 q 208 188 208 208 q 232 140 208 161 q 292 118 256 118 m 389 826 q 375 861 389 847 q 340 875 361 875 q 306 861 319 875 q 292 826 292 847 q 306 792 292 806 q 340 778 319 778 q 375 792 361 778 q 389 826 389 806 m 472 826 q 435 738 472 774 q 340 701 399 701 q 245 738 282 701 q 208 826 208 774 q 245 915 208 879 q 340 951 282 951 q 435 915 399 951 q 472 826 472 879 z "},"æ":{"ha":1076,"x_min":49,"x_max":1035,"o":"m 1014 194 q 976 119 1001 156 q 917 55 951 83 q 836 10 882 26 q 736 -7 790 -7 q 644 7 683 -7 q 579 38 606 21 q 528 83 549 57 q 468 38 503 57 q 396 7 439 21 q 299 -7 353 -7 q 189 8 236 -7 q 110 47 142 22 q 64 105 79 72 q 49 174 49 138 q 67 260 49 221 q 131 328 86 300 q 248 373 175 357 q 431 389 321 389 q 402 471 431 442 q 326 500 374 500 q 276 489 294 500 q 246 465 257 478 q 229 431 233 450 l 69 431 q 95 514 75 475 q 150 582 115 553 q 233 628 185 611 q 340 646 281 646 q 424 633 388 646 q 485 604 460 619 q 535 563 514 586 q 586 604 557 586 q 649 633 611 619 q 736 646 686 646 q 853 622 799 646 q 948 553 907 597 q 1012 450 989 510 q 1035 319 1035 390 q 1033 298 1035 308 q 1031 278 1032 288 q 1028 257 1029 267 l 590 257 q 638 178 601 210 q 736 146 674 146 q 788 153 768 146 q 822 169 808 160 q 847 194 838 181 l 1014 194 m 736 500 q 640 464 678 500 q 590 375 601 428 l 882 375 q 833 464 871 428 q 736 500 794 500 m 292 118 q 392 155 354 118 q 431 250 431 192 l 431 278 q 317 272 360 278 q 249 253 274 265 q 217 225 225 242 q 208 188 208 208 q 232 140 208 161 q 292 118 256 118 z "},"ç":{"ha":694,"x_min":42,"x_max":660,"o":"m 660 236 q 628 154 651 194 q 572 81 606 114 q 496 24 538 47 q 410 -7 454 1 l 382 -56 q 433 -74 410 -60 q 469 -106 453 -85 q 486 -160 486 -126 q 453 -233 486 -201 q 340 -264 419 -264 q 286 -257 310 -264 q 264 -250 274 -254 l 264 -187 q 281 -192 271 -190 q 298 -194 288 -193 q 319 -194 308 -194 q 371 -183 353 -194 q 389 -153 389 -171 q 372 -124 389 -137 q 319 -111 356 -111 q 297 -115 308 -111 q 285 -118 286 -118 l 333 -7 q 220 28 274 1 q 127 99 167 56 q 65 198 88 142 q 42 319 42 254 q 67 447 42 388 q 137 550 93 506 q 238 620 181 594 q 361 646 296 646 q 468 626 418 646 q 557 572 518 606 q 622 494 596 538 q 660 403 649 450 l 500 403 q 469 447 489 428 q 426 478 453 464 q 361 493 400 493 q 247 446 293 493 q 201 319 201 399 q 247 193 201 240 q 361 146 293 146 q 426 160 400 146 q 469 190 453 174 q 500 236 489 210 l 660 236 z "},"è":{"ha":708,"x_min":42,"x_max":667,"o":"m 42 0 m 646 194 q 608 122 633 158 q 545 58 582 86 q 462 11 508 29 q 361 -7 415 -7 q 238 19 296 -7 q 137 89 181 44 q 67 192 93 133 q 42 319 42 251 q 67 447 42 388 q 137 550 93 506 q 238 620 181 594 q 361 646 296 646 q 479 622 424 646 q 576 556 535 599 q 642 452 618 513 q 667 319 667 392 q 665 298 667 308 q 663 278 664 288 q 660 257 661 267 l 215 257 q 263 178 226 210 q 361 146 299 146 q 415 153 393 146 q 451 169 436 160 q 479 194 468 181 l 646 194 m 361 493 q 259 457 299 493 q 208 368 219 421 l 514 368 q 463 457 503 421 q 361 493 424 493 m 424 722 l 306 722 l 181 896 l 333 896 l 424 722 z "},"é":{"ha":708,"x_min":42,"x_max":667,"o":"m 42 0 m 646 194 q 608 122 633 158 q 545 58 582 86 q 462 11 508 29 q 361 -7 415 -7 q 238 19 296 -7 q 137 89 181 44 q 67 192 93 133 q 42 319 42 251 q 67 447 42 388 q 137 550 93 506 q 238 620 181 594 q 361 646 296 646 q 479 622 424 646 q 576 556 535 599 q 642 452 618 513 q 667 319 667 392 q 665 298 667 308 q 663 278 664 288 q 660 257 661 267 l 215 257 q 263 178 226 210 q 361 146 299 146 q 415 153 393 146 q 451 169 436 160 q 479 194 468 181 l 646 194 m 361 493 q 259 457 299 493 q 208 368 219 421 l 514 368 q 463 457 503 421 q 361 493 424 493 m 382 896 l 535 896 l 410 722 l 292 722 l 382 896 z "},"ê":{"ha":708,"x_min":42,"x_max":667,"o":"m 42 0 m 646 194 q 608 122 633 158 q 545 58 582 86 q 462 11 508 29 q 361 -7 415 -7 q 238 19 296 -7 q 137 89 181 44 q 67 192 93 133 q 42 319 42 251 q 67 447 42 388 q 137 550 93 506 q 238 620 181 594 q 361 646 296 646 q 479 622 424 646 q 576 556 535 599 q 642 452 618 513 q 667 319 667 392 q 665 298 667 308 q 663 278 664 288 q 660 257 661 267 l 215 257 q 263 178 226 210 q 361 146 299 146 q 415 153 393 146 q 451 169 436 160 q 479 194 468 181 l 646 194 m 361 493 q 259 457 299 493 q 208 368 219 421 l 514 368 q 463 457 503 421 q 361 493 424 493 m 563 722 l 431 722 l 361 813 l 292 722 l 160 722 l 292 896 l 431 896 l 563 722 z "},"ë":{"ha":708,"x_min":42,"x_max":667,"o":"m 42 0 m 646 194 q 608 122 633 158 q 545 58 582 86 q 462 11 508 29 q 361 -7 415 -7 q 238 19 296 -7 q 137 89 181 44 q 67 192 93 133 q 42 319 42 251 q 67 447 42 388 q 137 550 93 506 q 238 620 181 594 q 361 646 296 646 q 479 622 424 646 q 576 556 535 599 q 642 452 618 513 q 667 319 667 392 q 665 298 667 308 q 663 278 664 288 q 660 257 661 267 l 215 257 q 263 178 226 210 q 361 146 299 146 q 415 153 393 146 q 451 169 436 160 q 479 194 468 181 l 646 194 m 361 493 q 259 457 299 493 q 208 368 219 421 l 514 368 q 463 457 503 421 q 361 493 424 493 m 333 799 q 306 735 333 763 q 243 708 279 708 q 180 735 207 708 q 153 799 153 763 q 180 862 153 835 q 243 889 207 889 q 306 862 279 889 q 333 799 333 835 m 583 799 q 556 735 583 763 q 493 708 529 708 q 430 735 457 708 q 403 799 403 763 q 430 862 403 835 q 493 889 457 889 q 556 862 529 889 q 583 799 583 835 z "},"ì":{"ha":313,"x_min":-28,"x_max":236,"o":"m 0 0 m 215 715 l 97 715 l -28 889 l 125 889 l 215 715 m 236 0 l 76 0 l 76 639 l 236 639 l 236 0 z "},"í":{"ha":313,"x_min":76,"x_max":340,"o":"m 76 0 m 188 889 l 340 889 l 215 715 l 97 715 l 188 889 m 236 0 l 76 0 l 76 639 l 236 639 l 236 0 z "},"î":{"ha":313,"x_min":-49,"x_max":354,"o":"m 0 0 m 236 0 l 76 0 l 76 639 l 236 639 l 236 0 m 354 722 l 222 722 l 153 813 l 83 722 l -49 722 l 83 896 l 222 896 l 354 722 z "},"ï":{"ha":313,"x_min":-56,"x_max":375,"o":"m 0 0 m 125 799 q 98 735 125 763 q 35 708 71 708 q -28 735 -1 708 q -56 799 -56 763 q -28 862 -56 835 q 35 889 -1 889 q 98 862 71 889 q 125 799 125 835 m 375 799 q 348 735 375 763 q 285 708 321 708 q 222 735 249 708 q 194 799 194 763 q 222 862 194 835 q 285 889 249 889 q 348 862 321 889 q 375 799 375 835 m 236 0 l 76 0 l 76 639 l 236 639 l 236 0 z "},"ð":{"ha":736,"x_min":42,"x_max":688,"o":"m 521 813 q 604 696 568 763 q 662 554 636 638 q 688 361 688 471 q 663 207 688 275 q 595 91 639 139 q 492 18 551 43 q 361 -7 432 -7 q 235 17 293 -7 q 133 85 176 42 q 66 185 90 128 q 42 308 42 242 q 66 428 42 372 q 132 527 90 485 q 229 594 174 569 q 347 618 285 618 q 424 606 392 618 q 478 579 456 594 q 521 542 503 563 q 491 621 510 586 q 454 679 472 656 q 410 729 432 707 l 299 653 l 236 743 l 313 799 q 279 814 299 807 q 239 828 263 821 q 188 840 215 835 l 229 958 q 307 938 271 950 q 371 913 343 925 q 431 882 403 897 l 542 958 l 604 868 l 521 813 m 201 306 q 214 243 201 272 q 248 192 226 214 q 299 158 269 171 q 361 146 328 146 q 424 158 394 146 q 474 192 453 171 q 508 243 496 214 q 521 306 521 272 q 508 368 521 339 q 474 419 496 397 q 424 453 453 440 q 361 465 394 465 q 299 453 328 465 q 248 419 269 440 q 214 368 226 397 q 201 306 201 339 z "},"ñ":{"ha":729,"x_min":76,"x_max":660,"o":"m 76 0 m 403 646 q 507 627 460 646 q 588 573 554 608 q 641 488 622 538 q 660 375 660 438 l 660 0 l 500 0 l 500 354 q 463 455 500 417 q 368 493 426 493 q 273 455 310 493 q 236 354 236 417 l 236 0 l 76 0 l 76 639 l 194 639 l 222 576 q 274 611 246 596 q 330 635 297 624 q 403 646 363 646 m 451 715 q 397 727 419 715 q 357 753 375 739 q 325 780 339 768 q 299 792 311 792 q 260 773 278 792 q 243 722 243 754 l 160 722 q 196 853 160 811 q 285 896 232 896 q 338 884 315 896 q 379 858 361 872 q 411 831 397 843 q 438 819 425 819 q 476 838 458 819 q 493 889 493 857 l 576 889 q 540 758 576 800 q 451 715 504 715 z "},"ò":{"ha":722,"x_min":42,"x_max":681,"o":"m 42 0 m 201 319 q 247 193 201 240 q 361 146 293 146 q 475 193 429 146 q 521 319 521 240 q 475 446 521 399 q 361 493 429 493 q 247 446 293 493 q 201 319 201 399 m 681 319 q 655 192 681 251 q 585 89 629 133 q 484 19 542 44 q 361 -7 426 -7 q 238 19 296 -7 q 137 89 181 44 q 67 192 93 133 q 42 319 42 251 q 67 447 42 388 q 137 550 93 506 q 238 620 181 594 q 361 646 296 646 q 484 620 426 646 q 585 550 542 594 q 655 447 629 506 q 681 319 681 388 m 431 715 l 313 715 l 188 889 l 340 889 l 431 715 z "},"ó":{"ha":722,"x_min":42,"x_max":681,"o":"m 42 0 m 201 319 q 247 193 201 240 q 361 146 293 146 q 475 193 429 146 q 521 319 521 240 q 475 446 521 399 q 361 493 429 493 q 247 446 293 493 q 201 319 201 399 m 681 319 q 655 192 681 251 q 585 89 629 133 q 484 19 542 44 q 361 -7 426 -7 q 238 19 296 -7 q 137 89 181 44 q 67 192 93 133 q 42 319 42 251 q 67 447 42 388 q 137 550 93 506 q 238 620 181 594 q 361 646 296 646 q 484 620 426 646 q 585 550 542 594 q 655 447 629 506 q 681 319 681 388 m 396 889 l 549 889 l 424 715 l 306 715 l 396 889 z "},"ô":{"ha":722,"x_min":42,"x_max":681,"o":"m 42 0 m 201 319 q 247 193 201 240 q 361 146 293 146 q 475 193 429 146 q 521 319 521 240 q 475 446 521 399 q 361 493 429 493 q 247 446 293 493 q 201 319 201 399 m 681 319 q 655 192 681 251 q 585 89 629 133 q 484 19 542 44 q 361 -7 426 -7 q 238 19 296 -7 q 137 89 181 44 q 67 192 93 133 q 42 319 42 251 q 67 447 42 388 q 137 550 93 506 q 238 620 181 594 q 361 646 296 646 q 484 620 426 646 q 585 550 542 594 q 655 447 629 506 q 681 319 681 388 m 563 722 l 431 722 l 361 813 l 292 722 l 160 722 l 292 896 l 431 896 l 563 722 z "},"õ":{"ha":722,"x_min":42,"x_max":681,"o":"m 42 0 m 201 319 q 247 193 201 240 q 361 146 293 146 q 475 193 429 146 q 521 319 521 240 q 475 446 521 399 q 361 493 429 493 q 247 446 293 493 q 201 319 201 399 m 681 319 q 655 192 681 251 q 585 89 629 133 q 484 19 542 44 q 361 -7 426 -7 q 238 19 296 -7 q 137 89 181 44 q 67 192 93 133 q 42 319 42 251 q 67 447 42 388 q 137 550 93 506 q 238 620 181 594 q 361 646 296 646 q 484 620 426 646 q 585 550 542 594 q 655 447 629 506 q 681 319 681 388 m 444 708 q 390 720 413 708 q 350 747 368 732 q 318 773 332 761 q 292 785 304 785 q 253 766 271 785 q 236 715 236 747 l 153 715 q 189 847 153 804 q 278 889 225 889 q 331 877 308 889 q 372 851 354 865 q 404 824 390 836 q 431 813 418 813 q 469 831 451 813 q 486 882 486 850 l 569 882 q 533 751 569 793 q 444 708 497 708 z "},"ö":{"ha":722,"x_min":42,"x_max":681,"o":"m 42 0 m 201 319 q 247 193 201 240 q 361 146 293 146 q 475 193 429 146 q 521 319 521 240 q 475 446 521 399 q 361 493 429 493 q 247 446 293 493 q 201 319 201 399 m 681 319 q 655 192 681 251 q 585 89 629 133 q 484 19 542 44 q 361 -7 426 -7 q 238 19 296 -7 q 137 89 181 44 q 67 192 93 133 q 42 319 42 251 q 67 447 42 388 q 137 550 93 506 q 238 620 181 594 q 361 646 296 646 q 484 620 426 646 q 585 550 542 594 q 655 447 629 506 q 681 319 681 388 m 326 799 q 299 735 326 763 q 236 708 272 708 q 173 735 200 708 q 146 799 146 763 q 173 862 146 835 q 236 889 200 889 q 299 862 272 889 q 326 799 326 835 m 576 799 q 549 735 576 763 q 486 708 522 708 q 423 735 450 708 q 396 799 396 763 q 423 862 396 835 q 486 889 450 889 q 549 862 522 889 q 576 799 576 835 z "},"÷":{"ha":639,"x_min":49,"x_max":590,"o":"m 590 285 l 49 285 l 49 424 l 590 424 l 590 285 m 410 125 q 383 62 410 89 q 319 35 356 35 q 256 62 283 35 q 229 125 229 89 q 256 188 229 161 q 319 215 283 215 q 383 188 356 215 q 410 125 410 161 m 410 583 q 383 520 410 547 q 319 493 356 493 q 256 520 283 493 q 229 583 229 547 q 256 647 229 619 q 319 674 283 674 q 383 647 356 674 q 410 583 410 619 z "},"ø":{"ha":722,"x_min":28,"x_max":694,"o":"m 681 319 q 655 192 681 251 q 585 89 629 133 q 484 19 542 44 q 361 -7 426 -7 q 285 3 319 -7 q 225 24 250 13 q 174 56 196 38 l 111 0 l 28 90 l 90 146 q 65 196 76 168 q 49 251 56 219 q 42 319 42 283 q 67 447 42 388 q 137 550 93 506 q 238 620 181 594 q 361 646 296 646 q 437 635 403 646 q 496 614 471 625 q 549 583 525 600 l 611 639 l 694 549 l 632 493 q 656 443 644 469 q 673 388 665 419 q 681 319 681 356 m 201 319 q 202 298 201 308 q 204 281 203 288 q 208 264 206 271 l 438 472 q 418 482 429 476 q 394 490 408 486 q 361 493 379 493 q 247 446 293 493 q 201 319 201 399 m 521 319 q 519 340 521 331 q 517 357 518 349 q 514 375 515 365 l 285 167 q 304 156 293 161 q 361 146 326 146 q 475 193 429 146 q 521 319 521 240 z "},"ù":{"ha":736,"x_min":76,"x_max":660,"o":"m 76 0 m 333 -7 q 229 12 276 -7 q 148 66 182 31 q 95 151 114 101 q 76 264 76 201 l 76 639 l 236 639 l 236 285 q 273 184 236 222 q 368 146 310 146 q 463 184 426 146 q 500 285 500 222 l 500 639 l 660 639 l 660 0 l 542 0 l 514 63 q 463 28 490 43 q 406 3 439 14 q 333 -7 372 -7 m 444 722 l 326 722 l 201 896 l 354 896 l 444 722 z "},"ú":{"ha":736,"x_min":76,"x_max":660,"o":"m 76 0 m 333 -7 q 229 12 276 -7 q 148 66 182 31 q 95 151 114 101 q 76 264 76 201 l 76 639 l 236 639 l 236 285 q 273 184 236 222 q 368 146 310 146 q 463 184 426 146 q 500 285 500 222 l 500 639 l 660 639 l 660 0 l 542 0 l 514 63 q 463 28 490 43 q 406 3 439 14 q 333 -7 372 -7 m 396 896 l 549 896 l 424 722 l 306 722 l 396 896 z "},"û":{"ha":736,"x_min":76,"x_max":660,"o":"m 76 0 m 333 -7 q 229 12 276 -7 q 148 66 182 31 q 95 151 114 101 q 76 264 76 201 l 76 639 l 236 639 l 236 285 q 273 184 236 222 q 368 146 310 146 q 463 184 426 146 q 500 285 500 222 l 500 639 l 660 639 l 660 0 l 542 0 l 514 63 q 463 28 490 43 q 406 3 439 14 q 333 -7 372 -7 m 569 722 l 438 722 l 368 813 l 299 722 l 167 722 l 299 896 l 438 896 l 569 722 z "},"ü":{"ha":736,"x_min":76,"x_max":660,"o":"m 76 0 m 333 -7 q 229 12 276 -7 q 148 66 182 31 q 95 151 114 101 q 76 264 76 201 l 76 639 l 236 639 l 236 285 q 273 184 236 222 q 368 146 310 146 q 463 184 426 146 q 500 285 500 222 l 500 639 l 660 639 l 660 0 l 542 0 l 514 63 q 463 28 490 43 q 406 3 439 14 q 333 -7 372 -7 m 340 799 q 313 735 340 763 q 250 708 286 708 q 187 735 214 708 q 160 799 160 763 q 187 862 160 835 q 250 889 214 889 q 313 862 286 889 q 340 799 340 835 m 590 799 q 563 735 590 763 q 500 708 536 708 q 437 735 464 708 q 410 799 410 763 q 437 862 410 835 q 500 889 464 889 q 563 862 536 889 q 590 799 590 835 z "},"ý":{"ha":653,"x_min":7,"x_max":646,"o":"m 7 0 m 7 639 l 174 639 l 333 222 l 479 639 l 646 639 q 522 322 578 464 q 476 203 499 261 q 435 97 453 144 q 404 17 417 49 q 389 -21 392 -15 q 342 -117 365 -78 q 293 -182 319 -157 q 236 -218 267 -207 q 167 -229 206 -229 q 145 -228 156 -229 q 128 -226 135 -228 q 111 -222 118 -225 l 111 -90 q 192 -67 164 -90 q 236 -7 221 -43 l 250 28 l 7 639 m 361 896 l 514 896 l 389 722 l 271 722 l 361 896 z "},"þ":{"ha":743,"x_min":76,"x_max":701,"o":"m 403 646 q 517 622 463 646 q 612 553 571 597 q 677 450 653 510 q 701 319 701 390 q 677 189 701 249 q 612 85 653 129 q 517 17 571 42 q 403 -7 463 -7 q 333 3 363 -7 q 281 24 303 13 q 236 56 256 38 l 236 -222 l 76 -222 l 76 861 l 236 861 l 236 583 q 281 614 256 600 q 333 635 303 625 q 403 646 363 646 m 222 319 q 268 193 222 240 q 382 146 314 146 q 496 193 450 146 q 542 319 542 240 q 496 446 542 399 q 382 493 450 493 q 268 446 314 493 q 222 319 222 399 z "},"ÿ":{"ha":653,"x_min":7,"x_max":646,"o":"m 7 0 m 7 639 l 174 639 l 333 222 l 479 639 l 646 639 q 522 322 578 464 q 476 203 499 261 q 435 97 453 144 q 404 17 417 49 q 389 -21 392 -15 q 342 -117 365 -78 q 293 -182 319 -157 q 236 -218 267 -207 q 167 -229 206 -229 q 145 -228 156 -229 q 128 -226 135 -228 q 111 -222 118 -225 l 111 -90 q 192 -67 164 -90 q 236 -7 221 -43 l 250 28 l 7 639 m 299 799 q 272 735 299 763 q 208 708 244 708 q 145 735 172 708 q 118 799 118 763 q 145 862 118 835 q 208 889 172 889 q 272 862 244 889 q 299 799 299 835 m 549 799 q 522 735 549 763 q 458 708 494 708 q 395 735 422 708 q 368 799 368 763 q 395 862 368 835 q 458 889 422 889 q 522 862 494 889 q 549 799 549 835 z "},"Ā":{"ha":792,"x_min":-7,"x_max":799,"o":"m 0 0 m 167 0 l -7 0 l 319 875 l 472 875 l 799 0 l 625 0 l 563 181 l 229 181 l 167 0 m 507 333 l 396 653 l 285 333 l 507 333 m 576 979 l 215 979 l 215 1097 l 576 1097 l 576 979 z "},"ā":{"ha":660,"x_min":49,"x_max":590,"o":"m 49 0 m 340 646 q 440 627 394 646 q 519 575 486 608 q 572 496 553 542 q 590 396 590 450 l 590 0 l 472 0 l 444 63 q 396 28 422 43 q 339 3 372 14 q 264 -7 306 -7 q 104 44 160 -7 q 49 174 49 94 q 67 260 49 221 q 131 328 86 300 q 248 373 175 357 q 431 389 321 389 q 402 471 431 442 q 326 500 374 500 q 276 489 294 500 q 246 465 257 478 q 229 431 233 450 l 69 431 q 95 514 75 475 q 150 582 115 553 q 233 628 185 611 q 340 646 281 646 m 292 118 q 392 155 354 118 q 431 250 431 192 l 431 278 q 317 272 360 278 q 249 253 274 265 q 217 225 225 242 q 208 188 208 208 q 232 140 208 161 q 292 118 256 118 m 521 736 l 160 736 l 160 854 l 521 854 l 521 736 z "},"Ă":{"ha":792,"x_min":-7,"x_max":799,"o":"m 0 0 m 167 0 l -7 0 l 319 875 l 472 875 l 799 0 l 625 0 l 563 181 l 229 181 l 167 0 m 507 333 l 396 653 l 285 333 l 507 333 m 396 1063 q 434 1073 419 1063 q 457 1097 449 1083 q 472 1132 467 1113 l 590 1132 q 569 1064 585 1096 q 527 1008 553 1032 q 468 972 501 985 q 396 958 435 958 q 324 972 357 958 q 265 1008 290 985 q 223 1064 239 1032 q 201 1132 207 1096 l 319 1132 q 335 1097 325 1113 q 358 1073 343 1083 q 396 1063 372 1063 z "},"ă":{"ha":660,"x_min":49,"x_max":590,"o":"m 49 0 m 340 646 q 440 627 394 646 q 519 575 486 608 q 572 496 553 542 q 590 396 590 450 l 590 0 l 472 0 l 444 63 q 396 28 422 43 q 339 3 372 14 q 264 -7 306 -7 q 104 44 160 -7 q 49 174 49 94 q 67 260 49 221 q 131 328 86 300 q 248 373 175 357 q 431 389 321 389 q 402 471 431 442 q 326 500 374 500 q 276 489 294 500 q 246 465 257 478 q 229 431 233 450 l 69 431 q 95 514 75 475 q 150 582 115 553 q 233 628 185 611 q 340 646 281 646 m 292 118 q 392 155 354 118 q 431 250 431 192 l 431 278 q 317 272 360 278 q 249 253 274 265 q 217 225 225 242 q 208 188 208 208 q 232 140 208 161 q 292 118 256 118 m 347 813 q 385 823 371 813 q 408 847 400 833 q 424 882 418 863 l 542 882 q 520 814 536 846 q 478 758 504 782 q 419 722 453 735 q 347 708 386 708 q 275 722 308 708 q 216 758 242 735 q 174 814 190 782 q 153 882 158 846 l 271 882 q 286 847 276 863 q 309 823 294 833 q 347 813 324 813 z "},"Ą":{"ha":792,"x_min":-7,"x_max":799,"o":"m 563 181 l 229 181 l 167 0 l -7 0 l 319 875 l 472 875 l 799 0 l 715 0 q 690 -37 701 -18 q 674 -74 681 -54 q 667 -111 667 -93 q 685 -156 667 -137 q 736 -174 704 -174 q 756 -173 747 -174 q 774 -171 765 -172 q 792 -167 782 -169 l 792 -246 q 767 -251 781 -249 q 740 -256 756 -254 q 708 -257 725 -257 q 601 -221 640 -257 q 563 -132 563 -185 q 572 -83 563 -106 q 593 -40 582 -60 q 625 0 607 -19 l 563 181 m 507 333 l 396 653 l 285 333 l 507 333 z "},"ą":{"ha":660,"x_min":49,"x_max":639,"o":"m 444 63 q 396 28 422 43 q 339 3 372 14 q 264 -7 306 -7 q 104 44 160 -7 q 49 174 49 94 q 67 260 49 221 q 131 328 86 300 q 248 373 175 357 q 431 389 321 389 q 402 471 431 442 q 326 500 374 500 q 276 489 294 500 q 246 465 257 478 q 229 431 233 450 l 69 431 q 95 514 75 475 q 150 582 115 553 q 233 628 185 611 q 340 646 281 646 q 440 627 394 646 q 519 575 486 608 q 572 496 553 542 q 590 396 590 450 l 590 0 l 563 0 q 538 -37 549 -18 q 521 -74 528 -54 q 514 -111 514 -93 q 533 -156 514 -137 q 583 -174 551 -174 q 603 -173 594 -174 q 621 -171 613 -172 q 639 -167 629 -169 l 639 -246 q 614 -251 628 -249 q 588 -256 603 -254 q 556 -257 572 -257 q 449 -221 488 -257 q 410 -132 410 -185 q 419 -83 410 -106 q 440 -40 429 -60 q 472 0 454 -19 l 444 63 m 292 118 q 392 155 354 118 q 431 250 431 192 l 431 278 q 317 272 360 278 q 249 253 274 265 q 217 225 225 242 q 208 188 208 208 q 232 140 208 161 q 292 118 256 118 z "},"Ć":{"ha":896,"x_min":42,"x_max":861,"o":"m 42 0 m 208 438 q 229 323 208 375 q 285 233 250 271 q 366 174 319 194 q 465 153 413 153 q 546 166 510 153 q 610 201 582 179 q 658 249 639 222 q 688 306 676 276 l 861 306 q 811 186 846 243 q 726 87 776 129 q 609 19 675 44 q 465 -7 543 -7 q 302 27 379 -7 q 167 122 225 61 q 76 263 110 182 q 42 438 42 343 q 76 612 42 531 q 167 753 110 693 q 302 848 225 814 q 465 882 379 882 q 605 856 540 882 q 719 788 669 831 q 804 689 769 746 q 854 569 839 632 l 681 569 q 654 626 672 599 q 609 674 636 653 q 546 709 582 696 q 465 722 510 722 q 366 701 413 722 q 285 642 319 681 q 229 552 250 604 q 208 438 208 500 m 500 1146 l 653 1146 l 528 972 l 410 972 l 500 1146 z "},"ć":{"ha":694,"x_min":42,"x_max":660,"o":"m 42 0 m 660 236 q 622 145 649 189 q 557 67 596 101 q 468 13 518 33 q 361 -7 418 -7 q 238 19 296 -7 q 137 89 181 44 q 67 192 93 133 q 42 319 42 251 q 67 447 42 388 q 137 550 93 506 q 238 620 181 594 q 361 646 296 646 q 468 626 418 646 q 557 572 518 606 q 622 494 596 538 q 660 403 649 450 l 500 403 q 469 447 489 428 q 426 478 453 464 q 361 493 400 493 q 247 446 293 493 q 201 319 201 399 q 247 193 201 240 q 361 146 293 146 q 426 160 400 146 q 469 190 453 174 q 500 236 489 210 l 660 236 m 389 896 l 542 896 l 417 722 l 299 722 l 389 896 z "},"Ĉ":{"ha":896,"x_min":42,"x_max":861,"o":"m 42 0 m 208 438 q 229 323 208 375 q 285 233 250 271 q 366 174 319 194 q 465 153 413 153 q 546 166 510 153 q 610 201 582 179 q 658 249 639 222 q 688 306 676 276 l 861 306 q 811 186 846 243 q 726 87 776 129 q 609 19 675 44 q 465 -7 543 -7 q 302 27 379 -7 q 167 122 225 61 q 76 263 110 182 q 42 438 42 343 q 76 612 42 531 q 167 753 110 693 q 302 848 225 814 q 465 882 379 882 q 605 856 540 882 q 719 788 669 831 q 804 689 769 746 q 854 569 839 632 l 681 569 q 654 626 672 599 q 609 674 636 653 q 546 709 582 696 q 465 722 510 722 q 366 701 413 722 q 285 642 319 681 q 229 552 250 604 q 208 438 208 500 m 681 972 l 549 972 l 479 1063 l 410 972 l 278 972 l 410 1146 l 549 1146 l 681 972 z "},"ĉ":{"ha":694,"x_min":42,"x_max":660,"o":"m 42 0 m 660 236 q 622 145 649 189 q 557 67 596 101 q 468 13 518 33 q 361 -7 418 -7 q 238 19 296 -7 q 137 89 181 44 q 67 192 93 133 q 42 319 42 251 q 67 447 42 388 q 137 550 93 506 q 238 620 181 594 q 361 646 296 646 q 468 626 418 646 q 557 572 518 606 q 622 494 596 538 q 660 403 649 450 l 500 403 q 469 447 489 428 q 426 478 453 464 q 361 493 400 493 q 247 446 293 493 q 201 319 201 399 q 247 193 201 240 q 361 146 293 146 q 426 160 400 146 q 469 190 453 174 q 500 236 489 210 l 660 236 m 563 722 l 431 722 l 361 813 l 292 722 l 160 722 l 292 896 l 431 896 l 563 722 z "},"Č":{"ha":896,"x_min":42,"x_max":861,"o":"m 42 0 m 208 438 q 229 323 208 375 q 285 233 250 271 q 366 174 319 194 q 465 153 413 153 q 546 166 510 153 q 610 201 582 179 q 658 249 639 222 q 688 306 676 276 l 861 306 q 811 186 846 243 q 726 87 776 129 q 609 19 675 44 q 465 -7 543 -7 q 302 27 379 -7 q 167 122 225 61 q 76 263 110 182 q 42 438 42 343 q 76 612 42 531 q 167 753 110 693 q 302 848 225 814 q 465 882 379 882 q 605 856 540 882 q 719 788 669 831 q 804 689 769 746 q 854 569 839 632 l 681 569 q 654 626 672 599 q 609 674 636 653 q 546 709 582 696 q 465 722 510 722 q 366 701 413 722 q 285 642 319 681 q 229 552 250 604 q 208 438 208 500 m 542 972 l 403 972 l 271 1146 l 403 1146 l 472 1056 l 542 1146 l 674 1146 l 542 972 z "},"č":{"ha":694,"x_min":42,"x_max":660,"o":"m 42 0 m 660 236 q 622 145 649 189 q 557 67 596 101 q 468 13 518 33 q 361 -7 418 -7 q 238 19 296 -7 q 137 89 181 44 q 67 192 93 133 q 42 319 42 251 q 67 447 42 388 q 137 550 93 506 q 238 620 181 594 q 361 646 296 646 q 468 626 418 646 q 557 572 518 606 q 622 494 596 538 q 660 403 649 450 l 500 403 q 469 447 489 428 q 426 478 453 464 q 361 493 400 493 q 247 446 293 493 q 201 319 201 399 q 247 193 201 240 q 361 146 293 146 q 426 160 400 146 q 469 190 453 174 q 500 236 489 210 l 660 236 m 438 722 l 299 722 l 167 896 l 299 896 l 368 806 l 438 896 l 569 896 l 438 722 z "},"Ď":{"ha":840,"x_min":90,"x_max":799,"o":"m 90 0 m 368 160 q 467 182 419 160 q 552 242 515 204 q 610 330 589 279 q 632 438 632 381 q 610 545 632 494 q 552 633 589 596 q 467 693 515 671 q 368 715 419 715 l 257 715 l 257 160 l 368 160 m 90 0 l 90 875 l 368 875 q 532 840 454 875 q 669 744 610 804 q 764 606 729 685 q 799 438 799 526 q 764 269 799 349 q 669 131 729 190 q 532 35 610 71 q 368 0 454 0 l 90 0 m 486 972 l 347 972 l 215 1146 l 347 1146 l 417 1056 l 486 1146 l 618 1146 l 486 972 z "},"ď":{"ha":854,"x_min":42,"x_max":917,"o":"m 778 875 l 917 875 l 833 701 l 729 701 l 778 875 m 340 -7 q 226 17 281 -7 q 131 85 172 42 q 66 189 90 129 q 42 319 42 249 q 66 450 42 390 q 131 553 90 510 q 226 622 172 597 q 340 646 281 646 q 410 635 379 646 q 463 614 440 625 q 507 583 488 600 l 507 875 l 667 875 l 667 0 l 549 0 l 521 63 q 472 28 499 43 q 415 3 449 14 q 340 -7 382 -7 m 521 319 q 475 446 521 399 q 361 493 429 493 q 247 446 293 493 q 201 319 201 399 q 247 193 201 240 q 361 146 293 146 q 475 193 429 146 q 521 319 521 240 z "},"Đ":{"ha":875,"x_min":14,"x_max":833,"o":"m 14 500 l 125 500 l 125 875 l 403 875 q 567 840 489 875 q 704 744 644 804 q 799 606 764 685 q 833 438 833 526 q 799 269 833 349 q 704 131 764 190 q 567 35 644 71 q 403 0 489 0 l 125 0 l 125 361 l 14 361 l 14 500 m 403 160 q 502 182 454 160 q 587 242 550 204 q 645 330 624 279 q 667 438 667 381 q 645 545 667 494 q 587 633 624 596 q 502 693 550 671 q 403 715 454 715 l 292 715 l 292 500 l 444 500 l 444 361 l 292 361 l 292 160 l 403 160 z "},"đ":{"ha":750,"x_min":42,"x_max":743,"o":"m 743 646 l 646 646 l 646 0 l 528 0 l 500 63 q 453 28 478 43 q 400 3 431 14 q 333 -7 369 -7 q 220 16 274 -7 q 127 80 167 39 q 65 175 88 121 q 42 292 42 229 q 65 408 42 354 q 127 503 88 463 q 220 567 167 544 q 333 590 274 590 q 395 580 367 590 q 443 558 424 569 q 486 528 467 544 l 486 646 l 326 646 l 326 778 l 486 778 l 486 875 l 646 875 l 646 778 l 743 778 l 743 646 m 201 292 q 243 188 201 229 q 347 146 285 146 q 451 188 410 146 q 493 292 493 229 q 451 396 493 354 q 347 438 410 438 q 243 396 285 438 q 201 292 201 354 z "},"Ē":{"ha":757,"x_min":90,"x_max":708,"o":"m 90 0 m 708 160 l 708 0 l 90 0 l 90 875 l 694 875 l 694 715 l 257 715 l 257 528 l 660 528 l 660 368 l 257 368 l 257 160 l 708 160 m 583 986 l 222 986 l 222 1104 l 583 1104 l 583 986 z "},"ē":{"ha":708,"x_min":42,"x_max":667,"o":"m 42 0 m 646 194 q 608 122 633 158 q 545 58 582 86 q 462 11 508 29 q 361 -7 415 -7 q 238 19 296 -7 q 137 89 181 44 q 67 192 93 133 q 42 319 42 251 q 67 447 42 388 q 137 550 93 506 q 238 620 181 594 q 361 646 296 646 q 479 622 424 646 q 576 556 535 599 q 642 452 618 513 q 667 319 667 392 q 665 298 667 308 q 663 278 664 288 q 660 257 661 267 l 215 257 q 263 178 226 210 q 361 146 299 146 q 415 153 393 146 q 451 169 436 160 q 479 194 468 181 l 646 194 m 361 493 q 259 457 299 493 q 208 368 219 421 l 514 368 q 463 457 503 421 q 361 493 424 493 m 542 736 l 181 736 l 181 854 l 542 854 l 542 736 z "},"Ė":{"ha":757,"x_min":90,"x_max":708,"o":"m 90 0 m 708 160 l 708 0 l 90 0 l 90 875 l 694 875 l 694 715 l 257 715 l 257 528 l 660 528 l 660 368 l 257 368 l 257 160 l 708 160 m 493 1056 q 466 992 493 1019 q 403 965 439 965 q 340 992 367 965 q 313 1056 313 1019 q 340 1119 313 1092 q 403 1146 367 1146 q 466 1119 439 1146 q 493 1056 493 1092 z "},"ė":{"ha":708,"x_min":42,"x_max":667,"o":"m 42 0 m 646 194 q 608 122 633 158 q 545 58 582 86 q 462 11 508 29 q 361 -7 415 -7 q 238 19 296 -7 q 137 89 181 44 q 67 192 93 133 q 42 319 42 251 q 67 447 42 388 q 137 550 93 506 q 238 620 181 594 q 361 646 296 646 q 479 622 424 646 q 576 556 535 599 q 642 452 618 513 q 667 319 667 392 q 665 298 667 308 q 663 278 664 288 q 660 257 661 267 l 215 257 q 263 178 226 210 q 361 146 299 146 q 415 153 393 146 q 451 169 436 160 q 479 194 468 181 l 646 194 m 361 493 q 259 457 299 493 q 208 368 219 421 l 514 368 q 463 457 503 421 q 361 493 424 493 m 458 813 q 431 749 458 776 q 368 722 404 722 q 305 749 332 722 q 278 813 278 776 q 305 876 278 849 q 368 903 332 903 q 431 876 404 903 q 458 813 458 849 z "},"Ę":{"ha":757,"x_min":90,"x_max":785,"o":"m 90 0 l 90 875 l 694 875 l 694 715 l 257 715 l 257 528 l 660 528 l 660 368 l 257 368 l 257 160 l 708 160 l 708 0 q 683 -37 694 -18 q 667 -74 674 -54 q 660 -111 660 -93 q 678 -156 660 -137 q 729 -174 697 -174 q 749 -173 740 -174 q 767 -171 758 -172 q 785 -167 775 -169 l 785 -246 q 760 -251 774 -249 q 733 -256 749 -254 q 701 -257 718 -257 q 594 -221 633 -257 q 556 -132 556 -185 q 565 -83 556 -106 q 586 -40 575 -60 q 618 0 600 -19 l 90 0 z "},"ę":{"ha":708,"x_min":42,"x_max":667,"o":"m 646 194 q 610 124 633 158 q 558 63 588 90 q 492 19 528 36 q 417 0 456 3 q 392 -35 403 -17 q 375 -70 382 -50 q 368 -111 368 -90 q 387 -156 368 -137 q 438 -174 406 -174 q 458 -173 449 -174 q 475 -171 467 -172 q 493 -167 483 -169 l 493 -246 q 468 -251 482 -249 q 442 -256 457 -254 q 410 -257 426 -257 q 303 -221 342 -257 q 264 -132 264 -185 q 272 -86 264 -108 q 292 -46 281 -64 q 319 -7 304 -25 q 212 28 263 1 q 124 97 161 54 q 64 195 86 139 q 42 319 42 251 q 67 447 42 388 q 137 550 93 506 q 238 620 181 594 q 361 646 296 646 q 479 622 424 646 q 576 556 535 599 q 642 452 618 513 q 667 319 667 392 q 665 298 667 308 q 663 278 664 288 q 660 257 661 267 l 215 257 q 263 178 226 210 q 361 146 299 146 q 415 153 393 146 q 451 169 436 160 q 479 194 468 181 l 646 194 m 361 493 q 259 457 299 493 q 208 368 219 421 l 514 368 q 463 457 503 421 q 361 493 424 493 z "},"Ě":{"ha":757,"x_min":90,"x_max":708,"o":"m 90 0 m 708 160 l 708 0 l 90 0 l 90 875 l 694 875 l 694 715 l 257 715 l 257 528 l 660 528 l 660 368 l 257 368 l 257 160 l 708 160 m 472 972 l 333 972 l 201 1146 l 333 1146 l 403 1056 l 472 1146 l 604 1146 l 472 972 z "},"ě":{"ha":708,"x_min":42,"x_max":667,"o":"m 42 0 m 646 194 q 608 122 633 158 q 545 58 582 86 q 462 11 508 29 q 361 -7 415 -7 q 238 19 296 -7 q 137 89 181 44 q 67 192 93 133 q 42 319 42 251 q 67 447 42 388 q 137 550 93 506 q 238 620 181 594 q 361 646 296 646 q 479 622 424 646 q 576 556 535 599 q 642 452 618 513 q 667 319 667 392 q 665 298 667 308 q 663 278 664 288 q 660 257 661 267 l 215 257 q 263 178 226 210 q 361 146 299 146 q 415 153 393 146 q 451 169 436 160 q 479 194 468 181 l 646 194 m 361 493 q 259 457 299 493 q 208 368 219 421 l 514 368 q 463 457 503 421 q 361 493 424 493 m 424 722 l 285 722 l 153 896 l 285 896 l 354 806 l 424 896 l 556 896 l 424 722 z "},"Ğ":{"ha":944,"x_min":42,"x_max":868,"o":"m 42 0 m 208 438 q 229 323 208 375 q 285 233 250 271 q 366 174 319 194 q 465 153 413 153 q 574 177 531 153 q 642 232 617 201 q 688 313 671 268 l 458 313 l 458 458 l 868 458 l 868 0 l 750 0 l 715 83 q 647 38 685 57 q 569 7 615 21 q 465 -7 524 -7 q 302 27 379 -7 q 167 122 225 61 q 76 263 110 182 q 42 438 42 343 q 76 612 42 531 q 167 753 110 693 q 302 848 225 814 q 465 882 379 882 q 605 856 540 882 q 719 788 669 831 q 804 689 769 746 q 854 569 839 632 l 681 569 q 654 626 672 599 q 609 674 636 653 q 546 709 582 696 q 465 722 510 722 q 366 701 413 722 q 285 642 319 681 q 229 552 250 604 q 208 438 208 500 m 479 1063 q 517 1073 503 1063 q 540 1097 532 1083 q 556 1132 550 1113 l 674 1132 q 652 1064 668 1096 q 610 1008 636 1032 q 551 972 585 985 q 479 958 518 958 q 407 972 440 958 q 348 1008 374 985 q 306 1064 322 1032 q 285 1132 290 1096 l 403 1132 q 418 1097 408 1113 q 441 1073 426 1083 q 479 1063 456 1063 z "},"ğ":{"ha":736,"x_min":42,"x_max":660,"o":"m 42 0 m 333 646 q 408 635 375 646 q 465 611 442 624 q 514 576 492 596 l 542 639 l 660 639 l 660 42 q 580 -160 660 -83 q 354 -236 500 -236 q 210 -204 265 -236 q 124 -132 156 -172 q 69 -28 88 -86 l 229 -28 q 256 -60 239 -46 q 294 -81 271 -71 q 354 -90 318 -90 q 461 -53 422 -90 q 500 42 500 -17 l 500 90 q 456 56 481 71 q 403 31 433 42 q 333 21 372 21 q 220 44 274 21 q 127 110 167 68 q 65 208 88 151 q 42 333 42 265 q 65 458 42 401 q 127 557 88 515 q 220 622 167 599 q 333 646 274 646 m 201 333 q 213 271 201 300 q 246 220 225 242 q 294 186 267 199 q 354 174 322 174 q 413 186 385 174 q 461 220 440 199 q 494 271 482 242 q 507 333 507 300 q 494 396 507 367 q 461 447 482 425 q 413 481 440 468 q 354 493 385 493 q 294 481 322 493 q 246 447 267 468 q 213 396 225 425 q 201 333 201 367 m 361 813 q 399 823 385 813 q 422 847 414 833 q 438 882 432 863 l 556 882 q 534 814 550 846 q 492 758 518 782 q 433 722 467 735 q 361 708 400 708 q 289 722 322 708 q 230 758 256 735 q 188 814 204 782 q 167 882 172 846 l 285 882 q 300 847 290 863 q 323 823 308 833 q 361 813 338 813 z "},"Ģ":{"ha":944,"x_min":42,"x_max":868,"o":"m 42 0 m 208 438 q 229 323 208 375 q 285 233 250 271 q 366 174 319 194 q 465 153 413 153 q 574 177 531 153 q 642 232 617 201 q 688 313 671 268 l 458 313 l 458 458 l 868 458 l 868 0 l 750 0 l 715 83 q 647 38 685 57 q 569 7 615 21 q 465 -7 524 -7 q 302 27 379 -7 q 167 122 225 61 q 76 263 110 182 q 42 438 42 343 q 76 612 42 531 q 167 753 110 693 q 302 848 225 814 q 465 882 379 882 q 605 856 540 882 q 719 788 669 831 q 804 689 769 746 q 854 569 839 632 l 681 569 q 654 626 672 599 q 609 674 636 653 q 546 709 582 696 q 465 722 510 722 q 366 701 413 722 q 285 642 319 681 q 229 552 250 604 q 208 438 208 500 m 465 -76 q 528 -104 501 -76 q 556 -174 556 -132 q 535 -261 556 -224 q 489 -324 514 -299 q 424 -375 460 -353 l 396 -340 q 428 -314 413 -329 q 451 -285 440 -301 q 465 -250 463 -269 q 399 -226 424 -250 q 375 -167 375 -203 q 402 -103 375 -131 q 465 -76 429 -76 z "},"ģ":{"ha":736,"x_min":42,"x_max":660,"o":"m 368 708 q 305 736 332 708 q 278 806 278 764 q 298 892 278 854 q 343 956 318 931 q 410 1007 372 985 l 438 972 q 406 946 421 961 q 382 917 393 933 q 368 882 371 900 q 434 858 410 882 q 458 799 458 835 q 431 735 458 763 q 368 708 404 708 m 333 646 q 408 635 375 646 q 465 611 442 624 q 514 576 492 596 l 542 639 l 660 639 l 660 42 q 580 -160 660 -83 q 354 -236 500 -236 q 210 -204 265 -236 q 124 -132 156 -172 q 69 -28 88 -86 l 229 -28 q 256 -60 239 -46 q 294 -81 271 -71 q 354 -90 318 -90 q 461 -53 422 -90 q 500 42 500 -17 l 500 90 q 456 56 481 71 q 403 31 433 42 q 333 21 372 21 q 220 44 274 21 q 127 110 167 68 q 65 208 88 151 q 42 333 42 265 q 65 458 42 401 q 127 557 88 515 q 220 622 167 599 q 333 646 274 646 m 201 333 q 213 271 201 300 q 246 220 225 242 q 294 186 267 199 q 354 174 322 174 q 413 186 385 174 q 461 220 440 199 q 494 271 482 242 q 507 333 507 300 q 494 396 507 367 q 461 447 482 425 q 413 481 440 468 q 354 493 385 493 q 294 481 322 493 q 246 447 267 468 q 213 396 225 425 q 201 333 201 367 z "},"Ī":{"ha":347,"x_min":-7,"x_max":354,"o":"m 0 0 m 257 0 l 90 0 l 90 875 l 257 875 l 257 0 m 354 979 l -7 979 l -7 1097 l 354 1097 l 354 979 z "},"ī":{"ha":313,"x_min":-28,"x_max":333,"o":"m 0 0 m 333 736 l -28 736 l -28 854 l 333 854 l 333 736 m 236 0 l 76 0 l 76 639 l 236 639 l 236 0 z "},"Į":{"ha":347,"x_min":28,"x_max":257,"o":"m 90 875 l 257 875 l 257 0 l 181 0 q 156 -37 167 -18 q 139 -74 146 -54 q 132 -111 132 -93 q 151 -156 132 -137 q 201 -174 169 -174 q 222 -173 213 -174 q 239 -171 231 -172 q 257 -167 247 -169 l 257 -246 q 232 -251 246 -249 q 206 -256 221 -254 q 174 -257 190 -257 q 67 -221 106 -257 q 28 -132 28 -185 q 38 -83 28 -106 q 58 -40 47 -60 q 90 0 72 -19 l 90 875 z "},"į":{"ha":313,"x_min":14,"x_max":250,"o":"m 76 639 l 236 639 l 236 0 l 167 0 q 142 -37 153 -18 q 125 -74 132 -54 q 118 -111 118 -93 q 137 -156 118 -137 q 188 -174 156 -174 q 208 -173 199 -174 q 225 -171 217 -172 q 243 -167 233 -169 l 243 -246 q 218 -251 232 -249 q 192 -256 207 -254 q 160 -257 176 -257 q 53 -221 92 -257 q 14 -132 14 -185 q 24 -83 14 -106 q 44 -40 33 -60 q 76 0 58 -19 l 76 639 m 160 715 q 97 742 124 715 q 69 806 69 769 q 97 869 69 842 q 160 896 124 896 q 223 869 196 896 q 250 806 250 842 q 223 742 250 769 q 160 715 196 715 z "},"İ":{"ha":347,"x_min":83,"x_max":264,"o":"m 83 0 m 257 0 l 90 0 l 90 875 l 257 875 l 257 0 m 264 1049 q 237 985 264 1013 q 174 958 210 958 q 110 985 138 958 q 83 1049 83 1013 q 110 1112 83 1085 q 174 1139 138 1139 q 237 1112 210 1139 q 264 1049 264 1085 z "},"ı":{"ha":313,"x_min":76,"x_max":236,"o":"m 236 0 l 76 0 l 76 639 l 236 639 l 236 0 z "},"ĳ":{"ha":639,"x_min":69,"x_max":576,"o":"m 76 639 l 236 639 l 236 250 q 260 184 236 208 q 326 160 285 160 q 383 169 361 160 q 403 181 394 175 l 403 639 l 563 639 l 563 0 q 547 -94 563 -53 q 502 -167 531 -136 q 434 -213 474 -197 q 347 -229 394 -229 q 293 -222 317 -229 q 271 -215 281 -219 l 271 -76 q 281 -81 275 -79 q 313 -83 294 -83 q 378 -59 354 -83 q 403 7 403 -35 l 403 42 q 378 28 393 33 q 344 18 364 22 q 292 14 324 14 q 205 30 244 14 q 137 76 165 46 q 92 149 108 107 q 76 243 76 190 l 76 639 m 486 722 q 423 749 450 722 q 396 813 396 776 q 423 876 396 849 q 486 903 450 903 q 549 876 522 903 q 576 813 576 849 q 549 749 576 776 q 486 722 522 722 m 160 722 q 97 749 124 722 q 69 813 69 776 q 97 876 69 849 q 160 903 124 903 q 223 876 196 903 q 250 813 250 849 q 223 749 250 776 q 160 722 196 722 z "},"Ķ":{"ha":750,"x_min":90,"x_max":764,"o":"m 90 0 m 569 0 l 257 396 l 257 0 l 90 0 l 90 875 l 257 875 l 257 486 l 549 875 l 743 875 l 417 444 l 764 0 l 569 0 m 403 -76 q 466 -104 439 -76 q 493 -174 493 -132 q 472 -261 493 -224 q 426 -324 451 -299 q 361 -375 397 -353 l 333 -340 q 365 -314 350 -329 q 389 -285 378 -301 q 403 -250 400 -269 q 337 -226 361 -250 q 313 -167 313 -203 q 340 -103 313 -131 q 403 -76 367 -76 z "},"ķ":{"ha":625,"x_min":76,"x_max":639,"o":"m 76 0 m 458 0 l 236 292 l 236 0 l 76 0 l 76 875 l 236 875 l 236 375 l 431 639 l 611 639 l 382 333 l 639 0 l 458 0 m 333 -76 q 397 -104 369 -76 q 424 -174 424 -132 q 403 -261 424 -224 q 357 -324 382 -299 q 292 -375 328 -353 l 264 -340 q 296 -314 281 -329 q 319 -285 308 -301 q 333 -250 331 -269 q 267 -226 292 -250 q 243 -167 243 -203 q 270 -103 243 -131 q 333 -76 297 -76 z "},"Ĺ":{"ha":688,"x_min":90,"x_max":667,"o":"m 90 0 m 667 160 l 667 0 l 90 0 l 90 875 l 257 875 l 257 160 l 667 160 m 201 1146 l 354 1146 l 229 972 l 111 972 l 201 1146 z "},"ĺ":{"ha":313,"x_min":76,"x_max":340,"o":"m 76 0 m 236 0 l 76 0 l 76 875 l 236 875 l 236 0 m 188 1146 l 340 1146 l 215 972 l 97 972 l 188 1146 z "},"Ļ":{"ha":688,"x_min":90,"x_max":667,"o":"m 90 0 m 667 160 l 667 0 l 90 0 l 90 875 l 257 875 l 257 160 l 667 160 m 396 -76 q 459 -104 432 -76 q 486 -174 486 -132 q 465 -261 486 -224 q 419 -324 444 -299 q 354 -375 390 -353 l 326 -340 q 358 -314 343 -329 q 382 -285 371 -301 q 396 -250 393 -269 q 330 -226 354 -250 q 306 -167 306 -203 q 333 -103 306 -131 q 396 -76 360 -76 z "},"ļ":{"ha":313,"x_min":63,"x_max":243,"o":"m 63 0 m 236 0 l 76 0 l 76 875 l 236 875 l 236 0 m 153 -76 q 216 -104 189 -76 q 243 -174 243 -132 q 222 -261 243 -224 q 176 -324 201 -299 q 111 -375 147 -353 l 83 -340 q 115 -314 100 -329 q 139 -285 128 -301 q 153 -250 150 -269 q 87 -226 111 -250 q 63 -167 63 -203 q 90 -103 63 -131 q 153 -76 117 -76 z "},"Ľ":{"ha":688,"x_min":90,"x_max":667,"o":"m 368 875 l 507 875 l 424 701 l 319 701 l 368 875 m 667 160 l 667 0 l 90 0 l 90 875 l 257 875 l 257 160 l 667 160 z "},"ľ":{"ha":417,"x_min":76,"x_max":486,"o":"m 347 875 l 486 875 l 403 701 l 299 701 l 347 875 m 236 0 l 76 0 l 76 875 l 236 875 l 236 0 z "},"Ł":{"ha":708,"x_min":14,"x_max":688,"o":"m 688 160 l 688 0 l 111 0 l 111 243 l 14 181 l 14 333 l 111 396 l 111 875 l 278 875 l 278 507 l 472 632 l 472 479 l 278 354 l 278 160 l 688 160 z "},"ł":{"ha":396,"x_min":14,"x_max":382,"o":"m 278 576 l 382 646 l 382 493 l 278 424 l 278 0 l 118 0 l 118 319 l 14 250 l 14 403 l 118 472 l 118 875 l 278 875 l 278 576 z "},"Ń":{"ha":882,"x_min":90,"x_max":792,"o":"m 90 0 m 792 875 l 792 0 l 646 0 l 257 569 l 257 0 l 90 0 l 90 875 l 236 875 l 625 306 l 625 875 l 792 875 m 465 1146 l 618 1146 l 493 972 l 375 972 l 465 1146 z "},"ń":{"ha":729,"x_min":76,"x_max":660,"o":"m 76 0 m 403 646 q 507 627 460 646 q 588 573 554 608 q 641 488 622 538 q 660 375 660 438 l 660 0 l 500 0 l 500 354 q 463 455 500 417 q 368 493 426 493 q 273 455 310 493 q 236 354 236 417 l 236 0 l 76 0 l 76 639 l 194 639 l 222 576 q 274 611 246 596 q 330 635 297 624 q 403 646 363 646 m 396 896 l 549 896 l 424 722 l 306 722 l 396 896 z "},"Ņ":{"ha":882,"x_min":90,"x_max":792,"o":"m 90 0 m 792 875 l 792 0 l 646 0 l 257 569 l 257 0 l 90 0 l 90 875 l 236 875 l 625 306 l 625 875 l 792 875 m 451 -76 q 515 -104 488 -76 q 542 -174 542 -132 q 521 -261 542 -224 q 475 -324 500 -299 q 410 -375 446 -353 l 382 -340 q 414 -314 399 -329 q 438 -285 426 -301 q 451 -250 449 -269 q 385 -226 410 -250 q 361 -167 361 -203 q 388 -103 361 -131 q 451 -76 415 -76 z "},"ņ":{"ha":729,"x_min":76,"x_max":660,"o":"m 76 0 m 403 646 q 507 627 460 646 q 588 573 554 608 q 641 488 622 538 q 660 375 660 438 l 660 0 l 500 0 l 500 354 q 463 455 500 417 q 368 493 426 493 q 273 455 310 493 q 236 354 236 417 l 236 0 l 76 0 l 76 639 l 194 639 l 222 576 q 274 611 246 596 q 330 635 297 624 q 403 646 363 646 m 368 -76 q 431 -104 404 -76 q 458 -174 458 -132 q 438 -261 458 -224 q 392 -324 417 -299 q 326 -375 363 -353 l 299 -340 q 331 -314 315 -329 q 354 -285 343 -301 q 368 -250 365 -269 q 302 -226 326 -250 q 278 -167 278 -203 q 305 -103 278 -131 q 368 -76 332 -76 z "},"Ň":{"ha":882,"x_min":90,"x_max":792,"o":"m 90 0 m 792 875 l 792 0 l 646 0 l 257 569 l 257 0 l 90 0 l 90 875 l 236 875 l 625 306 l 625 875 l 792 875 m 514 972 l 375 972 l 243 1146 l 375 1146 l 444 1056 l 514 1146 l 646 1146 l 514 972 z "},"ň":{"ha":729,"x_min":76,"x_max":660,"o":"m 76 0 m 403 646 q 507 627 460 646 q 588 573 554 608 q 641 488 622 538 q 660 375 660 438 l 660 0 l 500 0 l 500 354 q 463 455 500 417 q 368 493 426 493 q 273 455 310 493 q 236 354 236 417 l 236 0 l 76 0 l 76 639 l 194 639 l 222 576 q 274 611 246 596 q 330 635 297 624 q 403 646 363 646 m 451 722 l 313 722 l 181 896 l 313 896 l 382 806 l 451 896 l 583 896 l 451 722 z "},"Ō":{"ha":931,"x_min":42,"x_max":889,"o":"m 42 0 m 208 438 q 229 323 208 375 q 285 233 250 271 q 366 174 319 194 q 465 153 413 153 q 564 174 517 153 q 646 233 611 194 q 701 323 681 271 q 722 438 722 375 q 701 552 722 500 q 646 642 681 604 q 564 701 611 681 q 465 722 517 722 q 366 701 413 722 q 285 642 319 681 q 229 552 250 604 q 208 438 208 500 m 889 438 q 855 263 889 343 q 763 122 821 182 q 628 27 706 61 q 465 -7 551 -7 q 302 27 379 -7 q 167 122 225 61 q 76 263 110 182 q 42 438 42 343 q 76 612 42 531 q 167 753 110 693 q 302 848 225 814 q 465 882 379 882 q 628 848 551 882 q 763 753 706 814 q 855 612 821 693 q 889 438 889 531 m 646 979 l 285 979 l 285 1097 l 646 1097 l 646 979 z "},"ō":{"ha":722,"x_min":42,"x_max":681,"o":"m 42 0 m 201 319 q 247 193 201 240 q 361 146 293 146 q 475 193 429 146 q 521 319 521 240 q 475 446 521 399 q 361 493 429 493 q 247 446 293 493 q 201 319 201 399 m 681 319 q 655 192 681 251 q 585 89 629 133 q 484 19 542 44 q 361 -7 426 -7 q 238 19 296 -7 q 137 89 181 44 q 67 192 93 133 q 42 319 42 251 q 67 447 42 388 q 137 550 93 506 q 238 620 181 594 q 361 646 296 646 q 484 620 426 646 q 585 550 542 594 q 655 447 629 506 q 681 319 681 388 m 542 729 l 181 729 l 181 847 l 542 847 l 542 729 z "},"Ő":{"ha":931,"x_min":42,"x_max":889,"o":"m 42 0 m 208 438 q 229 323 208 375 q 285 233 250 271 q 366 174 319 194 q 465 153 413 153 q 564 174 517 153 q 646 233 611 194 q 701 323 681 271 q 722 438 722 375 q 701 552 722 500 q 646 642 681 604 q 564 701 611 681 q 465 722 517 722 q 366 701 413 722 q 285 642 319 681 q 229 552 250 604 q 208 438 208 500 m 889 438 q 855 263 889 343 q 763 122 821 182 q 628 27 706 61 q 465 -7 551 -7 q 302 27 379 -7 q 167 122 225 61 q 76 263 110 182 q 42 438 42 343 q 76 612 42 531 q 167 753 110 693 q 302 848 225 814 q 465 882 379 882 q 628 848 551 882 q 763 753 706 814 q 855 612 821 693 q 889 438 889 531 m 396 1146 l 549 1146 l 417 972 l 299 972 l 396 1146 m 618 1146 l 771 1146 l 639 972 l 521 972 l 618 1146 z "},"ő":{"ha":722,"x_min":42,"x_max":681,"o":"m 42 0 m 201 319 q 247 193 201 240 q 361 146 293 146 q 475 193 429 146 q 521 319 521 240 q 475 446 521 399 q 361 493 429 493 q 247 446 293 493 q 201 319 201 399 m 681 319 q 655 192 681 251 q 585 89 629 133 q 484 19 542 44 q 361 -7 426 -7 q 238 19 296 -7 q 137 89 181 44 q 67 192 93 133 q 42 319 42 251 q 67 447 42 388 q 137 550 93 506 q 238 620 181 594 q 361 646 296 646 q 484 620 426 646 q 585 550 542 594 q 655 447 629 506 q 681 319 681 388 m 292 889 l 444 889 l 313 715 l 194 715 l 292 889 m 514 889 l 667 889 l 535 715 l 417 715 l 514 889 z "},"Œ":{"ha":1167,"x_min":42,"x_max":1118,"o":"m 1118 160 l 1118 0 l 472 0 q 308 35 386 0 q 171 131 231 71 q 76 269 111 190 q 42 438 42 349 q 76 606 42 526 q 171 744 111 685 q 308 840 231 804 q 472 875 386 875 l 1104 875 l 1104 715 l 715 715 l 715 528 l 1069 528 l 1069 368 l 715 368 l 715 160 l 1118 160 m 549 160 l 549 715 l 472 715 q 372 693 419 715 q 288 633 325 671 q 230 545 251 596 q 208 438 208 494 q 230 330 208 381 q 288 242 251 279 q 372 182 325 204 q 472 160 419 160 l 549 160 z "},"œ":{"ha":1139,"x_min":42,"x_max":1097,"o":"m 1076 194 q 1039 119 1064 156 q 979 55 1014 83 q 899 10 944 26 q 799 -7 853 -7 q 706 10 746 -7 q 639 49 667 28 q 583 104 607 74 q 519 49 556 74 q 445 10 489 28 q 347 -7 401 -7 q 232 19 288 -7 q 134 89 176 44 q 67 192 92 133 q 42 319 42 251 q 67 447 42 388 q 134 550 92 506 q 232 620 176 594 q 347 646 288 646 q 445 628 401 646 q 519 590 489 611 q 583 535 556 565 q 642 590 608 565 q 709 628 669 611 q 799 646 749 646 q 915 622 861 646 q 1010 553 969 597 q 1074 450 1051 510 q 1097 319 1097 390 q 1096 298 1097 308 q 1093 278 1094 288 q 1090 257 1092 267 l 653 257 q 700 178 664 210 q 799 146 736 146 q 851 153 831 146 q 885 169 871 160 q 910 194 900 181 l 1076 194 m 201 319 q 213 249 201 281 q 245 194 225 217 q 292 158 265 171 q 347 146 318 146 q 403 158 376 146 q 449 194 429 171 q 481 249 469 217 q 493 319 493 281 q 481 390 493 358 q 449 445 469 422 q 403 481 429 468 q 347 493 376 493 q 292 481 318 493 q 245 445 265 468 q 213 390 225 422 q 201 319 201 358 m 799 500 q 702 464 740 500 q 653 375 664 428 l 944 375 q 895 464 933 428 q 799 500 857 500 z "},"Ŕ":{"ha":778,"x_min":90,"x_max":750,"o":"m 90 0 m 382 319 l 257 319 l 257 0 l 90 0 l 90 875 l 438 875 q 553 853 500 875 q 646 794 607 832 q 707 708 685 757 q 729 604 729 658 q 700 482 729 531 q 635 403 671 433 q 542 347 593 367 l 750 0 l 563 0 l 382 319 m 257 479 l 438 479 q 526 515 490 479 q 563 597 563 550 q 526 680 563 644 q 438 715 490 715 l 257 715 l 257 479 m 410 1146 l 563 1146 l 438 972 l 319 972 l 410 1146 z "},"ŕ":{"ha":451,"x_min":76,"x_max":438,"o":"m 76 0 m 375 646 q 394 644 386 646 q 410 642 403 643 q 424 639 417 640 l 424 472 q 408 475 417 474 q 391 478 401 476 q 368 479 381 479 q 273 441 310 479 q 236 340 236 403 l 236 0 l 76 0 l 76 639 l 194 639 l 222 569 q 263 607 239 590 q 310 634 282 622 q 375 646 339 646 m 285 889 l 438 889 l 313 715 l 194 715 l 285 889 z "},"Ŗ":{"ha":778,"x_min":90,"x_max":750,"o":"m 90 0 m 382 319 l 257 319 l 257 0 l 90 0 l 90 875 l 438 875 q 553 853 500 875 q 646 794 607 832 q 707 708 685 757 q 729 604 729 658 q 700 482 729 531 q 635 403 671 433 q 542 347 593 367 l 750 0 l 563 0 l 382 319 m 257 479 l 438 479 q 526 515 490 479 q 563 597 563 550 q 526 680 563 644 q 438 715 490 715 l 257 715 l 257 479 m 410 -76 q 473 -104 446 -76 q 500 -174 500 -132 q 479 -261 500 -224 q 433 -324 458 -299 q 368 -375 404 -353 l 340 -340 q 372 -314 357 -329 q 396 -285 385 -301 q 410 -250 407 -269 q 344 -226 368 -250 q 319 -167 319 -203 q 347 -103 319 -131 q 410 -76 374 -76 z "},"ŗ":{"ha":451,"x_min":69,"x_max":424,"o":"m 69 0 m 375 646 q 394 644 386 646 q 410 642 403 643 q 424 639 417 640 l 424 472 q 408 475 417 474 q 391 478 401 476 q 368 479 381 479 q 273 441 310 479 q 236 340 236 403 l 236 0 l 76 0 l 76 639 l 194 639 l 222 569 q 263 607 239 590 q 310 634 282 622 q 375 646 339 646 m 160 -76 q 223 -104 196 -76 q 250 -174 250 -132 q 229 -261 250 -224 q 183 -324 208 -299 q 118 -375 154 -353 l 90 -340 q 122 -314 107 -329 q 146 -285 135 -301 q 160 -250 157 -269 q 94 -226 118 -250 q 69 -167 69 -203 q 97 -103 69 -131 q 160 -76 124 -76 z "},"Ř":{"ha":778,"x_min":90,"x_max":750,"o":"m 90 0 m 382 319 l 257 319 l 257 0 l 90 0 l 90 875 l 438 875 q 553 853 500 875 q 646 794 607 832 q 707 708 685 757 q 729 604 729 658 q 700 482 729 531 q 635 403 671 433 q 542 347 593 367 l 750 0 l 563 0 l 382 319 m 257 479 l 438 479 q 526 515 490 479 q 563 597 563 550 q 526 680 563 644 q 438 715 490 715 l 257 715 l 257 479 m 465 972 l 326 972 l 194 1146 l 326 1146 l 396 1056 l 465 1146 l 597 1146 l 465 972 z "},"ř":{"ha":451,"x_min":56,"x_max":458,"o":"m 56 0 m 375 646 q 394 644 386 646 q 410 642 403 643 q 424 639 417 640 l 424 472 q 408 475 417 474 q 391 478 401 476 q 368 479 381 479 q 273 441 310 479 q 236 340 236 403 l 236 0 l 76 0 l 76 639 l 194 639 l 222 569 q 263 607 239 590 q 310 634 282 622 q 375 646 339 646 m 326 715 l 188 715 l 56 889 l 188 889 l 257 799 l 326 889 l 458 889 l 326 715 z "},"Ś":{"ha":722,"x_min":49,"x_max":681,"o":"m 49 0 m 56 631 q 77 726 56 681 q 138 806 99 772 q 234 861 178 840 q 361 882 290 882 q 480 861 426 882 q 572 803 533 840 q 632 715 611 765 q 653 604 653 664 l 493 604 q 458 696 493 663 q 361 729 424 729 q 264 699 299 729 q 229 632 229 668 q 263 572 229 593 q 346 535 296 551 q 455 500 396 518 q 564 451 514 482 q 647 372 614 421 q 681 243 681 322 q 658 151 681 196 q 593 72 635 107 q 492 15 551 36 q 361 -7 433 -7 q 230 14 288 -7 q 132 73 172 35 q 70 163 92 111 q 49 278 49 215 l 215 278 q 254 183 215 219 q 361 146 293 146 q 471 177 435 146 q 507 250 507 208 q 474 313 507 290 q 390 352 440 335 q 281 386 340 369 q 172 432 222 403 q 89 508 122 461 q 56 631 56 554 m 396 1146 l 549 1146 l 424 972 l 306 972 l 396 1146 z "},"ś":{"ha":583,"x_min":42,"x_max":542,"o":"m 42 0 m 194 201 q 225 147 200 169 q 292 125 250 125 q 358 147 333 125 q 382 194 382 168 q 358 229 382 217 q 297 252 333 242 q 219 274 261 263 q 140 306 176 285 q 80 362 104 328 q 56 451 56 396 q 72 526 56 490 q 118 588 88 561 q 190 630 149 614 q 285 646 232 646 q 462 590 400 646 q 535 451 524 535 l 382 451 q 352 493 376 472 q 292 514 328 514 q 235 496 256 514 q 215 451 215 478 q 240 417 215 429 q 300 394 264 404 q 378 372 336 383 q 457 338 421 360 q 517 280 493 315 q 542 188 542 244 q 525 113 542 149 q 478 51 508 78 q 403 9 447 25 q 306 -7 360 -7 q 116 50 181 -7 q 42 201 51 107 l 194 201 m 318 889 l 471 889 l 346 715 l 228 715 l 318 889 z "},"Ş":{"ha":722,"x_min":49,"x_max":681,"o":"m 56 631 q 77 726 56 681 q 138 806 99 772 q 234 861 178 840 q 361 882 290 882 q 480 861 426 882 q 572 803 533 840 q 632 715 611 765 q 653 604 653 664 l 493 604 q 458 696 493 663 q 361 729 424 729 q 264 699 299 729 q 229 632 229 668 q 263 572 229 593 q 346 535 296 551 q 455 500 396 518 q 564 451 514 482 q 647 372 614 421 q 681 243 681 322 q 660 156 681 199 q 601 79 639 114 q 510 22 563 44 q 396 -7 458 -1 l 375 -56 q 426 -74 403 -60 q 463 -106 446 -85 q 479 -160 479 -126 q 446 -233 479 -201 q 333 -264 413 -264 q 279 -257 303 -264 q 257 -250 267 -254 l 257 -187 q 274 -192 264 -190 q 291 -194 281 -193 q 313 -194 301 -194 q 364 -183 346 -194 q 382 -153 382 -171 q 365 -124 382 -137 q 313 -111 349 -111 q 290 -115 301 -111 q 278 -118 279 -118 l 326 -7 q 213 21 264 -1 q 125 81 161 43 q 69 168 89 118 q 49 278 49 218 l 215 278 q 254 183 215 219 q 361 146 293 146 q 471 177 435 146 q 507 250 507 208 q 474 313 507 290 q 390 352 440 335 q 281 386 340 369 q 172 432 222 403 q 89 508 122 461 q 56 631 56 554 z "},"ş":{"ha":583,"x_min":42,"x_max":542,"o":"m 194 201 q 225 147 200 169 q 292 125 250 125 q 358 147 333 125 q 382 194 382 168 q 358 229 382 217 q 297 252 333 242 q 219 274 261 263 q 140 306 176 285 q 80 362 104 328 q 56 451 56 396 q 72 526 56 490 q 118 588 88 561 q 190 630 149 614 q 285 646 232 646 q 462 590 400 646 q 535 451 524 535 l 382 451 q 352 493 376 472 q 292 514 328 514 q 235 496 256 514 q 215 451 215 478 q 240 417 215 429 q 300 394 264 404 q 378 372 336 383 q 457 338 421 360 q 517 280 493 315 q 542 188 542 244 q 526 118 542 151 q 484 59 511 85 q 419 16 457 33 q 333 -7 381 -1 l 313 -56 q 364 -74 340 -60 q 400 -106 383 -85 q 417 -160 417 -126 q 383 -233 417 -201 q 271 -264 350 -264 q 217 -257 240 -264 q 194 -250 204 -254 l 194 -187 q 211 -192 201 -190 q 228 -194 218 -193 q 250 -194 239 -194 q 301 -183 283 -194 q 319 -153 319 -171 q 303 -124 319 -137 q 250 -111 286 -111 q 228 -115 239 -111 q 215 -118 217 -118 l 257 -7 q 42 201 63 14 l 194 201 z "},"Š":{"ha":722,"x_min":49,"x_max":681,"o":"m 49 0 m 56 631 q 77 726 56 681 q 138 806 99 772 q 234 861 178 840 q 361 882 290 882 q 480 861 426 882 q 572 803 533 840 q 632 715 611 765 q 653 604 653 664 l 493 604 q 458 696 493 663 q 361 729 424 729 q 264 699 299 729 q 229 632 229 668 q 263 572 229 593 q 346 535 296 551 q 455 500 396 518 q 564 451 514 482 q 647 372 614 421 q 681 243 681 322 q 658 151 681 196 q 593 72 635 107 q 492 15 551 36 q 361 -7 433 -7 q 230 14 288 -7 q 132 73 172 35 q 70 163 92 111 q 49 278 49 215 l 215 278 q 254 183 215 219 q 361 146 293 146 q 471 177 435 146 q 507 250 507 208 q 474 313 507 290 q 390 352 440 335 q 281 386 340 369 q 172 432 222 403 q 89 508 122 461 q 56 631 56 554 m 431 972 l 292 972 l 160 1146 l 292 1146 l 361 1056 l 431 1146 l 563 1146 l 431 972 z "},"š":{"ha":583,"x_min":42,"x_max":542,"o":"m 42 0 m 194 201 q 225 147 200 169 q 292 125 250 125 q 358 147 333 125 q 382 194 382 168 q 358 229 382 217 q 297 252 333 242 q 219 274 261 263 q 140 306 176 285 q 80 362 104 328 q 56 451 56 396 q 72 526 56 490 q 118 588 88 561 q 190 630 149 614 q 285 646 232 646 q 462 590 400 646 q 535 451 524 535 l 382 451 q 352 493 376 472 q 292 514 328 514 q 235 496 256 514 q 215 451 215 478 q 240 417 215 429 q 300 394 264 404 q 378 372 336 383 q 457 338 421 360 q 517 280 493 315 q 542 188 542 244 q 525 113 542 149 q 478 51 508 78 q 403 9 447 25 q 306 -7 360 -7 q 116 50 181 -7 q 42 201 51 107 l 194 201 m 368 722 l 229 722 l 97 896 l 229 896 l 299 806 l 368 896 l 500 896 l 368 722 z "},"Ţ":{"ha":722,"x_min":21,"x_max":701,"o":"m 21 0 m 21 875 l 701 875 l 701 715 l 444 715 l 444 0 l 278 0 l 278 715 l 21 715 l 21 875 m 368 -76 q 431 -104 404 -76 q 458 -174 458 -132 q 438 -261 458 -224 q 392 -324 417 -299 q 326 -375 363 -353 l 299 -340 q 331 -314 315 -329 q 354 -285 343 -301 q 368 -250 365 -269 q 302 -226 326 -250 q 278 -167 278 -203 q 305 -103 278 -131 q 368 -76 332 -76 z "},"ţ":{"ha":479,"x_min":28,"x_max":424,"o":"m 28 0 m 146 792 l 285 792 l 285 639 l 424 639 l 424 493 l 285 493 l 285 229 q 309 163 285 188 q 375 139 333 139 q 393 140 386 139 q 406 142 400 140 q 417 146 411 143 l 417 7 q 394 0 407 3 q 340 -7 371 -7 q 253 9 293 -7 q 185 56 214 25 q 141 128 157 86 q 125 222 125 169 l 125 493 l 28 493 l 28 625 l 69 625 q 146 701 146 625 l 146 792 m 278 -76 q 341 -104 314 -76 q 368 -174 368 -132 q 347 -261 368 -224 q 301 -324 326 -299 q 236 -375 272 -353 l 208 -340 q 240 -314 225 -329 q 264 -285 253 -301 q 278 -250 275 -269 q 212 -226 236 -250 q 188 -167 188 -203 q 215 -103 188 -131 q 278 -76 242 -76 z "},"Ť":{"ha":722,"x_min":21,"x_max":701,"o":"m 21 0 m 21 875 l 701 875 l 701 715 l 444 715 l 444 0 l 278 0 l 278 715 l 21 715 l 21 875 m 431 972 l 292 972 l 160 1146 l 292 1146 l 361 1056 l 431 1146 l 563 1146 l 431 972 z "},"ť":{"ha":528,"x_min":28,"x_max":597,"o":"m 458 875 l 597 875 l 514 701 l 410 701 l 458 875 m 146 792 l 285 792 l 285 639 l 424 639 l 424 493 l 285 493 l 285 229 q 309 163 285 188 q 375 139 333 139 q 393 140 386 139 q 406 142 400 140 q 417 146 411 143 l 417 7 q 394 0 407 3 q 340 -7 371 -7 q 253 9 293 -7 q 185 56 214 25 q 141 128 157 86 q 125 222 125 169 l 125 493 l 28 493 l 28 625 l 69 625 q 146 701 146 625 l 146 792 z "},"Ū":{"ha":861,"x_min":83,"x_max":778,"o":"m 83 0 m 431 153 q 563 201 514 153 q 611 333 611 250 l 611 875 l 778 875 l 778 333 q 752 198 778 260 q 680 90 726 136 q 569 19 633 44 q 431 -7 506 -7 q 292 19 356 -7 q 181 90 228 44 q 109 198 135 136 q 83 333 83 260 l 83 875 l 250 875 l 250 333 q 299 201 250 250 q 431 153 347 153 m 611 972 l 250 972 l 250 1090 l 611 1090 l 611 972 z "},"ū":{"ha":736,"x_min":76,"x_max":660,"o":"m 76 0 m 333 -7 q 229 12 276 -7 q 148 66 182 31 q 95 151 114 101 q 76 264 76 201 l 76 639 l 236 639 l 236 285 q 273 184 236 222 q 368 146 310 146 q 463 184 426 146 q 500 285 500 222 l 500 639 l 660 639 l 660 0 l 542 0 l 514 63 q 463 28 490 43 q 406 3 439 14 q 333 -7 372 -7 m 549 729 l 188 729 l 188 847 l 549 847 l 549 729 z "},"Ů":{"ha":861,"x_min":83,"x_max":778,"o":"m 83 0 m 431 153 q 563 201 514 153 q 611 333 611 250 l 611 875 l 778 875 l 778 333 q 752 198 778 260 q 680 90 726 136 q 569 19 633 44 q 431 -7 506 -7 q 292 19 356 -7 q 181 90 228 44 q 109 198 135 136 q 83 333 83 260 l 83 875 l 250 875 l 250 333 q 299 201 250 250 q 431 153 347 153 m 479 1069 q 465 1104 479 1090 q 431 1118 451 1118 q 396 1104 410 1118 q 382 1069 382 1090 q 396 1035 382 1049 q 431 1021 410 1021 q 465 1035 451 1021 q 479 1069 479 1049 m 563 1069 q 526 981 563 1017 q 431 944 489 944 q 335 981 372 944 q 299 1069 299 1017 q 335 1158 299 1122 q 431 1194 372 1194 q 526 1158 489 1194 q 563 1069 563 1122 z "},"ů":{"ha":736,"x_min":76,"x_max":660,"o":"m 76 0 m 333 -7 q 229 12 276 -7 q 148 66 182 31 q 95 151 114 101 q 76 264 76 201 l 76 639 l 236 639 l 236 285 q 273 184 236 222 q 368 146 310 146 q 463 184 426 146 q 500 285 500 222 l 500 639 l 660 639 l 660 0 l 542 0 l 514 63 q 463 28 490 43 q 406 3 439 14 q 333 -7 372 -7 m 417 819 q 403 854 417 840 q 368 868 389 868 q 333 854 347 868 q 319 819 319 840 q 333 785 319 799 q 368 771 347 771 q 403 785 389 771 q 417 819 417 799 m 500 819 q 463 731 500 767 q 368 694 426 694 q 273 731 310 694 q 236 819 236 767 q 273 908 236 872 q 368 944 310 944 q 463 908 426 944 q 500 819 500 872 z "},"Ű":{"ha":861,"x_min":83,"x_max":778,"o":"m 83 0 m 431 153 q 563 201 514 153 q 611 333 611 250 l 611 875 l 778 875 l 778 333 q 752 198 778 260 q 680 90 726 136 q 569 19 633 44 q 431 -7 506 -7 q 292 19 356 -7 q 181 90 228 44 q 109 198 135 136 q 83 333 83 260 l 83 875 l 250 875 l 250 333 q 299 201 250 250 q 431 153 347 153 m 347 1146 l 500 1146 l 368 972 l 250 972 l 347 1146 m 569 1146 l 722 1146 l 590 972 l 472 972 l 569 1146 z "},"ű":{"ha":736,"x_min":76,"x_max":667,"o":"m 76 0 m 333 -7 q 229 12 276 -7 q 148 66 182 31 q 95 151 114 101 q 76 264 76 201 l 76 639 l 236 639 l 236 285 q 273 184 236 222 q 368 146 310 146 q 463 184 426 146 q 500 285 500 222 l 500 639 l 660 639 l 660 0 l 542 0 l 514 63 q 463 28 490 43 q 406 3 439 14 q 333 -7 372 -7 m 292 896 l 444 896 l 313 722 l 194 722 l 292 896 m 514 896 l 667 896 l 535 722 l 417 722 l 514 896 z "},"Ų":{"ha":861,"x_min":83,"x_max":778,"o":"m 431 153 q 563 201 514 153 q 611 333 611 250 l 611 875 l 778 875 l 778 333 q 755 203 778 263 q 692 101 732 144 q 599 29 653 57 q 486 -7 546 1 q 465 -39 474 -22 q 451 -72 457 -54 q 444 -111 444 -90 q 463 -156 444 -137 q 514 -174 482 -174 q 534 -173 525 -174 q 551 -171 543 -172 q 569 -167 560 -169 l 569 -246 q 544 -251 558 -249 q 518 -256 533 -254 q 486 -257 503 -257 q 379 -221 418 -257 q 340 -132 340 -185 q 349 -86 340 -108 q 368 -46 357 -64 q 396 -7 381 -25 q 271 25 328 -1 q 172 96 214 51 q 107 200 131 140 q 83 333 83 260 l 83 875 l 250 875 l 250 333 q 299 201 250 250 q 431 153 347 153 z "},"ų":{"ha":736,"x_min":76,"x_max":708,"o":"m 514 63 q 463 28 490 43 q 406 3 439 14 q 333 -7 372 -7 q 229 12 276 -7 q 148 66 182 31 q 95 151 114 101 q 76 264 76 201 l 76 639 l 236 639 l 236 285 q 273 184 236 222 q 368 146 310 146 q 463 184 426 146 q 500 285 500 222 l 500 639 l 660 639 l 660 0 l 632 0 q 607 -37 618 -18 q 590 -74 597 -54 q 583 -111 583 -93 q 602 -156 583 -137 q 653 -174 621 -174 q 673 -173 664 -174 q 690 -171 682 -172 q 708 -167 699 -169 l 708 -246 q 683 -251 697 -249 q 657 -256 672 -254 q 625 -257 642 -257 q 518 -221 557 -257 q 479 -132 479 -185 q 489 -83 479 -106 q 510 -40 499 -60 q 542 0 524 -19 l 514 63 z "},"Ÿ":{"ha":764,"x_min":7,"x_max":757,"o":"m 7 0 m 576 875 l 757 875 l 465 333 l 465 0 l 299 0 l 299 333 l 7 875 l 188 875 l 382 500 l 576 875 m 347 1049 q 320 985 347 1013 q 257 958 293 958 q 194 985 221 958 q 167 1049 167 1013 q 194 1112 167 1085 q 257 1139 221 1139 q 320 1112 293 1139 q 347 1049 347 1085 m 597 1049 q 570 985 597 1013 q 507 958 543 958 q 444 985 471 958 q 417 1049 417 1013 q 444 1112 417 1085 q 507 1139 471 1139 q 570 1112 543 1139 q 597 1049 597 1085 z "},"Ź":{"ha":715,"x_min":42,"x_max":674,"o":"m 42 0 m 257 160 l 674 160 l 674 0 l 42 0 l 42 132 l 438 715 l 56 715 l 56 875 l 653 875 l 653 743 l 257 160 m 389 1146 l 542 1146 l 417 972 l 299 972 l 389 1146 z "},"ź":{"ha":576,"x_min":42,"x_max":535,"o":"m 42 0 m 319 486 l 42 486 l 42 639 l 521 639 l 521 507 l 243 153 l 535 153 l 535 0 l 42 0 l 42 132 l 319 486 m 313 896 l 465 896 l 340 722 l 222 722 l 313 896 z "},"Ż":{"ha":715,"x_min":42,"x_max":674,"o":"m 42 0 m 257 160 l 674 160 l 674 0 l 42 0 l 42 132 l 438 715 l 56 715 l 56 875 l 653 875 l 653 743 l 257 160 m 451 1054 q 424 991 451 1018 q 361 964 397 964 q 298 991 325 964 q 271 1054 271 1018 q 298 1117 271 1090 q 361 1144 325 1144 q 424 1117 397 1144 q 451 1054 451 1090 z "},"ż":{"ha":576,"x_min":42,"x_max":535,"o":"m 42 0 m 319 486 l 42 486 l 42 639 l 521 639 l 521 507 l 243 153 l 535 153 l 535 0 l 42 0 l 42 132 l 319 486 m 382 813 q 355 749 382 776 q 292 722 328 722 q 228 749 256 722 q 201 813 201 776 q 228 876 201 849 q 292 903 256 903 q 355 876 328 903 q 382 813 382 849 z "},"Ž":{"ha":715,"x_min":42,"x_max":674,"o":"m 42 0 m 257 160 l 674 160 l 674 0 l 42 0 l 42 132 l 438 715 l 56 715 l 56 875 l 653 875 l 653 743 l 257 160 m 431 972 l 292 972 l 160 1146 l 292 1146 l 361 1056 l 431 1146 l 563 1146 l 431 972 z "},"ž":{"ha":576,"x_min":42,"x_max":535,"o":"m 42 0 m 319 486 l 42 486 l 42 639 l 521 639 l 521 507 l 243 153 l 535 153 l 535 0 l 42 0 l 42 132 l 319 486 m 354 722 l 215 722 l 83 896 l 215 896 l 285 806 l 354 896 l 486 896 l 354 722 z "},"ƒ":{"ha":521,"x_min":-83,"x_max":556,"o":"m 326 396 q 286 199 304 286 q 271 124 278 161 q 258 58 264 88 q 247 10 251 29 q 243 -14 243 -10 q 166 -176 222 -124 q 0 -229 110 -229 q -57 -222 -32 -229 q -83 -215 -71 -219 l -49 -76 q -32 -81 -42 -79 q -15 -83 -25 -82 q 7 -83 -4 -83 q 97 7 78 -83 l 174 396 l 69 396 l 97 542 l 201 542 q 206 563 203 547 q 214 597 210 578 q 222 635 218 617 q 229 667 226 654 q 306 829 250 776 q 472 882 363 882 q 503 880 488 882 q 529 875 518 878 q 556 868 543 871 l 521 729 q 503 732 511 731 q 485 735 494 733 q 465 736 476 736 q 375 646 394 736 q 369 622 372 639 q 363 588 365 606 q 354 542 358 567 l 486 542 l 458 396 l 326 396 z "},"Ș":{"ha":722,"x_min":49,"x_max":681,"o":"m 49 0 m 56 631 q 77 726 56 681 q 138 806 99 772 q 234 861 178 840 q 361 882 290 882 q 480 861 426 882 q 572 803 533 840 q 632 715 611 765 q 653 604 653 664 l 493 604 q 458 696 493 663 q 361 729 424 729 q 264 699 299 729 q 229 632 229 668 q 263 572 229 593 q 346 535 296 551 q 455 500 396 518 q 564 451 514 482 q 647 372 614 421 q 681 243 681 322 q 658 151 681 196 q 593 72 635 107 q 492 15 551 36 q 361 -7 433 -7 q 230 14 288 -7 q 132 73 172 35 q 70 163 92 111 q 49 278 49 215 l 215 278 q 254 183 215 219 q 361 146 293 146 q 471 177 435 146 q 507 250 507 208 q 474 313 507 290 q 390 352 440 335 q 281 386 340 369 q 172 432 222 403 q 89 508 122 461 q 56 631 56 554 m 368 -76 q 431 -104 404 -76 q 458 -174 458 -132 q 438 -261 458 -224 q 392 -324 417 -299 q 326 -375 363 -353 l 299 -340 q 331 -314 315 -329 q 354 -285 343 -301 q 368 -250 365 -269 q 302 -226 326 -250 q 278 -167 278 -203 q 305 -103 278 -131 q 368 -76 332 -76 z "},"ș":{"ha":583,"x_min":42,"x_max":542,"o":"m 42 0 m 194 201 q 225 147 200 169 q 292 125 250 125 q 358 147 333 125 q 382 194 382 168 q 358 229 382 217 q 297 252 333 242 q 219 274 261 263 q 140 306 176 285 q 80 362 104 328 q 56 451 56 396 q 72 526 56 490 q 118 588 88 561 q 190 630 149 614 q 285 646 232 646 q 462 590 400 646 q 535 451 524 535 l 382 451 q 352 493 376 472 q 292 514 328 514 q 235 496 256 514 q 215 451 215 478 q 240 417 215 429 q 300 394 264 404 q 378 372 336 383 q 457 338 421 360 q 517 280 493 315 q 542 188 542 244 q 525 113 542 149 q 478 51 508 78 q 403 9 447 25 q 306 -7 360 -7 q 116 50 181 -7 q 42 201 51 107 l 194 201 m 299 -76 q 362 -104 335 -76 q 389 -174 389 -132 q 368 -261 389 -224 q 322 -324 347 -299 q 257 -375 293 -353 l 229 -340 q 261 -314 246 -329 q 285 -285 274 -301 q 299 -250 296 -269 q 233 -226 257 -250 q 208 -167 208 -203 q 235 -103 208 -131 q 299 -76 263 -76 z "},"Ț":{"ha":722,"x_min":21,"x_max":701,"o":"m 21 0 m 21 875 l 701 875 l 701 715 l 444 715 l 444 0 l 278 0 l 278 715 l 21 715 l 21 875 m 368 -76 q 431 -104 404 -76 q 458 -174 458 -132 q 438 -261 458 -224 q 392 -324 417 -299 q 326 -375 363 -353 l 299 -340 q 331 -314 315 -329 q 354 -285 343 -301 q 368 -250 365 -269 q 302 -226 326 -250 q 278 -167 278 -203 q 305 -103 278 -131 q 368 -76 332 -76 z "},"ț":{"ha":479,"x_min":28,"x_max":424,"o":"m 28 0 m 146 792 l 285 792 l 285 639 l 424 639 l 424 493 l 285 493 l 285 229 q 309 163 285 188 q 375 139 333 139 q 393 140 386 139 q 406 142 400 140 q 417 146 411 143 l 417 7 q 394 0 407 3 q 340 -7 371 -7 q 253 9 293 -7 q 185 56 214 25 q 141 128 157 86 q 125 222 125 169 l 125 493 l 28 493 l 28 625 l 69 625 q 146 701 146 625 l 146 792 m 278 -76 q 341 -104 314 -76 q 368 -174 368 -132 q 347 -261 368 -224 q 301 -324 326 -299 q 236 -375 272 -353 l 208 -340 q 240 -314 225 -329 q 264 -285 253 -301 q 278 -250 275 -269 q 212 -226 236 -250 q 188 -167 188 -203 q 215 -103 188 -131 q 278 -76 242 -76 z "},"ʼ":{"ha":264,"x_min":42,"x_max":222,"o":"m 132 882 q 195 854 168 882 q 222 785 222 826 q 201 697 222 735 q 156 635 181 660 q 90 583 126 606 l 63 618 q 94 644 79 629 q 118 673 107 657 q 132 708 129 689 q 66 732 90 708 q 42 792 42 756 q 69 855 42 828 q 132 882 96 882 z "},"ˆ":{"ha":486,"x_min":42,"x_max":444,"o":"m 444 701 l 313 701 l 243 792 l 174 701 l 42 701 l 174 875 l 313 875 l 444 701 z "},"ˇ":{"ha":486,"x_min":42,"x_max":444,"o":"m 313 701 l 174 701 l 42 875 l 174 875 l 243 785 l 313 875 l 444 875 l 313 701 z "},"˘":{"ha":472,"x_min":42,"x_max":431,"o":"m 236 806 q 274 816 260 806 q 297 840 289 826 q 313 875 307 856 l 431 875 q 409 807 425 839 q 367 751 393 775 q 308 715 342 728 q 236 701 275 701 q 164 715 197 701 q 105 751 131 728 q 63 807 79 775 q 42 875 47 839 l 160 875 q 175 840 165 856 q 198 816 183 826 q 236 806 213 806 z "},"˙":{"ha":264,"x_min":42,"x_max":222,"o":"m 222 799 q 195 735 222 763 q 132 708 168 708 q 69 735 96 708 q 42 799 42 763 q 69 862 42 835 q 132 889 96 889 q 195 862 168 889 q 222 799 222 835 z "},"˚":{"ha":347,"x_min":42,"x_max":306,"o":"m 222 806 q 208 840 222 826 q 174 854 194 854 q 139 840 153 854 q 125 806 125 826 q 139 771 125 785 q 174 757 153 757 q 208 771 194 757 q 222 806 222 785 m 306 806 q 269 717 306 753 q 174 681 232 681 q 78 717 115 681 q 42 806 42 753 q 78 894 42 858 q 174 931 115 931 q 269 894 232 931 q 306 806 306 858 z "},"˛":{"ha":313,"x_min":42,"x_max":271,"o":"m 194 0 q 169 -36 181 -18 q 153 -72 160 -51 q 146 -111 146 -92 q 165 -156 146 -137 q 215 -174 183 -174 q 235 -173 226 -174 q 253 -171 244 -172 q 271 -167 261 -169 l 271 -246 q 246 -251 260 -249 q 219 -256 235 -254 q 188 -257 204 -257 q 81 -221 119 -257 q 42 -132 42 -185 q 51 -81 42 -104 q 72 -39 61 -57 q 104 0 86 -18 l 194 0 z "},"˜":{"ha":500,"x_min":42,"x_max":458,"o":"m 333 701 q 279 713 301 701 q 239 740 257 725 q 207 766 221 754 q 181 778 193 778 q 142 759 160 778 q 125 708 125 740 l 42 708 q 78 840 42 797 q 167 882 114 882 q 220 870 197 882 q 261 844 243 858 q 293 817 279 829 q 319 806 307 806 q 358 824 340 806 q 375 875 375 843 l 458 875 q 422 744 458 786 q 333 701 386 701 z "},"˝":{"ha":556,"x_min":42,"x_max":514,"o":"m 139 875 l 292 875 l 160 701 l 42 701 l 139 875 m 361 875 l 514 875 l 382 701 l 264 701 l 361 875 z "},"Ё":{"ha":757,"x_min":90,"x_max":708,"o":"m 90 0 m 708 160 l 708 0 l 90 0 l 90 875 l 694 875 l 694 715 l 257 715 l 257 528 l 660 528 l 660 368 l 257 368 l 257 160 l 708 160 m 368 1049 q 341 985 368 1013 q 278 958 314 958 q 215 985 242 958 q 188 1049 188 1013 q 215 1112 188 1085 q 278 1139 242 1139 q 341 1112 314 1139 q 368 1049 368 1085 m 618 1049 q 591 985 618 1013 q 528 958 564 958 q 465 985 492 958 q 438 1049 438 1013 q 465 1112 438 1085 q 528 1139 492 1139 q 591 1112 564 1139 q 618 1049 618 1085 z "},"Ђ":{"ha":903,"x_min":14,"x_max":861,"o":"m 569 576 q 688 555 635 576 q 781 492 742 533 q 840 392 819 451 q 861 257 861 332 q 772 18 861 106 q 514 -69 682 -69 l 514 83 q 646 131 597 83 q 694 257 694 178 q 649 377 694 331 q 535 424 603 424 q 472 411 501 424 q 422 377 443 399 q 388 326 400 356 q 375 264 375 297 l 375 0 l 208 0 l 208 715 l 14 715 l 14 875 l 576 875 l 576 715 l 375 715 l 375 493 q 425 535 396 517 q 486 563 450 550 q 569 576 522 576 z "},"Ѓ":{"ha":660,"x_min":90,"x_max":639,"o":"m 90 0 m 389 1146 l 542 1146 l 417 972 l 299 972 l 389 1146 m 257 715 l 257 0 l 90 0 l 90 875 l 639 875 l 639 715 l 257 715 z "},"Є":{"ha":896,"x_min":42,"x_max":861,"o":"m 528 361 l 215 361 q 251 278 228 317 q 307 213 275 240 q 378 169 339 185 q 465 153 418 153 q 546 165 510 153 q 610 198 582 178 q 658 241 639 218 q 688 285 676 264 l 861 285 q 811 178 846 231 q 726 84 776 125 q 609 18 675 43 q 465 -7 543 -7 q 302 27 379 -7 q 167 122 225 61 q 76 263 110 182 q 42 438 42 343 q 76 612 42 531 q 167 753 110 693 q 302 848 225 814 q 465 882 379 882 q 605 857 540 882 q 719 790 669 832 q 804 694 769 749 q 854 583 839 640 l 681 583 q 654 631 672 607 q 609 676 636 656 q 546 709 582 696 q 465 722 510 722 q 378 706 418 722 q 307 663 339 690 q 251 597 275 635 q 215 514 228 558 l 528 514 l 528 361 z "},"Ѕ":{"ha":722,"x_min":49,"x_max":681,"o":"m 49 0 m 56 631 q 77 726 56 681 q 138 806 99 772 q 234 861 178 840 q 361 882 290 882 q 480 861 426 882 q 572 803 533 840 q 632 715 611 765 q 653 604 653 664 l 493 604 q 458 696 493 663 q 361 729 424 729 q 264 699 299 729 q 229 632 229 668 q 263 572 229 593 q 346 535 296 551 q 455 500 396 518 q 564 451 514 482 q 647 372 614 421 q 681 243 681 322 q 658 151 681 196 q 593 72 635 107 q 492 15 551 36 q 361 -7 433 -7 q 230 14 288 -7 q 132 73 172 35 q 70 163 92 111 q 49 278 49 215 l 215 278 q 254 183 215 219 q 361 146 293 146 q 471 177 435 146 q 507 250 507 208 q 474 313 507 290 q 390 352 440 335 q 281 386 340 369 q 172 432 222 403 q 89 508 122 461 q 56 631 56 554 z "},"І":{"ha":347,"x_min":90,"x_max":257,"o":"m 90 0 m 257 0 l 90 0 l 90 875 l 257 875 l 257 0 z "},"Ї":{"ha":347,"x_min":-42,"x_max":389,"o":"m 0 0 m 257 0 l 90 0 l 90 875 l 257 875 l 257 0 m 139 1056 q 112 992 139 1019 q 49 965 85 965 q -15 992 13 965 q -42 1056 -42 1019 q -15 1119 -42 1092 q 49 1146 13 1146 q 112 1119 85 1146 q 139 1056 139 1092 m 389 1056 q 362 992 389 1019 q 299 965 335 965 q 235 992 263 965 q 208 1056 208 1019 q 235 1119 208 1092 q 299 1146 263 1146 q 362 1119 335 1146 q 389 1056 389 1092 z "},"Ј":{"ha":674,"x_min":14,"x_max":583,"o":"m 14 0 m 583 875 l 583 271 q 563 157 583 208 q 506 69 543 106 q 417 13 469 33 q 299 -7 364 -7 q 181 13 233 -7 q 91 69 128 33 q 34 157 54 106 q 14 271 14 208 l 181 271 q 213 185 181 218 q 299 153 246 153 q 384 185 351 153 q 417 271 417 218 l 417 875 l 583 875 z "},"Љ":{"ha":1257,"x_min":0,"x_max":1222,"o":"m 771 875 l 771 583 l 924 583 q 1040 560 986 583 q 1135 498 1094 538 q 1199 405 1176 458 q 1222 292 1222 351 q 1199 178 1222 232 q 1135 85 1176 125 q 1040 23 1094 46 q 924 0 986 0 l 604 0 l 604 715 l 354 715 l 319 264 q 241 63 308 133 q 69 -7 174 -7 q 42 -6 54 -7 q 19 -4 29 -6 q 0 0 8 -3 l 0 146 l 21 146 q 117 184 79 146 q 160 285 156 222 l 201 875 l 771 875 m 771 424 l 771 160 l 924 160 q 974 171 950 160 q 1015 200 997 182 q 1044 242 1033 218 q 1056 292 1056 265 q 1044 342 1056 318 q 1015 383 1033 365 q 974 413 997 401 q 924 424 950 424 l 771 424 z "},"Њ":{"ha":1250,"x_min":90,"x_max":1215,"o":"m 764 875 l 764 583 l 917 583 q 1033 560 979 583 q 1128 498 1088 538 q 1192 405 1169 458 q 1215 292 1215 351 q 1192 178 1215 232 q 1128 85 1169 125 q 1033 23 1088 46 q 917 0 979 0 l 597 0 l 597 424 l 257 424 l 257 0 l 90 0 l 90 875 l 257 875 l 257 583 l 597 583 l 597 875 l 764 875 m 764 424 l 764 160 l 917 160 q 967 171 943 160 q 1008 200 990 182 q 1038 242 1026 218 q 1049 292 1049 265 q 1038 342 1049 318 q 1008 383 1026 365 q 967 413 990 401 q 917 424 943 424 l 764 424 z "},"Ћ":{"ha":903,"x_min":14,"x_max":833,"o":"m 563 576 q 669 555 619 576 q 755 493 718 533 q 813 394 792 453 q 833 264 833 336 l 833 0 l 667 0 l 667 264 q 625 381 667 338 q 521 424 583 424 q 417 381 458 424 q 375 264 375 338 l 375 0 l 208 0 l 208 715 l 14 715 l 14 875 l 576 875 l 576 715 l 375 715 l 375 493 q 425 535 397 517 q 483 563 449 550 q 563 576 518 576 z "},"Ќ":{"ha":750,"x_min":90,"x_max":764,"o":"m 90 0 m 569 0 l 257 396 l 257 0 l 90 0 l 90 875 l 257 875 l 257 486 l 549 875 l 743 875 l 417 444 l 764 0 l 569 0 m 438 1146 l 590 1146 l 465 972 l 347 972 l 438 1146 z "},"Ў":{"ha":743,"x_min":7,"x_max":743,"o":"m 7 0 m 375 1063 q 413 1073 399 1063 q 436 1097 428 1083 q 451 1132 446 1113 l 569 1132 q 548 1064 564 1096 q 506 1008 532 1032 q 447 972 481 985 q 375 958 414 958 q 303 972 336 958 q 244 1008 269 985 q 202 1064 218 1032 q 181 1132 186 1096 l 299 1132 q 314 1097 304 1113 q 337 1073 322 1083 q 375 1063 351 1063 m 743 875 l 444 208 q 394 109 419 151 q 338 40 368 67 q 274 -1 308 13 q 194 -14 239 -14 q 138 -7 163 -14 q 111 0 124 -4 l 111 146 q 126 142 118 143 q 143 140 133 140 q 167 139 153 139 q 237 162 208 139 q 278 215 265 185 l 292 250 l 7 875 l 181 875 l 382 438 l 576 875 l 743 875 z "},"Џ":{"ha":868,"x_min":90,"x_max":778,"o":"m 257 875 l 257 160 l 611 160 l 611 875 l 778 875 l 778 0 l 514 0 l 514 -167 l 354 -167 l 354 0 l 90 0 l 90 875 l 257 875 z "},"А":{"ha":792,"x_min":-7,"x_max":799,"o":"m 0 0 m 167 0 l -7 0 l 319 875 l 472 875 l 799 0 l 625 0 l 563 181 l 229 181 l 167 0 m 507 333 l 396 653 l 285 333 l 507 333 z "},"Б":{"ha":785,"x_min":90,"x_max":743,"o":"m 458 542 q 573 521 521 542 q 663 463 625 500 q 722 377 701 426 q 743 271 743 328 q 722 164 743 214 q 663 78 701 114 q 573 21 625 42 q 458 0 521 0 l 90 0 l 90 875 l 681 875 l 681 715 l 257 715 l 257 542 l 458 542 m 257 389 l 257 153 l 458 153 q 544 185 511 153 q 576 271 576 218 q 544 356 576 324 q 458 389 511 389 l 257 389 z "},"В":{"ha":785,"x_min":90,"x_max":750,"o":"m 90 0 m 611 465 q 681 418 650 447 q 728 351 707 393 q 750 250 750 310 q 729 155 750 200 q 670 76 708 110 q 580 21 632 42 q 465 0 528 0 l 90 0 l 90 875 l 451 875 q 557 856 508 875 q 641 803 606 836 q 696 726 676 769 q 715 632 715 682 q 699 556 715 588 q 663 504 682 524 q 611 465 639 481 m 257 521 l 438 521 q 517 552 485 521 q 549 625 549 583 q 517 698 549 667 q 438 729 485 729 l 257 729 l 257 521 m 451 146 q 547 182 510 146 q 583 271 583 218 q 547 360 583 324 q 451 396 510 396 l 257 396 l 257 146 l 451 146 z "},"Г":{"ha":660,"x_min":90,"x_max":639,"o":"m 257 715 l 257 0 l 90 0 l 90 875 l 639 875 l 639 715 l 257 715 z "},"Д":{"ha":882,"x_min":0,"x_max":861,"o":"m 861 160 l 861 -167 l 694 -167 l 694 0 l 167 0 l 167 -167 l 0 -167 l 0 160 l 49 160 q 92 190 72 171 q 124 235 108 207 q 146 306 140 264 l 215 875 l 764 875 l 764 160 l 861 160 m 597 715 l 354 715 l 306 306 q 288 235 300 264 q 265 190 276 207 q 236 160 251 171 l 597 160 l 597 715 z "},"Е":{"ha":757,"x_min":90,"x_max":708,"o":"m 90 0 m 708 160 l 708 0 l 90 0 l 90 875 l 694 875 l 694 715 l 257 715 l 257 528 l 660 528 l 660 368 l 257 368 l 257 160 l 708 160 z "},"Ж":{"ha":1097,"x_min":-14,"x_max":1111,"o":"m 632 875 l 632 486 l 889 875 l 1083 875 l 792 444 l 1111 0 l 917 0 l 632 396 l 632 0 l 465 0 l 465 396 l 181 0 l -14 0 l 306 444 l 14 875 l 208 875 l 465 486 l 465 875 l 632 875 z "},"З":{"ha":715,"x_min":35,"x_max":674,"o":"m 49 618 q 74 721 51 672 q 137 805 97 769 q 231 861 176 840 q 354 882 286 882 q 473 862 419 882 q 565 808 526 842 q 625 730 604 774 q 646 639 646 686 q 628 558 646 592 q 590 501 611 524 q 535 458 565 476 q 604 411 574 440 q 652 344 631 386 q 674 243 674 303 q 652 148 674 193 q 590 69 631 103 q 492 14 550 35 q 361 -7 433 -7 q 230 14 288 -7 q 131 71 172 35 q 65 157 89 107 q 35 264 40 207 l 201 264 q 252 181 213 217 q 354 146 292 146 q 464 178 428 146 q 500 264 500 211 q 465 343 500 311 q 361 375 429 375 l 278 375 l 278 521 l 354 521 q 448 549 417 521 q 479 618 479 576 q 446 697 479 665 q 354 729 413 729 q 256 697 292 729 q 215 618 221 665 l 49 618 z "},"И":{"ha":882,"x_min":90,"x_max":792,"o":"m 625 0 l 625 576 l 236 0 l 90 0 l 90 875 l 257 875 l 257 299 l 646 875 l 792 875 l 792 0 l 625 0 z "},"Й":{"ha":882,"x_min":90,"x_max":792,"o":"m 90 0 m 625 0 l 625 576 l 236 0 l 90 0 l 90 875 l 257 875 l 257 299 l 646 875 l 792 875 l 792 0 l 625 0 m 444 1063 q 483 1073 468 1063 q 506 1097 497 1083 q 521 1132 515 1113 l 639 1132 q 617 1064 633 1096 q 576 1008 601 1032 q 517 972 550 985 q 444 958 483 958 q 372 972 406 958 q 313 1008 339 985 q 272 1064 288 1032 q 250 1132 256 1096 l 368 1132 q 383 1097 374 1113 q 406 1073 392 1083 q 444 1063 421 1063 z "},"К":{"ha":750,"x_min":90,"x_max":764,"o":"m 90 0 m 569 0 l 257 396 l 257 0 l 90 0 l 90 875 l 257 875 l 257 486 l 549 875 l 743 875 l 417 444 l 764 0 l 569 0 z "},"Л":{"ha":882,"x_min":0,"x_max":792,"o":"m 792 875 l 792 0 l 625 0 l 625 715 l 354 715 l 319 264 q 241 63 308 133 q 69 -7 174 -7 q 42 -6 54 -7 q 19 -4 29 -6 q 0 0 8 -3 l 0 146 l 21 146 q 117 184 79 146 q 160 285 156 222 l 201 875 l 792 875 z "},"М":{"ha":1069,"x_min":90,"x_max":979,"o":"m 90 0 m 979 875 l 979 0 l 813 0 l 813 486 l 590 0 l 479 0 l 257 486 l 257 0 l 90 0 l 90 875 l 236 875 l 535 229 l 833 875 l 979 875 z "},"Н":{"ha":882,"x_min":90,"x_max":792,"o":"m 90 0 m 792 875 l 792 0 l 625 0 l 625 368 l 257 368 l 257 0 l 90 0 l 90 875 l 257 875 l 257 528 l 625 528 l 625 875 l 792 875 z "},"О":{"ha":931,"x_min":42,"x_max":889,"o":"m 42 0 m 208 438 q 229 323 208 375 q 285 233 250 271 q 366 174 319 194 q 465 153 413 153 q 564 174 517 153 q 646 233 611 194 q 701 323 681 271 q 722 438 722 375 q 701 552 722 500 q 646 642 681 604 q 564 701 611 681 q 465 722 517 722 q 366 701 413 722 q 285 642 319 681 q 229 552 250 604 q 208 438 208 500 m 889 438 q 855 263 889 343 q 763 122 821 182 q 628 27 706 61 q 465 -7 551 -7 q 302 27 379 -7 q 167 122 225 61 q 76 263 110 182 q 42 438 42 343 q 76 612 42 531 q 167 753 110 693 q 302 848 225 814 q 465 882 379 882 q 628 848 551 882 q 763 753 706 814 q 855 612 821 693 q 889 438 889 531 z "},"П":{"ha":889,"x_min":90,"x_max":799,"o":"m 799 875 l 799 0 l 632 0 l 632 715 l 257 715 l 257 0 l 90 0 l 90 875 l 799 875 z "},"Р":{"ha":757,"x_min":90,"x_max":715,"o":"m 90 0 m 417 875 q 533 852 479 875 q 628 790 588 829 q 692 697 669 750 q 715 583 715 643 q 692 470 715 524 q 628 377 669 417 q 533 315 588 338 q 417 292 479 292 l 257 292 l 257 0 l 90 0 l 90 875 l 417 875 m 417 451 q 467 463 443 451 q 508 492 490 474 q 538 533 526 510 q 549 583 549 557 q 538 633 549 610 q 508 675 526 657 q 467 704 490 693 q 417 715 443 715 l 257 715 l 257 451 l 417 451 z "},"С":{"ha":896,"x_min":42,"x_max":861,"o":"m 42 0 m 208 438 q 229 323 208 375 q 285 233 250 271 q 366 174 319 194 q 465 153 413 153 q 546 166 510 153 q 610 201 582 179 q 658 249 639 222 q 688 306 676 276 l 861 306 q 811 186 846 243 q 726 87 776 129 q 609 19 675 44 q 465 -7 543 -7 q 302 27 379 -7 q 167 122 225 61 q 76 263 110 182 q 42 438 42 343 q 76 612 42 531 q 167 753 110 693 q 302 848 225 814 q 465 882 379 882 q 605 856 540 882 q 719 788 669 831 q 804 689 769 746 q 854 569 839 632 l 681 569 q 654 626 672 599 q 609 674 636 653 q 546 709 582 696 q 465 722 510 722 q 366 701 413 722 q 285 642 319 681 q 229 552 250 604 q 208 438 208 500 z "},"Т":{"ha":722,"x_min":21,"x_max":701,"o":"m 21 0 m 21 875 l 701 875 l 701 715 l 444 715 l 444 0 l 278 0 l 278 715 l 21 715 l 21 875 z "},"У":{"ha":743,"x_min":7,"x_max":743,"o":"m 743 875 l 444 208 q 394 109 419 151 q 338 40 368 67 q 274 -1 308 13 q 194 -14 239 -14 q 138 -7 163 -14 q 111 0 124 -4 l 111 146 q 126 142 118 143 q 143 140 133 140 q 167 139 153 139 q 237 162 208 139 q 278 215 265 185 l 292 250 l 7 875 l 181 875 l 382 438 l 576 875 l 743 875 z "},"Ф":{"ha":1014,"x_min":35,"x_max":979,"o":"m 424 646 q 260 585 319 640 q 201 451 201 531 q 260 317 201 372 q 424 257 319 263 l 424 646 m 590 799 q 754 765 682 793 q 876 690 826 736 q 953 583 926 644 q 979 451 979 522 q 953 319 979 381 q 876 213 926 258 q 754 138 826 167 q 590 104 682 110 l 590 -7 l 424 -7 l 424 104 q 260 138 332 110 q 138 213 188 167 q 61 319 88 258 q 35 451 35 381 q 61 583 35 522 q 138 690 88 644 q 260 765 188 736 q 424 799 332 793 l 424 882 l 590 882 l 590 799 m 590 257 q 753 317 694 263 q 813 451 813 372 q 753 585 813 531 q 590 646 694 640 l 590 257 z "},"Х":{"ha":778,"x_min":7,"x_max":771,"o":"m 7 0 m 569 875 l 757 875 l 486 444 l 771 0 l 583 0 l 389 318 l 194 0 l 7 0 l 292 444 l 21 875 l 208 875 l 389 569 l 569 875 z "},"Ц":{"ha":896,"x_min":90,"x_max":868,"o":"m 868 160 l 868 -167 l 701 -167 l 701 0 l 90 0 l 90 875 l 257 875 l 257 160 l 604 160 l 604 875 l 771 875 l 771 160 l 868 160 z "},"Ч":{"ha":840,"x_min":83,"x_max":750,"o":"m 750 875 l 750 0 l 583 0 l 583 304 q 524 276 556 289 q 460 258 496 265 q 382 250 424 250 q 259 272 314 250 q 165 333 204 293 q 105 428 126 372 q 83 556 83 485 l 83 875 l 250 875 l 250 563 q 410 403 250 403 q 478 410 446 403 q 533 426 510 417 q 583 451 560 438 l 583 875 l 750 875 z "},"Ш":{"ha":1194,"x_min":90,"x_max":1104,"o":"m 1104 875 l 1104 0 l 90 0 l 90 875 l 257 875 l 257 160 l 514 160 l 514 875 l 681 875 l 681 160 l 938 160 l 938 875 l 1104 875 z "},"Щ":{"ha":1229,"x_min":90,"x_max":1201,"o":"m 1104 875 l 1104 160 l 1201 160 l 1201 -167 l 1035 -167 l 1035 0 l 90 0 l 90 875 l 257 875 l 257 160 l 514 160 l 514 875 l 681 875 l 681 160 l 938 160 l 938 875 l 1104 875 z "},"Ъ":{"ha":847,"x_min":0,"x_max":813,"o":"m 194 0 l 194 715 l 0 715 l 0 875 l 361 875 l 361 583 l 514 583 q 631 560 576 583 q 726 498 685 538 q 790 405 767 458 q 813 292 813 351 q 790 178 813 232 q 726 85 767 125 q 631 23 685 46 q 514 0 576 0 l 194 0 m 361 424 l 361 160 l 514 160 q 564 171 540 160 q 606 200 588 182 q 635 242 624 218 q 646 292 646 265 q 635 342 646 318 q 606 383 624 365 q 564 413 588 401 q 514 424 540 424 l 361 424 z "},"Ы":{"ha":1049,"x_min":90,"x_max":958,"o":"m 958 0 l 792 0 l 792 875 l 958 875 l 958 0 m 90 0 l 90 875 l 257 875 l 257 583 l 403 583 q 519 560 465 583 q 615 498 574 538 q 678 405 656 458 q 701 292 701 351 q 678 178 701 232 q 615 85 656 125 q 519 23 574 46 q 403 0 465 0 l 90 0 m 257 424 l 257 160 l 403 160 q 453 171 429 160 q 494 200 476 182 q 524 242 513 218 q 535 292 535 265 q 524 342 535 318 q 494 383 513 365 q 453 413 476 401 q 403 424 429 424 l 257 424 z "},"Ь":{"ha":743,"x_min":90,"x_max":708,"o":"m 90 0 l 90 875 l 257 875 l 257 583 l 410 583 q 526 560 472 583 q 622 498 581 538 q 685 405 663 458 q 708 292 708 351 q 685 178 708 232 q 622 85 663 125 q 526 23 581 46 q 410 0 472 0 l 90 0 m 257 424 l 257 160 l 410 160 q 460 171 436 160 q 501 200 483 182 q 531 242 519 218 q 542 292 542 265 q 531 342 542 318 q 501 383 519 365 q 460 413 483 401 q 410 424 436 424 l 257 424 z "},"Э":{"ha":896,"x_min":35,"x_max":854,"o":"m 368 514 l 681 514 q 644 597 668 558 q 589 663 621 635 q 517 706 557 690 q 431 722 478 722 q 350 709 386 722 q 287 676 314 696 q 242 631 260 656 q 215 583 224 607 l 42 583 q 92 694 57 640 q 176 790 126 749 q 291 857 226 832 q 431 882 356 882 q 594 848 517 882 q 728 753 671 814 q 820 612 786 693 q 854 438 854 531 q 820 263 854 343 q 728 122 786 182 q 594 27 671 61 q 431 -7 517 -7 q 287 18 353 -7 q 170 84 221 43 q 85 178 119 125 q 35 285 50 231 l 208 285 q 238 241 218 264 q 285 198 257 218 q 350 165 314 178 q 431 153 386 153 q 517 169 478 153 q 589 213 557 185 q 644 278 621 240 q 681 361 668 317 l 368 361 l 368 514 z "},"Ю":{"ha":1201,"x_min":90,"x_max":1160,"o":"m 757 882 q 910 849 838 882 q 1039 756 983 815 q 1127 615 1094 697 q 1160 438 1160 533 q 1127 260 1160 342 q 1039 119 1094 178 q 910 26 983 60 q 757 -7 838 -7 q 615 21 682 -7 q 497 98 549 49 q 408 213 444 147 q 358 354 372 279 l 257 354 l 257 0 l 90 0 l 90 875 l 257 875 l 257 514 l 361 514 q 406 656 371 589 q 494 774 442 724 q 615 853 547 824 q 757 882 682 882 m 521 438 q 540 319 521 372 q 592 230 560 267 q 667 173 624 193 q 757 153 710 153 q 847 173 804 153 q 922 230 890 193 q 974 319 954 267 q 993 438 993 372 q 974 556 993 503 q 922 645 954 608 q 847 702 890 682 q 757 722 804 722 q 667 702 710 722 q 592 645 624 682 q 540 556 560 608 q 521 438 521 503 z "},"Я":{"ha":778,"x_min":28,"x_max":688,"o":"m 215 0 l 28 0 l 236 347 q 146 406 185 369 q 83 485 111 436 q 56 604 56 533 q 78 708 56 658 q 139 794 100 757 q 231 853 178 832 q 347 875 285 875 l 688 875 l 688 0 l 521 0 l 521 319 l 396 319 l 215 0 m 521 715 l 347 715 q 258 680 294 715 q 222 597 222 644 q 258 515 222 550 q 347 479 294 479 l 521 479 l 521 715 z "},"а":{"ha":660,"x_min":49,"x_max":590,"o":"m 49 0 m 340 646 q 440 627 394 646 q 519 575 486 608 q 572 496 553 542 q 590 396 590 450 l 590 0 l 472 0 l 444 63 q 396 28 422 43 q 339 3 372 14 q 264 -7 306 -7 q 104 44 160 -7 q 49 174 49 94 q 67 260 49 221 q 131 328 86 300 q 248 373 175 357 q 431 389 321 389 q 402 471 431 442 q 326 500 374 500 q 276 489 294 500 q 246 465 257 478 q 229 431 233 450 l 69 431 q 95 514 75 475 q 150 582 115 553 q 233 628 185 611 q 340 646 281 646 m 292 118 q 392 155 354 118 q 431 250 431 192 l 431 278 q 317 272 360 278 q 249 253 274 265 q 217 225 225 242 q 208 188 208 208 q 232 140 208 161 q 292 118 256 118 z "},"б":{"ha":722,"x_min":49,"x_max":681,"o":"m 396 604 q 508 583 456 604 q 598 522 560 561 q 658 426 636 482 q 681 299 681 369 q 657 178 681 233 q 592 81 633 122 q 493 17 550 40 q 368 -7 436 -7 q 242 19 300 -7 q 140 94 183 44 q 73 215 97 143 q 49 382 49 288 q 78 613 49 517 q 172 772 107 710 q 342 866 238 835 q 597 903 446 897 l 597 750 q 416 732 488 747 q 301 688 344 717 q 237 617 257 658 q 208 521 217 575 q 256 563 228 544 q 314 591 279 578 q 396 604 349 604 m 521 299 q 508 357 521 329 q 475 406 496 385 q 426 439 454 426 q 368 451 399 451 q 308 439 336 451 q 260 406 281 426 q 227 357 239 385 q 215 299 215 329 q 227 239 215 267 q 260 190 239 211 q 308 158 281 169 q 368 146 336 146 q 426 158 399 146 q 475 190 454 169 q 508 239 496 211 q 521 299 521 267 z "},"в":{"ha":646,"x_min":76,"x_max":604,"o":"m 514 333 q 558 299 539 319 q 590 251 575 279 q 604 181 604 222 q 590 112 604 144 q 549 54 575 79 q 485 15 522 29 q 406 0 449 0 l 76 0 l 76 639 l 385 639 q 467 626 431 639 q 530 589 504 613 q 569 533 556 565 q 583 465 583 501 q 572 406 583 431 q 549 365 561 382 q 514 333 533 346 m 236 514 l 236 375 l 354 375 q 405 394 386 375 q 424 444 424 413 q 405 495 424 476 q 354 514 386 514 l 236 514 m 375 125 q 426 144 407 125 q 444 194 444 163 q 426 245 444 226 q 375 264 407 264 l 236 264 l 236 125 l 375 125 z "},"г":{"ha":535,"x_min":76,"x_max":514,"o":"m 514 486 l 236 486 l 236 0 l 76 0 l 76 639 l 514 639 l 514 486 z "},"д":{"ha":715,"x_min":0,"x_max":694,"o":"m 694 153 l 694 -139 l 535 -139 l 535 0 l 160 0 l 160 -139 l 0 -139 l 0 153 l 49 153 q 81 176 65 161 q 104 208 93 189 q 118 257 115 228 l 160 639 l 611 639 l 611 153 l 694 153 m 271 257 q 260 208 268 228 q 243 176 251 189 q 222 153 233 161 l 451 153 l 451 486 l 299 486 l 271 257 z "},"е":{"ha":708,"x_min":42,"x_max":667,"o":"m 42 0 m 646 194 q 608 122 633 158 q 545 58 582 86 q 462 11 508 29 q 361 -7 415 -7 q 238 19 296 -7 q 137 89 181 44 q 67 192 93 133 q 42 319 42 251 q 67 447 42 388 q 137 550 93 506 q 238 620 181 594 q 361 646 296 646 q 479 622 424 646 q 576 556 535 599 q 642 452 618 513 q 667 319 667 392 q 665 298 667 308 q 663 278 664 288 q 660 257 661 267 l 215 257 q 263 178 226 210 q 361 146 299 146 q 415 153 393 146 q 451 169 436 160 q 479 194 468 181 l 646 194 m 361 493 q 259 457 299 493 q 208 368 219 421 l 514 368 q 463 457 503 421 q 361 493 424 493 z "},"ж":{"ha":910,"x_min":-7,"x_max":917,"o":"m -7 0 l 229 333 l 14 639 l 194 639 l 375 375 l 375 639 l 535 639 l 535 375 l 715 639 l 896 639 l 681 333 l 917 0 l 736 0 l 535 292 l 535 0 l 375 0 l 375 292 l 174 0 l -7 0 z "},"з":{"ha":576,"x_min":35,"x_max":535,"o":"m 444 326 q 489 290 469 311 q 520 247 506 272 q 535 188 535 221 q 518 113 535 149 q 470 51 501 78 q 394 9 439 25 q 292 -7 349 -7 q 108 50 171 -7 q 35 201 46 107 l 181 201 q 196 163 183 179 q 228 136 207 147 q 285 125 249 125 q 357 147 332 125 q 382 194 382 168 q 360 239 382 221 q 285 257 338 257 l 222 257 l 222 382 l 285 382 q 347 400 326 382 q 368 444 368 418 q 347 495 368 476 q 285 514 326 514 q 234 503 253 514 q 204 479 215 492 q 188 444 192 464 l 42 444 q 115 590 53 533 q 292 646 176 646 q 383 629 342 646 q 456 585 425 613 q 503 523 486 558 q 521 451 521 488 q 509 394 521 417 q 482 356 497 371 q 444 326 465 339 z "},"и":{"ha":736,"x_min":76,"x_max":660,"o":"m 660 639 l 660 0 l 500 0 l 500 403 l 229 0 l 76 0 l 76 639 l 236 639 l 236 236 l 507 639 l 660 639 z "},"й":{"ha":736,"x_min":76,"x_max":660,"o":"m 76 0 m 660 639 l 660 0 l 500 0 l 500 403 l 229 0 l 76 0 l 76 639 l 236 639 l 236 236 l 507 639 l 660 639 m 368 806 q 406 816 392 806 q 429 840 421 826 q 444 875 439 856 l 563 875 q 541 807 557 839 q 499 751 525 775 q 440 715 474 728 q 368 701 407 701 q 296 715 329 701 q 237 751 263 728 q 195 807 211 775 q 174 875 179 839 l 292 875 q 307 840 297 856 q 330 816 315 826 q 368 806 344 806 z "},"к":{"ha":625,"x_min":76,"x_max":639,"o":"m 458 0 l 236 292 l 236 0 l 76 0 l 76 639 l 236 639 l 236 375 l 431 639 l 611 639 l 382 333 l 639 0 l 458 0 z "},"л":{"ha":694,"x_min":0,"x_max":618,"o":"m 618 639 l 618 0 l 458 0 l 458 486 l 285 486 l 264 208 q 200 49 256 104 q 49 -7 144 -7 q 29 -6 38 -7 q 14 -4 21 -6 q 0 0 7 -3 l 0 132 l 21 132 q 84 154 63 132 q 111 229 106 176 l 146 639 l 618 639 z "},"м":{"ha":861,"x_min":76,"x_max":785,"o":"m 389 0 l 236 326 l 236 0 l 76 0 l 76 639 l 229 639 l 431 208 l 632 639 l 785 639 l 785 0 l 625 0 l 625 326 l 472 0 l 389 0 z "},"н":{"ha":729,"x_min":76,"x_max":653,"o":"m 653 639 l 653 0 l 493 0 l 493 250 l 236 250 l 236 0 l 76 0 l 76 639 l 236 639 l 236 403 l 493 403 l 493 639 l 653 639 z "},"о":{"ha":722,"x_min":42,"x_max":681,"o":"m 42 0 m 201 319 q 247 193 201 240 q 361 146 293 146 q 475 193 429 146 q 521 319 521 240 q 475 446 521 399 q 361 493 429 493 q 247 446 293 493 q 201 319 201 399 m 681 319 q 655 192 681 251 q 585 89 629 133 q 484 19 542 44 q 361 -7 426 -7 q 238 19 296 -7 q 137 89 181 44 q 67 192 93 133 q 42 319 42 251 q 67 447 42 388 q 137 550 93 506 q 238 620 181 594 q 361 646 296 646 q 484 620 426 646 q 585 550 542 594 q 655 447 629 506 q 681 319 681 388 z "},"п":{"ha":729,"x_min":76,"x_max":653,"o":"m 653 639 l 653 0 l 493 0 l 493 486 l 236 486 l 236 0 l 76 0 l 76 639 l 653 639 z "},"р":{"ha":743,"x_min":76,"x_max":701,"o":"m 76 0 m 403 646 q 517 622 463 646 q 612 553 571 597 q 677 450 653 510 q 701 319 701 390 q 677 189 701 249 q 612 85 653 129 q 517 17 571 42 q 403 -7 463 -7 q 333 3 363 -7 q 281 24 303 13 q 236 56 256 38 l 236 -222 l 76 -222 l 76 639 l 194 639 l 222 576 q 271 611 243 596 q 328 635 294 624 q 403 646 361 646 m 222 319 q 268 193 222 240 q 382 146 314 146 q 496 193 450 146 q 542 319 542 240 q 496 446 542 399 q 382 493 450 493 q 268 446 314 493 q 222 319 222 399 z "},"с":{"ha":694,"x_min":42,"x_max":660,"o":"m 42 0 m 660 236 q 622 145 649 189 q 557 67 596 101 q 468 13 518 33 q 361 -7 418 -7 q 238 19 296 -7 q 137 89 181 44 q 67 192 93 133 q 42 319 42 251 q 67 447 42 388 q 137 550 93 506 q 238 620 181 594 q 361 646 296 646 q 468 626 418 646 q 557 572 518 606 q 622 494 596 538 q 660 403 649 450 l 500 403 q 469 447 489 428 q 426 478 453 464 q 361 493 400 493 q 247 446 293 493 q 201 319 201 399 q 247 193 201 240 q 361 146 293 146 q 426 160 400 146 q 469 190 453 174 q 500 236 489 210 l 660 236 z "},"т":{"ha":576,"x_min":21,"x_max":556,"o":"m 21 639 l 556 639 l 556 486 l 368 486 l 368 0 l 208 0 l 208 486 l 21 486 l 21 639 z "},"у":{"ha":653,"x_min":7,"x_max":646,"o":"m 7 0 m 7 639 l 174 639 l 333 222 l 479 639 l 646 639 q 522 322 578 464 q 476 203 499 261 q 435 97 453 144 q 404 17 417 49 q 389 -21 392 -15 q 342 -117 365 -78 q 293 -182 319 -157 q 236 -218 267 -207 q 167 -229 206 -229 q 145 -228 156 -229 q 128 -226 135 -228 q 111 -222 118 -225 l 111 -90 q 192 -67 164 -90 q 236 -7 221 -43 l 250 28 l 7 639 z "},"ф":{"ha":1049,"x_min":42,"x_max":1007,"o":"m 444 875 l 604 875 l 604 604 q 642 625 621 615 q 683 639 660 632 q 736 646 707 646 q 840 623 790 646 q 926 558 889 600 q 985 455 964 515 q 1007 319 1007 394 q 985 184 1007 244 q 926 81 964 124 q 840 16 889 39 q 736 -7 790 -7 q 683 -1 707 -7 q 642 14 660 6 q 604 35 621 22 l 604 -222 l 444 -222 l 444 35 q 407 14 428 22 q 365 -1 389 6 q 313 -7 340 -7 q 209 16 258 -7 q 122 81 160 39 q 63 184 85 124 q 42 319 42 244 q 63 455 42 394 q 122 558 85 515 q 209 623 160 600 q 313 646 258 646 q 365 639 340 646 q 407 625 389 632 q 444 604 428 615 l 444 875 m 604 188 q 633 167 618 175 q 666 152 647 158 q 708 146 685 146 q 807 191 767 146 q 847 319 847 236 q 807 448 847 403 q 708 493 767 493 q 666 486 685 493 q 633 472 647 479 q 604 451 618 463 l 604 188 m 444 451 q 415 472 431 463 q 383 486 401 479 q 340 493 364 493 q 242 448 282 493 q 201 319 201 403 q 242 191 201 236 q 340 146 282 146 q 382 152 363 146 q 415 167 401 158 q 444 188 431 175 l 444 451 z "},"х":{"ha":611,"x_min":-7,"x_max":618,"o":"m 0 0 m 167 0 l -7 0 l 208 326 l 7 639 l 181 639 l 306 438 l 431 639 l 604 639 l 403 326 l 618 0 l 444 0 l 306 215 l 167 0 z "},"ц":{"ha":743,"x_min":76,"x_max":722,"o":"m 722 153 l 722 -139 l 563 -139 l 563 0 l 76 0 l 76 639 l 236 639 l 236 153 l 479 153 l 479 639 l 639 639 l 639 153 l 722 153 z "},"ч":{"ha":694,"x_min":63,"x_max":618,"o":"m 618 639 l 618 0 l 458 0 l 458 208 q 408 188 435 196 q 355 173 385 179 q 292 167 325 167 q 200 184 242 167 q 128 233 158 201 q 80 310 97 265 q 63 410 63 356 l 63 639 l 222 639 l 222 431 q 251 349 222 378 q 333 319 281 319 q 383 326 360 319 q 422 340 406 332 q 458 361 442 349 l 458 639 l 618 639 z "},"ш":{"ha":979,"x_min":76,"x_max":903,"o":"m 903 0 l 76 0 l 76 639 l 236 639 l 236 153 l 410 153 l 410 639 l 569 639 l 569 153 l 743 153 l 743 639 l 903 639 l 903 0 z "},"щ":{"ha":1007,"x_min":76,"x_max":986,"o":"m 826 -139 l 826 0 l 76 0 l 76 639 l 236 639 l 236 153 l 410 153 l 410 639 l 569 639 l 569 153 l 743 153 l 743 639 l 903 639 l 903 153 l 986 153 l 986 -139 l 826 -139 z "},"ъ":{"ha":694,"x_min":7,"x_max":667,"o":"m 444 431 q 532 413 492 431 q 602 367 572 396 q 649 299 632 338 q 667 215 667 260 q 649 132 667 171 q 602 64 632 93 q 532 17 572 35 q 444 0 492 0 l 146 0 l 146 486 l 7 486 l 7 639 l 306 639 l 306 431 l 444 431 m 424 139 q 483 161 460 139 q 507 215 507 183 q 483 269 507 247 q 424 292 460 292 l 306 292 l 306 139 l 424 139 z "},"ы":{"ha":882,"x_min":76,"x_max":806,"o":"m 806 639 l 806 0 l 646 0 l 646 639 l 806 639 m 361 431 q 449 413 408 431 q 519 367 489 396 q 566 299 549 338 q 583 215 583 260 q 566 132 583 171 q 519 64 549 93 q 449 17 489 35 q 361 0 408 0 l 76 0 l 76 639 l 236 639 l 236 431 l 361 431 m 340 139 q 400 161 376 139 q 424 215 424 183 q 400 269 424 247 q 340 292 376 292 l 236 292 l 236 139 l 340 139 z "},"ь":{"ha":625,"x_min":76,"x_max":597,"o":"m 375 431 q 463 413 422 431 q 533 367 503 396 q 580 299 563 338 q 597 215 597 260 q 580 132 597 171 q 533 64 563 93 q 463 17 503 35 q 375 0 422 0 l 76 0 l 76 639 l 236 639 l 236 431 l 375 431 m 354 139 q 414 161 390 139 q 438 215 438 183 q 414 269 438 247 q 354 292 390 292 l 236 292 l 236 139 l 354 139 z "},"э":{"ha":688,"x_min":35,"x_max":646,"o":"m 326 646 q 449 620 392 646 q 551 550 507 594 q 620 447 594 506 q 646 319 646 388 q 620 192 646 251 q 551 89 594 133 q 449 19 507 44 q 326 -7 392 -7 q 219 13 269 -7 q 131 67 169 33 q 68 142 93 100 q 35 229 43 185 l 194 229 q 221 188 204 206 q 261 159 236 172 q 326 146 286 146 q 403 164 374 146 q 450 204 433 182 q 479 264 469 229 l 285 264 l 285 375 l 479 375 q 450 433 469 408 q 403 474 433 456 q 326 493 374 493 q 261 480 286 493 q 221 451 236 467 q 194 410 204 433 l 35 410 q 68 497 43 454 q 131 572 93 539 q 219 626 169 606 q 326 646 269 646 z "},"ю":{"ha":958,"x_min":76,"x_max":917,"o":"m 611 646 q 729 622 674 646 q 826 553 785 597 q 892 450 868 510 q 917 319 917 390 q 892 189 917 249 q 826 85 868 129 q 729 17 785 42 q 611 -7 674 -7 q 504 14 554 -7 q 415 69 454 35 q 349 148 376 103 q 313 243 322 193 l 236 243 l 236 0 l 76 0 l 76 639 l 236 639 l 236 382 l 313 382 q 349 485 322 436 q 415 569 376 533 q 504 625 454 604 q 611 646 554 646 m 611 146 q 667 158 640 146 q 713 194 693 171 q 745 249 733 217 q 757 319 757 281 q 745 390 757 358 q 713 445 733 422 q 667 481 693 468 q 611 493 640 493 q 556 481 582 493 q 509 445 529 468 q 477 390 489 422 q 465 319 465 358 q 477 249 465 281 q 509 194 489 217 q 556 158 529 171 q 611 146 582 146 z "},"я":{"ha":660,"x_min":28,"x_max":583,"o":"m 583 639 l 583 0 l 424 0 l 424 208 l 333 208 l 201 0 l 28 0 l 174 229 q 114 274 139 246 q 74 334 92 297 q 56 424 56 371 q 73 507 56 468 q 121 575 90 546 q 193 622 151 604 q 285 639 235 639 l 583 639 m 299 500 q 239 478 263 500 q 215 424 215 456 q 239 369 215 392 q 299 347 263 347 l 431 347 l 431 500 l 299 500 z "},"ё":{"ha":708,"x_min":42,"x_max":667,"o":"m 42 0 m 646 194 q 608 122 633 158 q 545 58 582 86 q 462 11 508 29 q 361 -7 415 -7 q 238 19 296 -7 q 137 89 181 44 q 67 192 93 133 q 42 319 42 251 q 67 447 42 388 q 137 550 93 506 q 238 620 181 594 q 361 646 296 646 q 479 622 424 646 q 576 556 535 599 q 642 452 618 513 q 667 319 667 392 q 665 298 667 308 q 663 278 664 288 q 660 257 661 267 l 215 257 q 263 178 226 210 q 361 146 299 146 q 415 153 393 146 q 451 169 436 160 q 479 194 468 181 l 646 194 m 361 493 q 259 457 299 493 q 208 368 219 421 l 514 368 q 463 457 503 421 q 361 493 424 493 m 326 799 q 299 735 326 763 q 236 708 272 708 q 173 735 200 708 q 146 799 146 763 q 173 862 146 835 q 236 889 200 889 q 299 862 272 889 q 326 799 326 835 m 576 799 q 549 735 576 763 q 486 708 522 708 q 423 735 450 708 q 396 799 396 763 q 423 862 396 835 q 486 889 450 889 q 549 862 522 889 q 576 799 576 835 z "},"ђ":{"ha":728,"x_min":0,"x_max":686,"o":"m 0 778 l 96 778 l 96 875 l 256 875 l 256 778 l 417 778 l 417 646 l 256 646 l 256 507 q 299 542 274 526 q 355 565 321 554 q 436 576 389 576 q 536 557 490 576 q 615 499 582 538 q 667 401 649 460 q 686 264 686 342 q 663 120 686 183 q 599 13 640 57 q 498 -53 557 -31 q 367 -76 439 -76 l 367 69 q 474 119 429 69 q 519 264 519 169 q 483 383 519 343 q 388 424 446 424 q 292 385 329 424 q 256 285 256 347 l 256 0 l 96 0 l 96 646 l 0 646 l 0 778 z "},"ѓ":{"ha":535,"x_min":76,"x_max":514,"o":"m 76 0 m 319 889 l 472 889 l 347 715 l 229 715 l 319 889 m 514 486 l 236 486 l 236 0 l 76 0 l 76 639 l 514 639 l 514 486 z "},"є":{"ha":688,"x_min":42,"x_max":653,"o":"m 361 646 q 468 626 418 646 q 556 572 518 606 q 619 497 594 539 q 653 410 644 454 l 493 410 q 467 451 483 433 q 426 480 451 467 q 361 493 400 493 q 284 474 314 493 q 238 433 254 456 q 208 375 218 408 l 403 375 l 403 264 l 208 264 q 238 204 218 229 q 284 164 254 182 q 361 146 314 146 q 426 159 400 146 q 467 188 451 172 q 493 229 483 206 l 653 229 q 619 142 644 185 q 556 67 594 100 q 468 13 518 33 q 361 -7 418 -7 q 238 19 296 -7 q 137 89 181 44 q 67 192 93 133 q 42 319 42 251 q 67 447 42 388 q 137 550 93 506 q 238 620 181 594 q 361 646 296 646 z "},"ѕ":{"ha":583,"x_min":42,"x_max":542,"o":"m 42 0 m 194 201 q 225 147 200 169 q 292 125 250 125 q 358 147 333 125 q 382 194 382 168 q 358 229 382 217 q 297 252 333 242 q 219 274 261 263 q 140 306 176 285 q 80 362 104 328 q 56 451 56 396 q 72 526 56 490 q 118 588 88 561 q 190 630 149 614 q 285 646 232 646 q 462 590 400 646 q 535 451 524 535 l 382 451 q 352 493 376 472 q 292 514 328 514 q 235 496 256 514 q 215 451 215 478 q 240 417 215 429 q 300 394 264 404 q 378 372 336 383 q 457 338 421 360 q 517 280 493 315 q 542 188 542 244 q 525 113 542 149 q 478 51 508 78 q 403 9 447 25 q 306 -7 360 -7 q 116 50 181 -7 q 42 201 51 107 l 194 201 z "},"і":{"ha":313,"x_min":69,"x_max":250,"o":"m 69 0 m 236 0 l 76 0 l 76 639 l 236 639 l 236 0 m 160 722 q 97 749 124 722 q 69 813 69 776 q 97 876 69 849 q 160 903 124 903 q 223 876 196 903 q 250 813 250 849 q 223 749 250 776 q 160 722 196 722 z "},"ї":{"ha":313,"x_min":-56,"x_max":375,"o":"m 0 0 m 125 799 q 98 735 125 763 q 35 708 71 708 q -28 735 -1 708 q -56 799 -56 763 q -28 862 -56 835 q 35 889 -1 889 q 98 862 71 889 q 125 799 125 835 m 375 799 q 348 735 375 763 q 285 708 321 708 q 222 735 249 708 q 194 799 194 763 q 222 862 194 835 q 285 889 249 889 q 348 862 321 889 q 375 799 375 835 m 236 0 l 76 0 l 76 639 l 236 639 l 236 0 z "},"ј":{"ha":313,"x_min":-56,"x_max":250,"o":"m 0 0 m 236 0 q 220 -94 236 -53 q 176 -167 204 -136 q 108 -213 147 -197 q 21 -229 68 -229 q -33 -222 -10 -229 q -56 -215 -46 -219 l -56 -76 q -46 -81 -51 -79 q -14 -83 -32 -83 q 52 -59 28 -83 q 76 7 76 -35 l 76 639 l 236 639 l 236 0 m 160 722 q 97 749 124 722 q 69 813 69 776 q 97 876 69 849 q 160 903 124 903 q 223 876 196 903 q 250 813 250 849 q 223 749 250 776 q 160 722 196 722 z "},"љ":{"ha":972,"x_min":0,"x_max":944,"o":"m 722 417 q 810 400 769 417 q 880 354 850 383 q 927 288 910 325 q 944 208 944 250 q 927 129 944 167 q 880 63 910 92 q 810 17 850 33 q 722 0 769 0 l 431 0 l 431 486 l 285 486 l 264 208 q 200 49 256 104 q 49 -7 144 -7 q 29 -6 38 -7 q 14 -4 21 -6 q 0 0 7 -3 l 0 132 l 21 132 q 84 154 63 132 q 111 229 106 176 l 146 639 l 590 639 l 590 417 l 722 417 m 701 139 q 761 160 738 139 q 785 208 785 182 q 761 256 785 235 q 701 278 738 278 l 590 278 l 590 139 l 701 139 z "},"њ":{"ha":1007,"x_min":76,"x_max":979,"o":"m 757 417 q 844 400 804 417 q 915 354 885 383 q 962 288 944 325 q 979 208 979 250 q 962 129 979 167 q 915 63 944 92 q 844 17 885 33 q 757 0 804 0 l 465 0 l 465 264 l 236 264 l 236 0 l 76 0 l 76 639 l 236 639 l 236 417 l 465 417 l 465 639 l 625 639 l 625 417 l 757 417 m 736 139 q 796 160 772 139 q 819 208 819 182 q 796 256 819 235 q 736 278 772 278 l 625 278 l 625 139 l 736 139 z "},"ћ":{"ha":749,"x_min":0,"x_max":679,"o":"m 0 778 l 96 778 l 96 875 l 256 875 l 256 778 l 417 778 l 417 646 l 256 646 l 256 507 q 299 542 274 526 q 355 565 321 554 q 436 576 389 576 q 533 558 488 576 q 610 503 578 539 q 660 418 642 468 q 679 306 679 368 l 679 0 l 519 0 l 519 285 q 483 385 519 347 q 388 424 446 424 q 292 385 329 424 q 256 285 256 347 l 256 0 l 96 0 l 96 646 l 0 646 l 0 778 z "},"ќ":{"ha":625,"x_min":76,"x_max":639,"o":"m 76 0 m 347 889 l 500 889 l 375 715 l 257 715 l 347 889 m 458 0 l 236 292 l 236 0 l 76 0 l 76 639 l 236 639 l 236 375 l 431 639 l 611 639 l 382 333 l 639 0 l 458 0 z "},"ў":{"ha":653,"x_min":7,"x_max":646,"o":"m 7 0 m 7 639 l 174 639 l 333 222 l 479 639 l 646 639 q 522 322 578 464 q 476 203 499 261 q 435 97 453 144 q 404 17 417 49 q 389 -21 392 -15 q 342 -117 365 -78 q 293 -182 319 -157 q 236 -218 267 -207 q 167 -229 206 -229 q 145 -228 156 -229 q 128 -226 135 -228 q 111 -222 118 -225 l 111 -90 q 192 -67 164 -90 q 236 -7 221 -43 l 250 28 l 7 639 m 326 806 q 365 816 350 806 q 388 840 379 826 q 403 875 397 856 l 521 875 q 499 807 515 839 q 458 751 483 775 q 399 715 432 728 q 326 701 365 701 q 254 715 288 701 q 195 751 221 728 q 153 807 169 775 q 132 875 138 839 l 250 875 q 265 840 256 856 q 288 816 274 826 q 326 806 303 806 z "},"џ":{"ha":722,"x_min":76,"x_max":646,"o":"m 646 0 l 438 0 l 438 -139 l 285 -139 l 285 0 l 76 0 l 76 639 l 236 639 l 236 153 l 486 153 l 486 639 l 646 639 l 646 0 z "},"Ґ":{"ha":660,"x_min":90,"x_max":639,"o":"m 257 715 l 257 0 l 90 0 l 90 875 l 472 875 l 472 1035 l 639 1035 l 639 715 l 257 715 z "},"ґ":{"ha":535,"x_min":76,"x_max":514,"o":"m 514 486 l 236 486 l 236 0 l 76 0 l 76 639 l 354 639 l 354 764 l 514 764 l 514 486 z "},"ẞ":{"ha":854,"x_min":90,"x_max":806,"o":"m 90 0 m 757 722 l 604 514 q 704 469 660 501 q 774 393 742 442 q 806 264 806 344 q 785 158 806 207 q 729 74 765 110 q 642 19 693 39 q 528 0 590 0 l 431 0 l 431 153 l 521 153 q 600 185 568 153 q 632 271 632 218 q 600 356 632 324 q 521 389 568 389 l 431 389 l 431 507 l 576 708 l 375 708 q 296 676 328 708 q 264 597 264 644 l 264 0 l 90 0 l 90 597 q 111 708 90 657 q 170 796 132 758 q 260 854 208 833 q 375 875 313 875 l 757 875 l 757 722 z "},"–":{"ha":681,"x_min":49,"x_max":632,"o":"m 632 285 l 49 285 l 49 424 l 632 424 l 632 285 z "},"—":{"ha":1021,"x_min":49,"x_max":972,"o":"m 972 285 l 49 285 l 49 424 l 972 424 l 972 285 z "},"‘":{"ha":278,"x_min":49,"x_max":229,"o":"m 139 590 q 76 618 103 590 q 49 688 49 646 q 68 789 49 747 q 111 856 88 831 q 174 903 138 885 l 201 868 q 172 843 186 858 q 151 813 161 831 q 139 771 142 794 q 202 744 175 771 q 229 681 229 717 q 202 617 229 644 q 139 590 175 590 z "},"’":{"ha":278,"x_min":49,"x_max":229,"o":"m 139 903 q 202 875 175 903 q 229 806 229 847 q 210 703 229 744 q 167 638 190 663 q 104 590 139 608 l 76 625 q 106 650 92 635 q 126 681 117 663 q 139 722 136 699 q 76 749 103 722 q 49 813 49 776 q 76 876 49 849 q 139 903 103 903 z "},"‚":{"ha":278,"x_min":49,"x_max":229,"o":"m 139 174 q 202 146 175 174 q 229 76 229 118 q 210 -26 229 15 q 167 -92 190 -67 q 104 -139 139 -121 l 76 -104 q 106 -79 92 -94 q 126 -49 117 -67 q 139 -7 136 -31 q 76 20 103 -7 q 49 83 49 47 q 76 147 49 119 q 139 174 103 174 z "},"“":{"ha":507,"x_min":49,"x_max":458,"o":"m 368 590 q 305 618 332 590 q 278 688 278 646 q 297 789 278 747 q 340 856 317 831 q 403 903 367 885 l 431 868 q 401 843 415 858 q 381 813 390 831 q 368 771 371 794 q 431 744 404 771 q 458 681 458 717 q 431 617 458 644 q 368 590 404 590 m 139 590 q 76 618 103 590 q 49 688 49 646 q 68 789 49 747 q 111 856 88 831 q 174 903 138 885 l 201 868 q 172 843 186 858 q 151 813 161 831 q 139 771 142 794 q 202 744 175 771 q 229 681 229 717 q 202 617 229 644 q 139 590 175 590 z "},"”":{"ha":507,"x_min":49,"x_max":458,"o":"m 139 903 q 202 875 175 903 q 229 806 229 847 q 210 703 229 744 q 167 638 190 663 q 104 590 139 608 l 76 625 q 106 650 92 635 q 126 681 117 663 q 139 722 136 699 q 76 749 103 722 q 49 813 49 776 q 76 876 49 849 q 139 903 103 903 m 368 903 q 431 875 404 903 q 458 806 458 847 q 439 703 458 744 q 396 638 419 663 q 333 590 368 608 l 306 625 q 335 650 321 635 q 356 681 346 663 q 368 722 365 699 q 305 749 332 722 q 278 813 278 776 q 305 876 278 849 q 368 903 332 903 z "},"„":{"ha":507,"x_min":49,"x_max":458,"o":"m 139 174 q 202 146 175 174 q 229 76 229 118 q 210 -26 229 15 q 167 -92 190 -67 q 104 -139 139 -121 l 76 -104 q 106 -79 92 -94 q 126 -49 117 -67 q 139 -7 136 -31 q 76 20 103 -7 q 49 83 49 47 q 76 147 49 119 q 139 174 103 174 m 368 174 q 431 146 404 174 q 458 76 458 118 q 439 -26 458 15 q 396 -92 419 -67 q 333 -139 368 -121 l 306 -104 q 335 -79 321 -94 q 356 -49 346 -67 q 368 -7 365 -31 q 305 20 332 -7 q 278 83 278 47 q 305 147 278 119 q 368 174 332 174 z "},"†":{"ha":521,"x_min":49,"x_max":472,"o":"m 472 590 l 326 590 l 326 236 l 194 236 l 194 590 l 49 590 l 49 715 l 194 715 l 194 875 l 326 875 l 326 715 l 472 715 l 472 590 z "},"‡":{"ha":521,"x_min":49,"x_max":472,"o":"m 49 729 l 194 729 l 194 875 l 326 875 l 326 729 l 472 729 l 472 611 l 326 611 l 326 500 l 472 500 l 472 382 l 326 382 l 326 236 l 194 236 l 194 382 l 49 382 l 49 500 l 194 500 l 194 611 l 49 611 l 49 729 z "},"•":{"ha":528,"x_min":125,"x_max":403,"o":"m 403 375 q 363 276 403 317 q 264 236 322 236 q 165 276 206 236 q 125 375 125 317 q 165 474 125 433 q 264 514 206 514 q 363 474 322 514 q 403 375 403 433 z "},"…":{"ha":833,"x_min":49,"x_max":785,"o":"m 229 83 q 202 20 229 47 q 139 -7 175 -7 q 76 20 103 -7 q 49 83 49 47 q 76 147 49 119 q 139 174 103 174 q 202 147 175 174 q 229 83 229 119 m 507 83 q 480 20 507 47 q 417 -7 453 -7 q 353 20 381 -7 q 326 83 326 47 q 353 147 326 119 q 417 174 381 174 q 480 147 453 174 q 507 83 507 119 m 785 83 q 758 20 785 47 q 694 -7 731 -7 q 631 20 658 -7 q 604 83 604 47 q 631 147 604 119 q 694 174 658 174 q 758 147 731 174 q 785 83 785 119 z "},"‰":{"ha":1306,"x_min":42,"x_max":1264,"o":"m 111 0 l 646 875 l 778 875 l 243 0 l 111 0 m 153 688 q 175 628 153 651 q 229 604 197 604 q 283 628 261 604 q 306 688 306 651 q 283 747 306 724 q 229 771 261 771 q 175 747 197 771 q 153 688 153 724 m 417 688 q 402 615 417 649 q 362 555 388 581 q 302 515 336 529 q 229 500 268 500 q 156 515 190 500 q 97 555 122 529 q 56 615 71 581 q 42 688 42 649 q 56 760 42 726 q 97 820 71 794 q 156 860 122 846 q 229 875 190 875 q 302 860 268 875 q 362 820 336 846 q 402 760 388 794 q 417 688 417 726 m 583 188 q 606 128 583 151 q 660 104 628 104 q 714 128 692 104 q 736 188 736 151 q 714 247 736 224 q 660 271 692 271 q 606 247 628 271 q 583 188 583 224 m 847 188 q 833 115 847 149 q 792 55 818 81 q 733 15 767 29 q 660 0 699 0 q 587 15 621 0 q 527 55 553 29 q 487 115 501 81 q 472 188 472 149 q 487 260 472 226 q 527 320 501 294 q 587 360 553 346 q 660 375 621 375 q 733 360 699 375 q 792 320 767 346 q 833 260 818 294 q 847 188 847 226 m 1000 188 q 1022 128 1000 151 q 1076 104 1044 104 q 1131 128 1108 104 q 1153 188 1153 151 q 1131 247 1153 224 q 1076 271 1108 271 q 1022 247 1044 271 q 1000 188 1000 224 m 1264 188 q 1249 115 1264 149 q 1209 55 1235 81 q 1149 15 1183 29 q 1076 0 1115 0 q 1003 15 1038 0 q 944 55 969 29 q 903 115 918 81 q 889 188 889 149 q 903 260 889 226 q 944 320 918 294 q 1003 360 969 346 q 1076 375 1038 375 q 1149 360 1115 375 q 1209 320 1183 346 q 1249 260 1235 294 q 1264 188 1264 226 z "},"‹":{"ha":389,"x_min":42,"x_max":347,"o":"m 347 90 l 194 90 l 42 313 l 194 535 l 347 535 l 194 313 l 347 90 z "},"›":{"ha":389,"x_min":42,"x_max":347,"o":"m 42 535 l 194 535 l 347 313 l 194 90 l 42 90 l 194 313 l 42 535 z "},"⁄":{"ha":153,"x_min":-257,"x_max":410,"o":"m -257 0 l 278 875 l 410 875 l -125 0 l -257 0 z "},"⁰":{"ha":431,"x_min":42,"x_max":389,"o":"m 146 792 q 167 701 146 729 q 215 674 189 674 q 263 701 242 674 q 285 792 285 729 q 263 882 285 854 q 215 910 242 910 q 167 882 189 910 q 146 792 146 854 m 389 792 q 339 632 389 688 q 215 576 289 576 q 92 632 142 576 q 42 792 42 688 q 92 951 42 896 q 215 1007 142 1007 q 339 951 289 1007 q 389 792 389 896 z "},"⁴":{"ha":375,"x_min":0,"x_max":333,"o":"m 285 757 l 333 757 l 333 660 l 285 660 l 285 583 l 181 583 l 181 660 l 0 660 l 0 736 l 167 1000 l 285 1000 l 285 757 m 181 757 l 181 875 l 104 757 l 181 757 z "},"⁵":{"ha":396,"x_min":42,"x_max":354,"o":"m 222 868 q 272 857 249 868 q 314 827 296 846 q 343 783 332 808 q 354 729 354 758 q 342 669 354 697 q 308 621 329 642 q 260 588 288 600 q 201 576 232 576 q 117 597 149 576 q 69 642 86 617 q 42 708 50 671 l 146 708 q 158 688 151 696 q 176 673 165 679 q 201 667 186 667 q 240 685 222 667 q 257 729 257 703 q 240 774 257 756 q 201 792 222 792 q 176 785 186 792 q 158 771 165 778 q 146 750 151 761 l 56 750 l 83 1000 l 326 1000 l 326 903 l 167 903 l 160 854 q 175 861 165 857 q 194 866 182 864 q 222 868 207 868 z "},"⁶":{"ha":396,"x_min":42,"x_max":361,"o":"m 215 875 q 271 863 244 875 q 317 831 297 851 q 349 785 338 811 q 361 729 361 758 q 349 669 361 697 q 315 621 336 642 q 264 588 293 600 q 201 576 235 576 q 139 588 168 576 q 88 621 110 600 q 54 669 67 642 q 42 729 42 697 q 51 781 42 756 q 72 828 61 807 q 104 875 86 853 l 194 1000 l 306 1000 l 215 875 m 139 729 q 157 685 139 703 q 201 667 175 667 q 246 685 228 667 q 264 729 264 703 q 246 774 264 756 q 201 792 228 792 q 157 774 175 792 q 139 729 139 756 z "},"⁷":{"ha":340,"x_min":56,"x_max":340,"o":"m 56 1000 l 340 1000 l 340 924 l 188 583 l 76 583 l 222 903 l 56 903 l 56 1000 z "},"⁸":{"ha":403,"x_min":42,"x_max":361,"o":"m 201 924 q 173 910 186 924 q 160 882 160 897 q 173 853 160 867 q 201 840 186 840 q 230 853 217 840 q 243 882 243 867 q 230 910 243 897 q 201 924 217 924 m 201 576 q 85 616 128 576 q 42 708 42 656 q 50 749 42 732 q 69 776 58 765 q 97 799 82 790 q 76 819 85 807 q 62 846 68 831 q 56 882 56 861 q 94 971 56 935 q 201 1007 133 1007 q 308 971 269 1007 q 347 882 347 935 q 340 846 347 861 q 326 819 333 831 q 306 799 317 807 q 333 776 321 790 q 353 749 344 765 q 361 708 361 732 q 318 616 361 656 q 201 576 275 576 m 201 757 q 167 743 181 757 q 153 708 153 729 q 167 674 153 688 q 201 660 181 660 q 236 674 222 660 q 250 708 250 688 q 236 743 250 729 q 201 757 222 757 z "},"⁹":{"ha":396,"x_min":35,"x_max":354,"o":"m 181 708 q 125 720 151 708 q 78 752 99 732 q 47 799 58 772 q 35 854 35 825 q 47 913 35 885 q 81 961 60 940 q 132 994 103 982 q 194 1007 161 1007 q 257 994 228 1007 q 308 961 286 982 q 342 913 329 940 q 354 854 354 885 q 344 802 354 828 q 322 756 333 776 q 292 708 308 731 l 201 583 l 90 583 l 181 708 m 257 854 q 239 899 257 881 q 194 917 221 917 q 150 899 168 917 q 132 854 132 881 q 150 810 132 828 q 194 792 168 792 q 239 810 221 792 q 257 854 257 828 z "},"₀":{"ha":431,"x_min":42,"x_max":389,"o":"m 42 0 m 146 76 q 167 -14 146 14 q 215 -42 189 -42 q 263 -14 242 -42 q 285 76 285 14 q 263 167 285 139 q 215 194 242 194 q 167 167 189 194 q 146 76 146 139 m 389 76 q 339 -83 389 -28 q 215 -139 289 -139 q 92 -83 142 -139 q 42 76 42 -28 q 92 236 42 181 q 215 292 142 292 q 339 236 289 292 q 389 76 389 181 z "},"₁":{"ha":333,"x_min":28,"x_max":229,"o":"m 28 0 m 28 201 l 160 285 l 229 285 l 229 -132 l 125 -132 l 125 153 l 76 125 l 28 201 z "},"₂":{"ha":396,"x_min":42,"x_max":354,"o":"m 42 0 m 201 -35 l 347 -35 l 347 -132 l 49 -132 l 49 -56 q 84 -23 64 -42 q 124 15 104 -4 q 160 49 143 33 q 188 76 176 65 q 203 91 193 82 q 222 111 213 100 q 237 135 231 122 q 243 160 243 147 q 229 188 243 175 q 194 201 215 201 q 163 193 174 201 q 146 174 151 185 q 139 146 140 161 l 42 146 q 90 253 47 214 q 201 292 133 292 q 315 255 275 292 q 354 160 354 218 q 349 126 354 142 q 336 99 343 111 q 322 80 329 88 q 313 69 315 72 l 201 -35 z "},"₃":{"ha":410,"x_min":42,"x_max":368,"o":"m 42 0 m 313 83 q 340 61 328 75 q 360 33 351 50 q 368 -7 368 17 q 325 -99 368 -60 q 208 -139 282 -139 q 91 -97 135 -139 q 42 7 47 -56 l 146 7 q 154 -21 147 -8 q 173 -40 161 -32 q 208 -49 185 -49 q 249 -35 235 -49 q 264 0 264 -21 q 249 28 264 15 q 208 42 235 42 l 163 42 l 163 125 l 201 125 q 236 135 222 125 q 250 160 250 144 q 236 188 250 175 q 201 201 222 201 q 172 194 182 201 q 156 176 163 186 q 146 153 149 165 l 49 153 q 97 251 54 211 q 208 292 140 292 q 315 256 276 292 q 354 167 354 219 q 347 131 354 146 q 333 104 340 115 q 313 83 324 92 z "},"₄":{"ha":375,"x_min":0,"x_max":333,"o":"m 0 0 m 285 42 l 333 42 l 333 -56 l 285 -56 l 285 -132 l 181 -132 l 181 -56 l 0 -56 l 0 21 l 167 285 l 285 285 l 285 42 m 181 42 l 181 160 l 104 42 l 181 42 z "},"₅":{"ha":396,"x_min":42,"x_max":354,"o":"m 42 0 m 222 153 q 272 142 249 153 q 314 112 296 131 q 343 68 332 93 q 354 14 354 43 q 342 -46 354 -18 q 308 -94 329 -74 q 260 -127 288 -115 q 201 -139 232 -139 q 117 -119 149 -139 q 69 -74 86 -99 q 42 -7 50 -44 l 146 -7 q 158 -28 151 -19 q 176 -42 165 -36 q 201 -49 186 -49 q 240 -31 222 -49 q 257 14 257 -12 q 240 58 257 40 q 201 76 222 76 q 176 69 186 76 q 158 56 165 63 q 146 35 151 46 l 56 35 l 83 285 l 326 285 l 326 188 l 167 188 l 160 139 q 175 146 165 142 q 194 151 182 149 q 222 153 207 153 z "},"₆":{"ha":396,"x_min":42,"x_max":361,"o":"m 42 0 m 215 160 q 271 148 244 160 q 317 116 297 136 q 349 69 338 96 q 361 14 361 43 q 349 -46 361 -18 q 315 -94 336 -74 q 264 -127 293 -115 q 201 -139 235 -139 q 139 -127 168 -139 q 88 -94 110 -115 q 54 -46 67 -74 q 42 14 42 -18 q 51 66 42 40 q 72 113 61 92 q 104 160 86 138 l 194 285 l 306 285 l 215 160 m 139 14 q 157 -31 139 -12 q 201 -49 175 -49 q 246 -31 228 -49 q 264 14 264 -12 q 246 58 264 40 q 201 76 228 76 q 157 58 175 76 q 139 14 139 40 z "},"₇":{"ha":340,"x_min":56,"x_max":340,"o":"m 56 0 m 56 285 l 340 285 l 340 208 l 188 -132 l 76 -132 l 222 188 l 56 188 l 56 285 z "},"₈":{"ha":403,"x_min":42,"x_max":361,"o":"m 42 0 m 201 208 q 173 195 186 208 q 160 167 160 182 q 173 138 160 151 q 201 125 186 125 q 230 138 217 125 q 243 167 243 151 q 230 195 243 182 q 201 208 217 208 m 201 -139 q 85 -99 128 -139 q 42 -7 42 -60 q 50 33 42 17 q 69 61 58 50 q 97 83 82 75 q 76 104 85 92 q 62 131 68 115 q 56 167 56 146 q 94 256 56 219 q 201 292 133 292 q 308 256 269 292 q 347 167 347 219 q 340 131 347 146 q 326 104 333 115 q 306 83 317 92 q 333 61 321 75 q 353 33 344 50 q 361 -7 361 17 q 318 -99 361 -60 q 201 -139 275 -139 m 201 42 q 167 28 181 42 q 153 -7 153 14 q 167 -42 153 -28 q 201 -56 181 -56 q 236 -42 222 -56 q 250 -7 250 -28 q 236 28 250 14 q 201 42 222 42 z "},"₉":{"ha":396,"x_min":35,"x_max":354,"o":"m 35 0 m 181 -7 q 125 5 151 -7 q 78 37 99 17 q 47 83 58 57 q 35 139 35 110 q 47 197 35 169 q 81 246 60 225 q 132 279 103 267 q 194 292 161 292 q 257 279 228 292 q 308 246 286 267 q 342 197 329 225 q 354 139 354 169 q 344 87 354 113 q 322 40 333 61 q 292 -7 308 15 l 201 -132 l 90 -132 l 181 -7 m 257 139 q 239 183 257 165 q 194 201 221 201 q 150 183 168 201 q 132 139 132 165 q 150 94 132 113 q 194 76 168 76 q 239 94 221 76 q 257 139 257 113 z "},"€":{"ha":958,"x_min":35,"x_max":917,"o":"m 35 576 l 146 576 q 200 692 164 636 q 286 790 236 747 q 399 857 336 832 q 535 882 461 882 q 667 856 606 882 q 777 788 728 831 q 860 689 826 746 q 910 569 894 632 l 736 569 q 710 626 728 599 q 667 674 693 653 q 607 709 640 696 q 535 722 574 722 q 440 699 479 722 q 372 649 400 676 q 319 576 340 617 l 549 576 l 549 465 l 292 465 l 292 389 l 549 389 l 549 278 l 333 278 q 382 215 353 242 q 444 172 407 192 q 535 153 482 153 q 607 166 574 153 q 667 201 640 179 q 713 249 694 222 q 743 306 732 276 l 917 306 q 867 186 901 243 q 783 87 832 129 q 670 19 733 44 q 535 -7 607 -7 q 399 18 461 -7 q 287 83 336 43 q 203 174 238 124 q 153 278 168 225 l 35 278 l 35 389 l 125 389 l 125 465 l 35 465 l 35 576 z "},"₴":{"ha":764,"x_min":49,"x_max":715,"o":"m 49 292 l 49 403 l 715 403 l 715 292 l 347 292 q 319 271 332 283 q 300 244 308 260 q 292 208 292 229 q 317 154 292 176 q 389 132 342 132 q 468 156 442 132 q 500 215 494 179 l 660 215 q 637 131 657 171 q 581 60 617 90 q 494 11 544 29 q 382 -7 444 -7 q 269 11 319 -7 q 184 58 219 29 q 130 125 149 88 q 111 201 111 163 q 116 239 111 222 q 128 267 121 256 q 146 292 135 281 l 49 292 m 715 583 l 715 472 l 49 472 l 49 583 l 417 583 q 444 604 432 592 q 464 631 456 615 q 472 667 472 646 q 447 721 472 699 q 375 743 422 743 q 296 719 322 743 q 264 660 269 696 l 104 660 q 127 744 107 704 q 183 815 147 785 q 269 864 219 846 q 382 882 319 882 q 494 864 444 882 q 580 817 544 846 q 634 750 615 788 q 653 674 653 713 q 647 635 653 653 q 635 607 642 618 q 618 583 628 593 l 715 583 z "},"₽":{"ha":792,"x_min":35,"x_max":750,"o":"m 35 0 m 35 479 l 125 479 l 125 875 l 451 875 q 574 854 519 875 q 668 797 629 833 q 728 710 707 760 q 750 604 750 661 q 728 501 750 550 q 668 417 707 453 q 574 361 629 382 q 451 340 519 340 l 292 340 l 292 264 l 549 264 l 549 125 l 292 125 l 292 0 l 125 0 l 125 125 l 35 125 l 35 264 l 125 264 l 125 340 l 35 340 l 35 479 m 451 479 q 547 515 510 479 q 583 604 583 551 q 547 693 583 657 q 451 729 510 729 l 292 729 l 292 479 l 451 479 z "},"№":{"ha":1326,"x_min":90,"x_max":1285,"o":"m 896 139 l 1271 139 l 1271 0 l 896 0 l 896 139 m 1160 424 q 1138 483 1160 460 q 1083 507 1115 507 q 1029 483 1051 507 q 1007 424 1007 460 q 1029 364 1007 388 q 1083 340 1051 340 q 1138 364 1115 340 q 1160 424 1160 388 m 1285 424 q 1269 345 1285 382 q 1226 281 1253 308 q 1162 238 1199 254 q 1083 222 1125 222 q 1005 238 1042 222 q 941 281 968 254 q 898 345 914 308 q 882 424 882 382 q 898 502 882 465 q 941 566 914 539 q 1005 609 968 593 q 1083 625 1042 625 q 1162 609 1125 625 q 1226 566 1199 593 q 1269 502 1253 539 q 1285 424 1285 465 m 792 875 l 792 0 l 646 0 l 257 569 l 257 0 l 90 0 l 90 875 l 236 875 l 625 306 l 625 875 l 792 875 z "},"™":{"ha":785,"x_min":14,"x_max":729,"o":"m 306 785 l 208 785 l 208 514 l 111 514 l 111 785 l 14 785 l 14 875 l 306 875 l 306 785 m 521 618 l 451 715 l 451 514 l 354 514 l 354 875 l 438 875 l 542 722 l 646 875 l 729 875 l 729 514 l 632 514 l 632 715 l 563 618 l 521 618 z "},"←":{"ha":1389,"x_min":132,"x_max":1257,"o":"m 563 861 l 563 667 l 396 500 l 1257 500 l 1257 361 l 396 361 l 563 194 l 563 0 l 132 431 l 563 861 z "},"↑":{"ha":1389,"x_min":264,"x_max":1125,"o":"m 1125 576 l 931 576 l 764 743 l 764 -118 l 625 -118 l 625 743 l 458 576 l 264 576 l 694 1007 l 1125 576 z "},"→":{"ha":1389,"x_min":132,"x_max":1257,"o":"m 1257 431 l 826 0 l 826 194 l 993 361 l 132 361 l 132 500 l 993 500 l 826 667 l 826 861 l 1257 431 z "},"↓":{"ha":1389,"x_min":264,"x_max":1125,"o":"m 694 -118 l 264 313 l 458 313 l 625 146 l 625 1007 l 764 1007 l 764 146 l 931 313 l 1125 313 l 694 -118 z "},"↔":{"ha":1389,"x_min":132,"x_max":1257,"o":"m 132 431 l 563 861 l 563 667 l 396 500 l 993 500 l 826 667 l 826 861 l 1257 431 l 826 0 l 826 194 l 993 361 l 396 361 l 563 194 l 563 0 l 132 431 z "},"↕":{"ha":1389,"x_min":264,"x_max":1125,"o":"m 694 -118 l 264 313 l 458 313 l 625 146 l 625 743 l 458 576 l 264 576 l 694 1007 l 1125 576 l 931 576 l 764 743 l 764 146 l 931 313 l 1125 313 l 694 -118 z "},"↖":{"ha":1389,"x_min":271,"x_max":1118,"o":"m 875 854 l 736 715 l 507 715 l 1118 106 l 1021 7 l 410 618 l 410 389 l 271 250 l 271 854 l 875 854 z "},"↗":{"ha":1389,"x_min":271,"x_max":1118,"o":"m 1118 854 l 1118 250 l 979 389 l 979 618 l 368 7 l 271 106 l 882 715 l 653 715 l 514 854 l 1118 854 z "},"↘":{"ha":1389,"x_min":271,"x_max":1118,"o":"m 514 7 l 653 146 l 882 146 l 271 756 l 368 854 l 979 243 l 979 472 l 1118 611 l 1118 7 l 514 7 z "},"↙":{"ha":1389,"x_min":271,"x_max":1118,"o":"m 271 7 l 271 611 l 410 472 l 410 243 l 1021 854 l 1118 756 l 507 146 l 736 146 l 875 7 l 271 7 z "},"−":{"ha":646,"x_min":49,"x_max":597,"o":"m 597 285 l 49 285 l 49 424 l 597 424 l 597 285 z "},"≈":{"ha":625,"x_min":0,"x_max":625,"o":"m 451 396 q 381 408 418 396 q 309 434 344 419 q 242 460 274 449 q 188 472 211 472 q 143 453 161 472 q 125 403 125 435 l 0 403 q 47 565 0 513 q 174 618 94 618 q 244 606 207 618 q 316 580 281 594 q 383 553 351 565 q 438 542 414 542 q 482 560 464 542 q 500 611 500 579 l 625 611 q 578 449 625 501 q 451 396 531 396 m 451 118 q 381 130 418 118 q 309 156 344 142 q 242 183 274 171 q 188 194 211 194 q 143 176 161 194 q 125 125 125 157 l 0 125 q 47 288 0 235 q 174 340 94 340 q 244 328 207 340 q 316 302 281 317 q 383 276 351 288 q 438 264 414 264 q 482 283 464 264 q 500 333 500 301 l 625 333 q 578 171 625 224 q 451 118 531 118 z "},"≠":{"ha":625,"x_min":28,"x_max":597,"o":"m 410 410 l 361 299 l 597 299 l 597 153 l 306 153 l 243 7 l 97 7 l 160 153 l 28 153 l 28 299 l 215 299 l 264 410 l 28 410 l 28 556 l 319 556 l 382 701 l 528 701 l 465 556 l 597 556 l 597 410 l 410 410 z "},"≤":{"ha":639,"x_min":56,"x_max":583,"o":"m 56 132 l 583 132 l 583 0 l 56 0 l 56 132 m 583 708 l 583 569 l 257 444 l 583 319 l 583 181 l 63 396 l 63 493 l 583 708 z "},"≥":{"ha":639,"x_min":56,"x_max":583,"o":"m 583 0 l 56 0 l 56 132 l 583 132 l 583 0 m 576 493 l 576 396 l 56 181 l 56 319 l 382 444 l 56 569 l 56 708 l 576 493 z "},"①":{"ha":1389,"x_min":104,"x_max":1285,"o":"m 104 444 q 151 674 104 567 q 277 862 197 782 q 465 988 357 942 q 694 1035 572 1035 q 924 988 817 1035 q 1112 862 1032 942 q 1238 674 1192 782 q 1285 444 1285 567 q 1238 215 1285 322 q 1112 27 1192 107 q 924 -99 1032 -53 q 694 -146 817 -146 q 465 -100 572 -146 q 277 26 357 -54 q 151 213 197 106 q 104 444 104 321 m 250 444 q 285 272 250 353 q 381 131 321 192 q 522 35 442 71 q 694 0 603 0 q 867 35 786 0 q 1008 131 947 71 q 1103 272 1068 192 q 1139 444 1139 353 q 1103 617 1139 536 q 1008 758 1068 697 q 867 853 947 818 q 694 889 786 889 q 522 853 603 889 q 381 758 442 818 q 285 617 321 697 q 250 444 250 536 m 785 722 l 785 167 l 646 167 l 646 565 l 576 521 l 514 618 l 667 722 l 785 722 z "},"②":{"ha":1389,"x_min":104,"x_max":1285,"o":"m 896 292 l 896 167 l 500 167 l 500 257 l 694 458 q 733 501 715 479 q 750 556 750 524 q 735 590 750 576 q 694 604 721 604 q 632 542 642 604 l 493 542 q 512 615 496 581 q 555 674 528 649 q 617 715 582 700 q 694 729 653 729 q 775 716 739 729 q 836 680 811 703 q 875 626 861 657 q 889 563 889 596 q 873 470 889 506 q 826 403 857 435 l 722 292 l 896 292 m 104 444 q 151 674 104 567 q 277 862 197 782 q 465 988 357 942 q 694 1035 572 1035 q 924 988 817 1035 q 1112 862 1032 942 q 1238 674 1192 782 q 1285 444 1285 567 q 1238 215 1285 322 q 1112 27 1192 107 q 924 -99 1032 -53 q 694 -146 817 -146 q 465 -100 572 -146 q 277 26 357 -54 q 151 213 197 106 q 104 444 104 321 m 250 444 q 285 272 250 353 q 381 131 321 192 q 522 35 442 71 q 694 0 603 0 q 867 35 786 0 q 1008 131 947 71 q 1103 272 1068 192 q 1139 444 1139 353 q 1103 617 1139 536 q 1008 758 1068 697 q 867 853 947 818 q 694 889 786 889 q 522 853 603 889 q 381 758 442 818 q 285 617 321 697 q 250 444 250 536 z "},"③":{"ha":1389,"x_min":104,"x_max":1285,"o":"m 813 458 q 858 433 838 450 q 891 393 876 418 q 906 329 906 368 q 891 263 906 294 q 849 209 876 232 q 783 173 822 186 q 694 160 744 160 q 540 210 594 160 q 479 333 485 260 l 618 333 q 641 299 624 313 q 694 285 658 285 q 745 302 726 285 q 764 340 764 319 q 745 378 764 361 q 694 396 726 396 l 639 396 l 639 507 l 694 507 q 735 520 719 507 q 750 556 750 533 q 735 590 750 576 q 694 604 721 604 q 653 590 668 604 q 632 556 638 576 l 493 556 q 511 624 496 592 q 552 679 526 656 q 614 716 578 703 q 694 729 650 729 q 838 684 786 729 q 889 576 889 639 q 877 519 889 542 q 850 483 865 497 q 813 458 833 468 m 104 444 q 151 674 104 567 q 277 862 197 782 q 465 988 357 942 q 694 1035 572 1035 q 924 988 817 1035 q 1112 862 1032 942 q 1238 674 1192 782 q 1285 444 1285 567 q 1238 215 1285 322 q 1112 27 1192 107 q 924 -99 1032 -53 q 694 -146 817 -146 q 465 -100 572 -146 q 277 26 357 -54 q 151 213 197 106 q 104 444 104 321 m 250 444 q 285 272 250 353 q 381 131 321 192 q 522 35 442 71 q 694 0 603 0 q 867 35 786 0 q 1008 131 947 71 q 1103 272 1068 192 q 1139 444 1139 353 q 1103 617 1139 536 q 1008 758 1068 697 q 867 853 947 818 q 694 889 786 889 q 522 853 603 889 q 381 758 442 818 q 285 617 321 697 q 250 444 250 536 z "},"④":{"ha":1389,"x_min":104,"x_max":1285,"o":"m 889 271 l 833 271 l 833 167 l 694 167 l 694 271 l 458 271 l 458 382 l 681 722 l 833 722 l 833 396 l 889 396 l 889 271 m 694 396 l 694 542 l 597 396 l 694 396 m 104 444 q 151 674 104 567 q 277 862 197 782 q 465 988 357 942 q 694 1035 572 1035 q 924 988 817 1035 q 1112 862 1032 942 q 1238 674 1192 782 q 1285 444 1285 567 q 1238 215 1285 322 q 1112 27 1192 107 q 924 -99 1032 -53 q 694 -146 817 -146 q 465 -100 572 -146 q 277 26 357 -54 q 151 213 197 106 q 104 444 104 321 m 250 444 q 285 272 250 353 q 381 131 321 192 q 522 35 442 71 q 694 0 603 0 q 867 35 786 0 q 1008 131 947 71 q 1103 272 1068 192 q 1139 444 1139 353 q 1103 617 1139 536 q 1008 758 1068 697 q 867 853 947 818 q 694 889 786 889 q 522 853 603 889 q 381 758 442 818 q 285 617 321 697 q 250 444 250 536 z "},"⑤":{"ha":1389,"x_min":104,"x_max":1285,"o":"m 715 542 q 851 490 799 542 q 903 354 903 438 q 888 277 903 313 q 845 215 872 242 q 780 174 818 189 q 694 160 742 160 q 551 210 606 160 q 486 333 496 260 l 625 333 q 639 308 629 319 q 660 292 646 299 q 694 285 674 285 q 745 303 726 285 q 764 354 764 322 q 745 405 764 386 q 694 424 726 424 q 663 418 675 424 q 644 406 651 413 q 632 389 636 399 l 500 389 l 542 722 l 861 722 l 861 597 l 653 597 l 639 528 q 661 535 649 531 q 686 540 672 538 q 715 542 700 542 m 104 444 q 151 674 104 567 q 277 862 197 782 q 465 988 357 942 q 694 1035 572 1035 q 924 988 817 1035 q 1112 862 1032 942 q 1238 674 1192 782 q 1285 444 1285 567 q 1238 215 1285 322 q 1112 27 1192 107 q 924 -99 1032 -53 q 694 -146 817 -146 q 465 -100 572 -146 q 277 26 357 -54 q 151 213 197 106 q 104 444 104 321 m 250 444 q 285 272 250 353 q 381 131 321 192 q 522 35 442 71 q 694 0 603 0 q 867 35 786 0 q 1008 131 947 71 q 1103 272 1068 192 q 1139 444 1139 353 q 1103 617 1139 536 q 1008 758 1068 697 q 867 853 947 818 q 694 889 786 889 q 522 853 603 889 q 381 758 442 818 q 285 617 321 697 q 250 444 250 536 z "},"⑥":{"ha":1389,"x_min":104,"x_max":1285,"o":"m 694 160 q 612 176 650 160 q 546 218 574 192 q 502 280 518 244 q 486 354 486 315 q 493 416 486 388 q 510 464 500 444 q 535 507 521 488 l 681 722 l 826 722 l 701 549 q 847 488 790 538 q 903 354 903 438 q 887 280 903 315 q 843 218 871 244 q 777 176 815 192 q 694 160 739 160 m 625 354 q 644 306 625 328 q 694 285 663 285 q 745 306 726 285 q 764 354 764 328 q 745 402 764 381 q 694 424 726 424 q 644 402 663 424 q 625 354 625 381 m 104 444 q 151 674 104 567 q 277 862 197 782 q 465 988 357 942 q 694 1035 572 1035 q 924 988 817 1035 q 1112 862 1032 942 q 1238 674 1192 782 q 1285 444 1285 567 q 1238 215 1285 322 q 1112 27 1192 107 q 924 -99 1032 -53 q 694 -146 817 -146 q 465 -100 572 -146 q 277 26 357 -54 q 151 213 197 106 q 104 444 104 321 m 250 444 q 285 272 250 353 q 381 131 321 192 q 522 35 442 71 q 694 0 603 0 q 867 35 786 0 q 1008 131 947 71 q 1103 272 1068 192 q 1139 444 1139 353 q 1103 617 1139 536 q 1008 758 1068 697 q 867 853 947 818 q 694 889 786 889 q 522 853 603 889 q 381 758 442 818 q 285 617 321 697 q 250 444 250 536 z "},"⑦":{"ha":1389,"x_min":104,"x_max":1285,"o":"m 889 722 l 889 618 l 674 167 l 535 167 l 740 597 l 514 597 l 514 722 l 889 722 m 104 444 q 151 674 104 567 q 277 862 197 782 q 465 988 357 942 q 694 1035 572 1035 q 924 988 817 1035 q 1112 862 1032 942 q 1238 674 1192 782 q 1285 444 1285 567 q 1238 215 1285 322 q 1112 27 1192 107 q 924 -99 1032 -53 q 694 -146 817 -146 q 465 -100 572 -146 q 277 26 357 -54 q 151 213 197 106 q 104 444 104 321 m 250 444 q 285 272 250 353 q 381 131 321 192 q 522 35 442 71 q 694 0 603 0 q 867 35 786 0 q 1008 131 947 71 q 1103 272 1068 192 q 1139 444 1139 353 q 1103 617 1139 536 q 1008 758 1068 697 q 867 853 947 818 q 694 889 786 889 q 522 853 603 889 q 381 758 442 818 q 285 617 321 697 q 250 444 250 536 z "},"⑧":{"ha":1389,"x_min":104,"x_max":1285,"o":"m 694 271 q 751 289 731 271 q 771 333 771 307 q 751 378 771 360 q 694 396 731 396 q 638 378 658 396 q 618 333 618 360 q 638 289 618 307 q 694 271 658 271 m 694 521 q 735 535 721 521 q 750 569 750 549 q 735 604 750 590 q 694 618 721 618 q 653 604 668 618 q 639 569 639 590 q 653 535 639 549 q 694 521 668 521 m 104 444 q 151 674 104 567 q 277 862 197 782 q 465 988 357 942 q 694 1035 572 1035 q 924 988 817 1035 q 1112 862 1032 942 q 1238 674 1192 782 q 1285 444 1285 567 q 1238 215 1285 322 q 1112 27 1192 107 q 924 -99 1032 -53 q 694 -146 817 -146 q 465 -100 572 -146 q 277 26 357 -54 q 151 213 197 106 q 104 444 104 321 m 250 444 q 285 272 250 353 q 381 131 321 192 q 522 35 442 71 q 694 0 603 0 q 867 35 786 0 q 1008 131 947 71 q 1103 272 1068 192 q 1139 444 1139 353 q 1103 617 1139 536 q 1008 758 1068 697 q 867 853 947 818 q 694 889 786 889 q 522 853 603 889 q 381 758 442 818 q 285 617 321 697 q 250 444 250 536 m 694 160 q 535 210 590 160 q 479 333 479 260 q 494 393 479 369 q 528 432 508 417 q 576 458 549 449 q 538 486 554 469 q 511 523 522 501 q 500 576 500 544 q 550 684 500 639 q 694 729 600 729 q 839 684 789 729 q 889 576 889 639 q 877 523 889 544 q 850 486 865 501 q 813 458 833 469 q 861 432 839 449 q 894 393 879 417 q 910 333 910 369 q 854 210 910 260 q 694 160 799 160 z "},"⑨":{"ha":1389,"x_min":104,"x_max":1285,"o":"m 1285 444 q 1238 215 1285 322 q 1112 27 1192 107 q 924 -99 1032 -53 q 694 -146 817 -146 q 465 -99 572 -146 q 277 27 357 -53 q 151 215 197 107 q 104 444 104 322 q 151 674 104 567 q 277 862 197 782 q 465 988 357 942 q 694 1035 572 1035 q 924 989 817 1035 q 1112 863 1032 943 q 1238 674 1192 782 q 1285 444 1285 567 m 1139 444 q 1103 617 1139 536 q 1008 758 1068 697 q 867 853 947 818 q 694 889 786 889 q 522 853 603 889 q 381 758 442 818 q 285 617 321 697 q 250 444 250 536 q 285 272 250 353 q 381 130 321 190 q 522 35 442 69 q 694 0 603 0 q 867 35 786 0 q 1008 131 947 71 q 1103 272 1068 192 q 1139 444 1139 353 m 694 729 q 777 713 739 729 q 843 671 815 697 q 887 609 871 644 q 903 535 903 574 q 895 472 903 500 q 878 425 888 444 q 854 382 867 401 l 708 167 l 563 167 l 688 340 q 542 401 599 351 q 486 535 486 451 q 502 609 486 574 q 546 671 518 644 q 612 713 574 697 q 694 729 650 729 m 764 535 q 745 583 764 561 q 694 604 726 604 q 644 583 663 604 q 625 535 625 561 q 644 487 625 508 q 694 465 663 465 q 745 487 726 465 q 764 535 764 508 z "},"⓪":{"ha":1389,"x_min":104,"x_max":1285,"o":"m 597 444 q 625 320 597 356 q 694 285 653 285 q 764 320 736 285 q 792 444 792 356 q 764 569 792 533 q 694 604 736 604 q 625 569 653 604 q 597 444 597 533 m 931 444 q 913 324 931 376 q 863 234 894 271 q 788 178 831 197 q 694 160 744 160 q 601 178 644 160 q 526 234 558 197 q 476 324 494 271 q 458 444 458 376 q 476 565 458 513 q 526 654 494 618 q 601 710 558 690 q 694 729 644 729 q 788 710 744 729 q 863 654 831 690 q 913 565 894 618 q 931 444 931 513 m 104 444 q 151 674 104 567 q 277 862 197 782 q 465 988 357 942 q 694 1035 572 1035 q 924 988 817 1035 q 1112 862 1032 942 q 1238 674 1192 782 q 1285 444 1285 567 q 1238 215 1285 322 q 1112 27 1192 107 q 924 -99 1032 -53 q 694 -146 817 -146 q 465 -100 572 -146 q 277 26 357 -54 q 151 213 197 106 q 104 444 104 321 m 250 444 q 285 272 250 353 q 381 131 321 192 q 522 35 442 71 q 694 0 603 0 q 867 35 786 0 q 1008 131 947 71 q 1103 272 1068 192 q 1139 444 1139 353 q 1103 617 1139 536 q 1008 758 1068 697 q 867 853 947 818 q 694 889 786 889 q 522 853 603 889 q 381 758 442 818 q 285 617 321 697 q 250 444 250 536 z "},"⓿":{"ha":1389,"x_min":104,"x_max":1285,"o":"m 597 444 q 625 569 597 533 q 694 604 653 604 q 764 569 736 604 q 792 444 792 533 q 764 320 792 356 q 694 285 736 285 q 625 320 653 285 q 597 444 597 356 m 931 444 q 913 565 931 513 q 863 654 894 618 q 788 710 831 690 q 694 729 744 729 q 601 710 644 729 q 526 654 558 690 q 476 565 494 618 q 458 444 458 513 q 476 324 458 376 q 526 234 494 271 q 601 178 558 197 q 694 160 644 160 q 788 178 744 160 q 863 234 831 197 q 913 324 894 271 q 931 444 931 376 m 104 444 q 151 674 104 567 q 277 862 197 782 q 465 988 357 942 q 694 1035 572 1035 q 924 988 817 1035 q 1112 862 1032 942 q 1238 674 1192 782 q 1285 444 1285 567 q 1238 215 1285 322 q 1112 27 1192 107 q 924 -99 1032 -53 q 694 -146 817 -146 q 465 -100 572 -146 q 277 26 357 -54 q 151 213 197 106 q 104 444 104 321 z "},"❶":{"ha":1389,"x_min":104,"x_max":1285,"o":"m 104 444 q 151 674 104 567 q 277 862 197 782 q 465 988 357 942 q 694 1035 572 1035 q 924 988 817 1035 q 1112 862 1032 942 q 1238 674 1192 782 q 1285 444 1285 567 q 1238 215 1285 322 q 1112 27 1192 107 q 924 -99 1032 -53 q 694 -146 817 -146 q 465 -100 572 -146 q 277 26 357 -54 q 151 213 197 106 q 104 444 104 321 m 667 722 l 514 618 l 576 521 l 646 565 l 646 167 l 785 167 l 785 722 l 667 722 z "},"❷":{"ha":1389,"x_min":104,"x_max":1285,"o":"m 722 292 l 826 403 q 873 470 857 435 q 889 563 889 506 q 875 626 889 596 q 836 680 861 657 q 775 716 811 703 q 694 729 739 729 q 617 715 653 729 q 555 674 582 700 q 512 615 528 649 q 493 542 496 581 l 632 542 q 694 604 642 604 q 735 590 721 604 q 750 556 750 576 q 733 501 750 524 q 694 458 715 479 l 500 257 l 500 167 l 896 167 l 896 292 l 722 292 m 104 444 q 151 674 104 567 q 277 862 197 782 q 465 988 357 942 q 694 1035 572 1035 q 924 988 817 1035 q 1112 862 1032 942 q 1238 674 1192 782 q 1285 444 1285 567 q 1238 215 1285 322 q 1112 27 1192 107 q 924 -99 1032 -53 q 694 -146 817 -146 q 465 -100 572 -146 q 277 26 357 -54 q 151 213 197 106 q 104 444 104 321 z "}}}
